<svg xmlns="http://www.w3.org/2000/svg" xmlns:xlink="http://www.w3.org/1999/xlink" viewBox="0 0 74.375 85" fill="white" fill-rule="evenodd"><use xlink:href="#A" x="2.188" y="2.5"/><symbol id="A" overflow="visible"><path d="M40.012 66.958L68.926 50.49V17.653L40.012 34.066v32.892z"/><path d="M11.13 50.5l28.892 16.446v-32.86L11.13 17.664V50.5zm57.742-32.858L40.023 1.25l-28.86 16.38 28.86 16.424L68.87 17.63z"/><path d="M40.023 32.805l26.7-15.152-.032-.022-26.657 15.173zM13.366 17.632l-.043.022 26.7 15.152-26.657-15.173z"/><path d="M40.023 32.805z"/><path d="M68.872 16.38L40.024 0 11.132 16.38l-1.085.642v34.12L38.94 67.59l1.085.62 1.085-.62L70 51.143v-34.12zm-1.085 33.5L41.065 65.1v-30.4L67.787 19.47zM38.895 65.1L12.217 49.87V19.513L38.94 34.74zM13.367 17.632L40.024 2.49l26.657 15.14-26.657 15.173-26.722-15.152z" fill="#444"/><path d="M17.5 77.216l16.6-9.452v-18.86l-16.6 9.43v18.882zM.803 67.775l16.675 9.496v-18.96L.803 48.838v18.937zm33.2-18.937L17.467 39.45.933 48.838l16.534 9.4L34 48.838z"/><path d="M17.468 57.366L32.45 48.84l-14.983 8.527zM2.485 48.838l-.022.01 15.005 8.517-14.983-8.527z"/><path d="M17.468 57.365z"/><path d="M34.1 47.902l-16.632-9.44L0 48.38v19.894l17.468 9.93.814-.468 16.654-9.463V48.37zm-.792 19.405L18.28 75.89V58.78l15.026-8.528zM16.654 75.89L1.627 67.307V50.252l15.026 8.528zM2.452 48.838l14.983-8.506 14.983 8.506-14.95 8.56-15.016-8.55z" fill="#444"/><path d="M35.24 78.782l9.547-5.438V62.5l-9.547 5.428v10.844zm-9.852-5.438l9.547 5.438V67.938L25.388 62.5v10.834zM44.57 62.238l-9.482-5.384-9.482 5.384 9.482 5.395 9.482-5.395z"/><path d="M35.087 66.904l8.202-4.655-.01-.01-8.2 4.666zm-8.19-4.666l-.01.01 8.202 4.655-8.2-4.666z"/><path d="M35.088 66.9z"/><path d="M44.927 61.303l-9.84-5.59-10.676 6.06v12.15L35.076 80l.814-.468 9.85-5.612V61.75zm-.803 11.67L35.9 77.65v-9.376l8.224-4.666zM26.05 63.64l8.224 4.634v9.343L26.05 72.94zm.846-1.403l8.19-4.655 8.19 4.655-8.202 4.655-8.202-4.655z" fill="#444"/></symbol></svg>