<svg xmlns="http://www.w3.org/2000/svg" xmlns:xlink="http://www.w3.org/1999/xlink" viewBox="0 0 85 58.438" fill="white" fill-rule="evenodd"><use xlink:href="#A" x="2.5" y="1.719"/><symbol id="A" overflow="visible"><path d="M80 37.104V40.9C80 47.842 72.757 55 63.845 55h-47.68C7.254 55 .01 47.842.01 40.9v-3.806z" fill="#9d5125"/><path d="M30.8 0c8.03-.014 15.322 4.915 18.64 12.6 3.116-2.238 7.14-2.522 10.513-.74s5.558 5.345 5.71 9.307C73.722 21.87 80 30.04 80 36.532v1.408c0 6.98-7.243 14.054-16.188 14.054H16.166C7.243 51.994 0 44.92 0 37.94v-1.396c0-5.38 4.303-12.778 10.353-14.615v-.608c.02-5.677 2.187-11.112 6.02-15.1S25.397-.022 30.8 0z" fill="#f58535"/><path d="M20.048 24.947L14.7 44.573h3.133l1.203-4.772h5.506l1.135 4.772H28.8l-4.916-19.626zM19.57 37.26l2.27-9.7L24 37.236zm22.695 3.018h-.045l-2.532-15.33h-3.156l-2.475 15.247H34l-2.464-15.247h-3.03l3.62 19.626h3.485l2.395-14.782h.057l2.418 14.782h3.474L47.7 24.948h-2.974l-2.452 15.33zm15.087-6.418l-2.032-.775c-1.987-.752-2.827-1.646-2.827-3.33a2.6 2.6 0 0 1 .628-2.036c.487-.546 1.18-.837 1.892-.792.737-.104 1.477.164 1.996.724s.755 1.344.637 2.116v.417h3.008v-.44c0-2.028-.5-5.166-5.313-5.166-3.53 0-5.847 1.98-5.847 5.56 0 2.804 1.135 4.283 3.917 5.38l2.055.752c1.623.234 2.8 1.742 2.702 3.46.02.8-.277 1.55-.82 2.097a2.58 2.58 0 0 1-2.03.767c-2.078 0-3.077-1.193-3.077-3.58v-.5h-2.997v.465c0 2.744 1.056 5.965 5.676 5.965 3.792 0 6.22-1.73 6.22-5.906.034-2.684-1.135-4.2-3.792-5.178z"/></symbol></svg>