<svg xmlns="http://www.w3.org/2000/svg" xmlns:xlink="http://www.w3.org/1999/xlink" viewBox="0 0 74.375 85" fill="white" fill-rule="evenodd"><use xlink:href="#A" x="2.188" y="2.5"/><symbol id="A" overflow="visible"><path d="M9.754 68L0 63.376v-46.85l9.754-4.605 13.442 28.8L9.754 68z" fill="#4b612c"/><path d="M41.973 20.127l-32.22-8.205V68l32.22-8.517V20.127z" fill="#759c3e"/><path d="M56.857 55.307l7.5 2.4 4.728-15.444L64.356 26.8l-7.5 1.024v27.483z" fill="#4b612c"/><path d="M64.356 27.2l-7.498.898-4.41-.878 7.694-15.24 4.213 15.22z" fill="#3c4929"/><path d="M52.45 27.22l7.694-.976V11.942l-7.694 1.96V27.22z" fill="#4b612c"/><path d="M27.924 22.07L35 15.054l18.57 9.64-6.87 1.064-18.777-3.688z" fill="#3c4929"/><path d="M64.356 52.8l-7.498-.8-4.41.78 7.694 15.337L64.356 52.8z" fill="#b7ca9d"/><path d="M52.45 52.78l7.694.976v14.36l-7.694-2.02V52.78z" fill="#4b612c"/><path d="M53.57 24.693L35 20.4V0l18.57 8.85v15.844zM70 16.625l-9.857-4.683v14.303L70 28.48V16.625z" fill="#759c3e"/><path d="M27.924 57.932L35 71.307l18.57-16-6.87-1.063-18.777 3.688z" fill="#b7ca9d"/><path d="M53.57 55.307L35 59.6V80l18.57-8.77V55.307zM70 63.473l-9.857 4.644v-14.36L70 51.522v11.95z" fill="#759c3e"/><path d="M16.326 71.132L35 80l8.6-39.854L35 0 16.326 8.82v62.312z" fill="#4b612c"/><path d="M45.465 75.044L35 80V.293L45.465 5.25v69.795zm18.89-8.947L70 63.473v-46.85l-5.644-1.23v50.702z" fill="#759c3e"/></symbol></svg>