<svg xmlns="http://www.w3.org/2000/svg" xmlns:xlink="http://www.w3.org/1999/xlink" viewBox="0 0 74.375 85" fill="white" fill-rule="evenodd"><use xlink:href="#A" x="2.188" y="2.5"/><symbol id="A" overflow="visible"><path d="M46.09 58.566L9.82 68.05V11.903l36.27 9.278v37.385z" fill="#759c3e"/><path d="M9.82 68.05L0 63.386v-46.84l9.82-4.644V68.05zm6.54-35.914L35 29.912v20.02l-18.63-2.205v-15.6z" fill="#4b612c"/><path d="M70 28.293l-16.99 1.66-36.65-5.512L35 0l35 28.293z" fill="#3c4929"/><path d="M16.36 8.8L35 0v20.05l-18.63 4.4V8.8z" fill="#4b612c"/><path d="M70 51.678L53.01 50l-36.65 5.54L35 79.776l35-28.098z" fill="#b7ca9d"/><path d="M16.36 71.15L35 80V59.95l-18.63-4.4v15.6z" fill="#4b612c"/><path d="M70 28.293L35 20.05V0l35 16.556v11.737zm0 17.512l-35 4.127v-20.05l35 4.176v11.746zm0 17.6L35 80V59.95l35-8.273v11.737z" fill="#759c3e"/></symbol></svg>