<svg xmlns="http://www.w3.org/2000/svg" xmlns:xlink="http://www.w3.org/1999/xlink" viewBox="0 0 74.375 85" fill="#fff" fill-rule="evenodd" stroke="#000" stroke-linecap="round" stroke-linejoin="round"><style><![CDATA[.B{stroke:none}.C{fill:#692f56}.D{fill:#ad688b}.E{fill:#875078}.F{fill:#cfb2c1}.G{fill:#512843}]]></style><use xlink:href="#A" x="2.188" y="2.5"/><symbol id="A" overflow="visible"><path d="M65.512 42.802l-24.54-.823L0 42.583V55.1l12.93 16.56L29.42 80v-7.988l5.58-2V77.5l5.58 2.5 24.932-37.2zm0-5.602l-24.006.812L0 37.417V24.9L12.93 8.342 29.42 0v7.988L35 9.977V2.5L40.58 0l24.932 37.2z" class="B C"/><path d="M29.42 58.923L35 46.082l35-3.5V55.1L57.07 71.66 40.58 80v-7.987L35 70.024v7.488L29.42 80V58.923zm0-37.513L35 34.96l35 2.458V24.9L57.07 8.342 40.58 0v7.988L35 9.977V2.5L29.42 0v21.4z" class="B D"/><path d="M23.76 42.437l41.68 7.883L70 42.583l-28.03-.625-18.2.48z" class="B F"/><path d="M67.756 51.55L43.112 50.09l-1.606 14.62 9.213 6.155 13.434-9.362 3.603-9.956z" class="B E"/><path d="M44.522 42.28l21 .52V53.06l-21-2.406V42.28z" class="B C"/><path d="M2.244 50.695l25.993-1.177 4.396 14.423L17.5 70.44 7.288 61.504l-5.044-10.8z" class="B D"/><path d="M45.18 42.072l-11.2-.25-33.99.76 4.488 7.52 40.693-8.03z" class="B F"/><path d="M24.82 42.29l-20.33.5V53.06l20.33-2.322V42.29z" class="B E"/><path d="M23.76 37.573L65.512 26.95 70 37.427l-28.03.625-18.2-.48z" class="B G"/><path d="M67.756 28.462L43.112 29.91 41.506 15.3l9.213-6.155 13.434 9.362 3.603 9.956z" class="B E"/><path d="M44.522 37.73l21-.53V26.95l-21 2.395v8.383z" class="B C"/><path d="M2.244 29.315l25.993 1.166 4.396-14.413L17.5 9.57 7.288 18.505l-5.044 10.8z" class="B D"/><path d="M45.18 37.928l-11.2.26L0 37.428l4.344-9.904L45.18 37.928z" class="B G"/><path d="M24.82 37.71l-20.33-.5V26.95l20.33 2.322v8.435z" class="B E"/><g class="F"><path d="M48.156 65.337L35 61.91l-18.59 4.843 12.97 5.28 18.777-6.696z" class="B"/><path d="M53.55 66.743L35 61.91l-13.156 3.426 18.735 6.675 12.97-5.27z" class="B"/></g><g class="G"><path d="M48.197 14.643L35 18.058l-18.59-4.81 13.012-5.26 18.776 6.655z" class="B"/><path d="M53.6 13.247L35 18.058l-13.197-3.416L40.58 7.988l13.012 5.26zM20.804 37.2l32.787-6.467 6.547 6.165L35 37.595 20.804 37.2z" class="B"/><path d="M51.543 37.136L35 37.595l-25.138-.698 8.946-11.466 32.735 11.705z" class="B"/></g><path d="M14.834 31.523L35 32.908v-8.79l-13.69-4.26-6.475 11.664z" class="B D"/><path d="M46.704 19.318L35 24.12v8.27L54.116 30.7l-7.412-11.372z" class="B E"/><path d="M19.796 60.1L35 55.86v-8.935l-23.07 1.333 7.865 11.84z" class="B D"/><path d="M54.343 47.79L35 46.925v8.935l9.172 3.634 9.76-1.625.412-10.08z" class="B E"/><path d="M36.524 32.252l17.068-1.52v5.832l-17.068.552v-4.863z" class="B C"/><path d="M32.633 32.21L16.41 30.763v5.8l16.224.53V32.21z" class="B E"/><path d="M36.09 42.812l17.572 6.06 6.475-5.77-17.644-.5-6.403.22z" class="B F"/><path d="M36.524 42.853l17.068.583v5.853l-17.068-1.354v-5.082z" class="B C"/><path d="M27.763 43.052l-6.7-.27-11.2.323L16.41 49.3l11.354-6.238z" class="B F"/><path d="M32.633 42.885l-16.224.552V49.3l16.224-1.48v-4.926z" class="B E"/><g class="C"><path d="M35 48.467l-10.418-1.052V32.43L35 31.367v17.1zM12.93 8.342L29.42 0v7.988l-16.5 6.675v-6.32zm7.277 8.175l9.213-3.093v7.988l-9.213 2.156v-7.05zM9.862 27.9l6.547-1.323v9.977l-6.547.333V27.9zM0 24.9l4.488-1.364V37.2L0 37.418V24.9z" class="B"/><path d="M16.4 13.247L3.994 27.525 0 24.9 12.93 8.342l3.48 4.905zm9.058 9.09l-9.8 9.07-5.826-3.5L20.22 16.515l5.26 5.82z" class="B"/></g><g class="D"><path d="M57.07 8.342L40.58 0v7.988l16.5 6.675v-6.32zm-7.288 8.175l-9.203-3.093v7.988l9.203 2.156v-7.05zM60.138 27.9l-6.547-1.323v9.977l6.547.333V27.9zm9.862-3l-4.488-1.364V37.2l4.488.22V24.9z" class="B"/><path d="M53.6 13.247l12.425 14.278L70 24.9 57.07 8.342l-3.48 4.905zm-9.058 9.09l9.8 9.07 5.827-3.5-10.387-11.403-5.25 5.82z" class="B"/></g><g class="C"><path d="M12.93 71.658L29.42 80v-7.987l-16.5-6.675v6.32zm7.277-8.175l9.213 3.093V58.6l-9.213-2.156v7.05zM9.862 52.1l6.547 1.323v-9.977l-6.547-.333V52.1zM0 55.1l4.488 1.364V42.802L0 42.583V55.1z" class="B"/><path d="M16.4 66.754L3.994 52.476 0 55.1l12.93 16.56 3.48-4.905zm9.058-9.092l-9.8-9.07-5.826 3.5L20.22 63.485l5.26-5.82z" class="B"/></g><g class="D"><path d="M57.07 71.658L40.58 80v-7.987l16.5-6.675v6.32zm-7.288-8.175l-9.203 3.093V58.6l9.203-2.156v7.05zM60.138 52.1l-6.547 1.323v-9.977l6.547-.333V52.1zm9.862 3l-4.488 1.364V42.802l4.488-.22V55.1z" class="B"/><path d="M53.6 66.754l12.425-14.278L70 55.1 57.07 71.66l-3.48-4.905zm-9.058-9.092l9.8-9.07 5.827 3.5-10.387 11.403-5.25-5.82zm.938-10.257L35 48.467v-17.1l10.47 1.062v14.975z" class="B"/></g><path d="M35 22.557l5.58-1.145v-7.988L35 15.07v7.488zm0 42.363l5.58 1.656V58.6L35 57.433v7.488zm0 12.6l5.58 2.5v-7.988L35 70.023v7.488zm0-67.544l5.58-1.98V0L35 2.48v7.488z" class="B C"/><path d="M29.42 21.412L35 22.557V15.07l-5.58-1.645v7.988zm0 45.165L35 64.92v-7.488l-5.58 1.156v7.987zm0 13.423L35 77.5v-7.488l-5.58 2V80zm0-71.93L35 10.04V2.48L29.42 0v8.07z" class="B D"/><g class="F"><path d="M38.964 56.61L35 55.86l-9.532 1.802 3.932.937 9.563-1.99z" class="B"/><path d="M44.522 57.663L35 55.86l-3.963.75 9.543 1.98 3.943-.927z" class="B"/></g><g class="G"><path d="M38.984 23.37L35 24.12l-9.532-1.78 3.953-.927 9.563 1.958z" class="B"/><path d="M44.532 22.338L35 24.12l-3.984-.75 9.563-1.958 3.953.927z" class="B"/></g></symbol></svg>