<svg xmlns="http://www.w3.org/2000/svg" viewBox="0 0 1175 1145" width="1175" height="1145">
	<style>
		tspan { white-space:pre }
		.shp0 { fill: #d2d2d2 } 
	</style>
	<path id="Layer" class="shp0" d="M573.49 1.7C571.29 1.8 562.99 2.5 554.99 3.1C454.99 10.5 353.59 47.5 270.49 106.9C242.99 126.5 221.29 144.9 197.09 169.1C57.99 308.3 0.69 507.5 44.19 701C61.99 780.4 99.99 860.3 150.39 924.5C229.49 1025.4 337.89 1096.5 459.49 1127.3C508.99 1139.9 550.09 1145 601.99 1145C653.19 1145 690.89 1140.4 739.69 1128.5C809.79 1111.3 871.39 1083 932.99 1039.9C991.99 998.5 1046.89 940.5 1086.29 878C1137.09 797.2 1165.99 708 1173.09 610.1C1174.59 589.5 1173.69 538.5 1171.49 517.5C1167.09 475.8 1155.89 420.8 1149.39 409.3C1146.79 404.8 1139.49 399 1134.09 397.1C1132.19 396.5 1127.99 396 1124.59 396C1109.59 396 1096.99 408.5 1096.99 423.2C1096.99 426.7 1098.59 435.1 1100.89 444.2C1120.69 521.2 1122.29 605.8 1105.39 683C1083.79 781.9 1035.59 869.1 962.89 940.6C928.99 973.9 896.29 998.5 853.99 1022.7C755.29 1079.2 632.59 1100.6 517.49 1081.4C430.09 1066.9 354.19 1033.3 282.09 977.2C248.19 950.8 206.89 907.3 181.29 870.9C137.09 808.1 109.29 741.9 94.89 665C87.59 625.8 85.09 573.8 88.49 531.5C93.69 467.3 109.79 407.7 137.09 351.2C149.69 324.9 157.49 311.2 172.59 288.5C203.39 241.9 244.19 198.3 289.29 163.7C342.19 123 404.99 92.1 468.49 75.5C502.79 66.5 530.19 62 564.99 59.5C690.89 50.5 813.29 86.7 912.99 162.6C920.39 168.2 928.19 174.3 930.29 176.2L934.09 179.5L932.59 183.7C924.89 205.3 930.59 232.2 946.79 251C955.09 260.6 970.09 269.6 982.79 272.6C991.49 274.7 1006.59 274.7 1015.39 272.6C1037.69 267.3 1058.49 248.2 1065.09 227C1072.49 203.3 1068.19 179.9 1052.99 160.9C1036.19 139.9 1007.29 130.5 980.59 137.5L974.79 139L966.59 132.2C933.29 104.3 892.99 78.5 850.59 58C781.79 24.7 712.69 6.8 633.99 2C618.89 1.1 583.19 0.9 573.49 1.7L573.49 1.7Z" />
	<path id="Layer" class="shp0" d="M514.29 330.7C503.69 358.1 480.69 418.1 462.99 464C445.29 509.9 408.99 604.2 382.29 673.5C355.69 742.8 333.59 799.8 333.39 800.2C333.09 800.7 361.19 801 395.69 801L458.59 801L462.29 790.7C464.39 785.1 471.79 765.3 478.69 746.7L491.29 713L585.69 713C660.89 713 680.09 712.7 679.79 711.7C678.79 709 663.39 665 655.19 641.5L646.39 616.5L583.89 616L521.49 615.5L562.09 503.6C586.49 436.4 602.99 392.4 603.29 393.4C603.69 394.3 619.89 440.4 639.39 495.8C658.89 551.2 691.09 642.4 710.89 698.5L746.79 800.5L809.39 800.8C843.79 800.9 871.99 800.8 871.99 800.6C871.99 800.4 863.89 779.1 853.89 753.4C843.89 727.6 822.49 672.1 806.29 630C790.09 587.9 771.89 540.7 765.79 525C759.79 509.3 749.29 482.1 742.49 464.5C735.69 446.9 717.99 400.8 702.99 362C687.99 323.2 674.89 289.1 673.79 286.2L671.89 281L533.39 281L514.29 330.7Z" />
</svg>