<svg xmlns="http://www.w3.org/2000/svg" viewBox="0 0 256 100" width="256" height="100">
	<style>
		tspan { white-space:pre }
		.shp0 { fill: #ff9900 } 
		.shp1 { fill: #d2d2d2 } 
	</style>
	<g id="Layer">
		<path id="Layer" fill-rule="evenodd" class="shp0" d="M33.33 95L18.34 89.62L18.34 67.66L33.33 72.76L33.33 95ZM36.08 72.76L51.06 67.66L51.06 89.62L36.08 95L36.08 72.76ZM19.88 66.01L35.05 61.74L49.11 66.28L35.05 71.05C35.05 71.05 19.88 66.01 19.88 66.01ZM15.48 64.31L0.5 58.94L0.5 36.97L15.48 42.08L15.48 64.31ZM18.23 64.31L18.23 42.08L33.22 36.97L33.22 58.94C33.22 58.94 18.23 64.31 18.23 64.31ZM2.04 35.33L17.21 31.06L31.27 35.59L17.21 40.37L2.04 35.33M50.45 64.31L35.47 58.94L35.47 36.97L50.45 42.08L50.45 64.31ZM53.2 64.31L53.2 42.08L68.19 36.97L68.19 58.94C68.19 58.94 53.2 64.31 53.2 64.31ZM37.01 35.33L52.18 31.06L66.24 35.59L52.17 40.37L37.01 35.33M68.3 33.62L53.31 28.25L53.31 6.28L68.3 11.39L68.3 33.62ZM71.04 33.62L71.04 11.39L86.03 6.28L86.03 28.25L71.04 33.62M54.85 4.64L70.02 0.37L84.08 4.9L70.02 9.68L54.85 4.64ZM103.27 33.62L88.28 28.25L88.28 6.28L103.27 11.39L103.27 33.62ZM106.01 11.39L121 6.28L121 28.25L106.01 33.62L106.01 11.39ZM89.82 4.64L89.82 4.64L89.82 4.64M104.99 0.37L119.05 4.9L104.99 9.68L89.82 4.64L104.99 0.37Z" />
		<path id="Layer" fill-rule="evenodd" class="shp1" d="M95.64 80.69L90.61 98.18L88.42 98.18L84.5 85.19L80.91 98.18L78.68 98.18L73.44 80.69L76.15 80.69L79.96 93.72L83.59 80.69L85.58 80.69L89.53 93.77L93.44 80.69L95.64 80.69L95.64 80.69Z" />
		<path id="Layer" fill-rule="evenodd" class="shp1" d="M95.64 80.69L90.61 98.18L88.42 98.18L84.5 85.19L80.91 98.18L78.68 98.18L73.44 80.69L76.15 80.69L79.96 93.72L83.59 80.69L85.58 80.69L89.53 93.77L93.44 80.69L95.64 80.69L95.64 80.69Z" />
		<path id="Layer" fill-rule="evenodd" class="shp1" d="M112.1 93.48C111.64 94.98 110.74 96.22 109.41 97.19C108.07 98.17 106.5 98.66 104.69 98.66C102.3 98.66 100.37 97.82 98.9 96.14C97.42 94.46 96.68 92.26 96.68 89.53C96.68 86.74 97.45 84.49 98.98 82.78C100.51 81.06 102.44 80.2 104.76 80.2C107.04 80.2 108.87 80.99 110.26 82.57C111.65 84.15 112.36 86.52 112.4 89.67L99.7 89.67C99.7 92.31 100.26 94.09 101.36 95.02C102.47 95.94 103.64 96.4 104.87 96.4C107.09 96.4 108.66 95.26 109.57 92.96L112.1 93.48ZM109.42 87.64L109.42 87.64C109.42 87.64 109.42 87.64 109.42 87.64L109.42 87.64ZM108.94 85.03C108.64 84.27 108.13 83.62 107.42 83.08C106.7 82.54 105.84 82.27 104.84 82.27C103.49 82.27 102.35 82.76 101.41 83.73C100.47 84.7 99.95 86 99.83 87.64L109.42 87.64C109.4 86.66 109.23 85.79 108.94 85.03Z" />
		<path id="Layer" fill-rule="evenodd" class="shp1" d="M112.1 93.48C111.64 94.98 110.74 96.22 109.41 97.19C108.07 98.17 106.5 98.66 104.69 98.66C102.3 98.66 100.37 97.82 98.9 96.14C97.42 94.46 96.68 92.26 96.68 89.53C96.68 86.74 97.45 84.49 98.98 82.78C100.51 81.06 102.44 80.2 104.76 80.2C107.04 80.2 108.87 80.99 110.26 82.57C111.65 84.15 112.36 86.52 112.4 89.67L99.7 89.67C99.7 92.31 100.26 94.09 101.36 95.02C102.47 95.94 103.64 96.4 104.87 96.4C107.09 96.4 108.66 95.26 109.57 92.96L112.1 93.48ZM109.42 87.64L109.42 87.64C109.42 87.64 109.42 87.64 109.42 87.64L109.42 87.64ZM108.94 85.03C108.64 84.27 108.13 83.62 107.42 83.08C106.7 82.54 105.84 82.27 104.84 82.27C103.49 82.27 102.35 82.76 101.41 83.73C100.47 84.7 99.95 86 99.83 87.64L109.42 87.64C109.4 86.66 109.23 85.79 108.94 85.03Z" />
		<path id="Layer" fill-rule="evenodd" class="shp1" d="M115.98 98.18L115.98 74.57L118.7 74.57L118.7 83.61C119.94 81.34 121.66 80.2 123.85 80.2C125.85 80.2 127.53 81 128.88 82.58C130.23 84.16 130.91 86.46 130.91 89.48C130.91 92.08 130.24 94.26 128.91 96.02C127.58 97.78 125.85 98.67 123.72 98.67C121.34 98.67 119.52 97.54 118.26 95.29L117.29 98.18L115.98 98.18ZM120.35 95.23C121.33 96.04 122.36 96.45 123.44 96.45C124.82 96.45 125.94 95.85 126.79 94.64C127.64 93.44 128.06 91.8 128.06 89.71C128.06 87.46 127.65 85.68 126.83 84.4C126.01 83.11 124.88 82.46 123.42 82.46C122.28 82.46 121.25 82.92 120.34 83.84C119.42 84.76 118.87 85.94 118.7 87.39L118.7 91.32C118.83 93.12 119.38 94.42 120.35 95.23Z" />
		<path id="Layer" fill-rule="evenodd" class="shp1" d="M115.98 98.18L115.98 74.57L118.7 74.57L118.7 83.61C119.94 81.34 121.66 80.2 123.85 80.2C125.85 80.2 127.53 81 128.88 82.58C130.23 84.16 130.91 86.46 130.91 89.48C130.91 92.08 130.24 94.26 128.91 96.02C127.58 97.78 125.85 98.67 123.72 98.67C121.34 98.67 119.52 97.54 118.26 95.29L117.29 98.18L115.98 98.18ZM120.35 95.23C121.33 96.04 122.36 96.45 123.44 96.45C124.82 96.45 125.94 95.85 126.79 94.64C127.64 93.44 128.06 91.8 128.06 89.71C128.06 87.46 127.65 85.68 126.83 84.4C126.01 83.11 124.88 82.46 123.42 82.46C122.28 82.46 121.25 82.92 120.34 83.84C119.42 84.76 118.87 85.94 118.7 87.39L118.7 91.32C118.83 93.12 119.38 94.42 120.35 95.23Z" />
		<path id="Layer" fill-rule="evenodd" class="shp1" d="M137.85 93.65L140.45 93.11C141.03 95.31 142.85 96.41 145.92 96.41C147.05 96.41 148.01 96.15 148.8 95.64C149.58 95.14 149.98 94.42 149.98 93.5C149.98 92.13 148.98 91.26 146.98 90.9L143.3 90.2C141.85 89.92 140.71 89.38 139.85 88.57C139 87.76 138.57 86.69 138.57 85.36C138.57 83.9 139.15 82.67 140.32 81.69C141.48 80.7 143.05 80.2 145.02 80.2C148.82 80.2 151.16 81.69 152.05 84.65L149.55 85.19C148.84 83.37 147.37 82.46 145.15 82.46C144.04 82.46 143.13 82.69 142.42 83.14C141.71 83.6 141.36 84.23 141.36 85.05C141.36 86.33 142.27 87.14 144.08 87.48L147.48 88.1C151.05 88.75 152.83 90.48 152.83 93.29C152.83 94.89 152.16 96.19 150.84 97.18C149.51 98.17 147.74 98.66 145.54 98.66C141.4 98.66 138.83 96.99 137.85 93.65L137.85 93.65Z" />
		<path id="Layer" fill-rule="evenodd" class="shp1" d="M137.85 93.65L140.45 93.11C141.03 95.31 142.85 96.41 145.92 96.41C147.05 96.41 148.01 96.15 148.8 95.64C149.58 95.14 149.98 94.42 149.98 93.5C149.98 92.13 148.98 91.26 146.98 90.9L143.3 90.2C141.85 89.92 140.71 89.38 139.85 88.57C139 87.76 138.57 86.69 138.57 85.36C138.57 83.9 139.15 82.67 140.32 81.69C141.48 80.7 143.05 80.2 145.02 80.2C148.82 80.2 151.16 81.69 152.05 84.65L149.55 85.19C148.84 83.37 147.37 82.46 145.15 82.46C144.04 82.46 143.13 82.69 142.42 83.14C141.71 83.6 141.36 84.23 141.36 85.05C141.36 86.33 142.27 87.14 144.08 87.48L147.48 88.1C151.05 88.75 152.83 90.48 152.83 93.29C152.83 94.89 152.16 96.19 150.84 97.18C149.51 98.17 147.74 98.66 145.54 98.66C141.4 98.66 138.83 96.99 137.85 93.65L137.85 93.65Z" />
		<path id="Layer" fill-rule="evenodd" class="shp1" d="M169.85 93.48C169.39 94.98 168.49 96.22 167.16 97.19C165.82 98.17 164.25 98.66 162.44 98.66C160.05 98.66 158.12 97.82 156.65 96.14C155.17 94.46 154.43 92.26 154.43 89.53C154.43 86.74 155.2 84.49 156.73 82.78C158.27 81.06 160.19 80.2 162.51 80.2C164.79 80.2 166.62 80.99 168.01 82.57C169.4 84.15 170.11 86.52 170.15 89.67L157.45 89.67C157.45 92.31 158.01 94.09 159.11 95.02C160.22 95.94 161.39 96.4 162.62 96.4C164.84 96.4 166.41 95.26 167.32 92.96L169.85 93.48ZM167.17 87.64L167.17 87.64C167.17 87.64 167.17 87.64 167.17 87.64L167.17 87.64ZM166.69 85.03C166.39 84.27 165.88 83.62 165.17 83.08C164.45 82.54 163.59 82.27 162.59 82.27C161.24 82.27 160.1 82.76 159.16 83.73C158.22 84.7 157.69 86 157.58 87.64L167.17 87.64C167.15 86.66 166.98 85.79 166.69 85.03Z" />
		<path id="Layer" fill-rule="evenodd" class="shp1" d="M169.85 93.48C169.39 94.98 168.49 96.22 167.16 97.19C165.82 98.17 164.25 98.66 162.44 98.66C160.05 98.66 158.12 97.82 156.65 96.14C155.17 94.46 154.43 92.26 154.43 89.53C154.43 86.74 155.2 84.49 156.73 82.78C158.27 81.06 160.19 80.2 162.51 80.2C164.79 80.2 166.62 80.99 168.01 82.57C169.4 84.15 170.11 86.52 170.15 89.67L157.45 89.67C157.45 92.31 158.01 94.09 159.11 95.02C160.22 95.94 161.39 96.4 162.62 96.4C164.84 96.4 166.41 95.26 167.32 92.96L169.85 93.48ZM167.17 87.64L167.17 87.64C167.17 87.64 167.17 87.64 167.17 87.64L167.17 87.64ZM166.69 85.03C166.39 84.27 165.88 83.62 165.17 83.08C164.45 82.54 163.59 82.27 162.59 82.27C161.24 82.27 160.1 82.76 159.16 83.73C158.22 84.7 157.69 86 157.58 87.64L167.17 87.64C167.15 86.66 166.98 85.79 166.69 85.03Z" />
		<path id="Layer" fill-rule="evenodd" class="shp1" d="M175.8 98.18L173.08 98.18L173.08 80.69L175.47 80.69L175.47 84.77C176.31 82.86 177.15 81.62 178 81.05C178.84 80.49 179.71 80.2 180.6 80.2C180.88 80.2 181.24 80.23 181.67 80.27L181.67 82.87L181.12 82.87C179.62 82.87 178.38 83.42 177.39 84.53C176.4 85.65 175.87 87.11 175.8 88.92L175.8 98.18L175.8 98.18Z" />
		<path id="Layer" fill-rule="evenodd" class="shp1" d="M175.8 98.18L173.08 98.18L173.08 80.69L175.47 80.69L175.47 84.77C176.31 82.86 177.15 81.62 178 81.05C178.84 80.49 179.71 80.2 180.6 80.2C180.88 80.2 181.24 80.23 181.67 80.27L181.67 82.87L181.12 82.87C179.62 82.87 178.38 83.42 177.39 84.53C176.4 85.65 175.87 87.11 175.8 88.92L175.8 98.18L175.8 98.18Z" />
		<path id="Layer" fill-rule="evenodd" class="shp1" d="M198.6 80.69L192.56 98.18L189.73 98.18L183.49 80.69L186.51 80.69L191.36 94.91L196.18 80.69L198.6 80.69Z" />
		<path id="Layer" fill-rule="evenodd" class="shp1" d="M198.6 80.69L192.56 98.18L189.73 98.18L183.49 80.69L186.51 80.69L191.36 94.91L196.18 80.69L198.6 80.69Z" />
		<path id="Layer" fill-rule="evenodd" class="shp1" d="M200.77 77.59L203.69 77.59L203.69 74.57L200.77 74.57L200.77 77.59ZM200.9 98.18L203.63 98.18L203.63 80.69L200.9 80.69L200.9 98.18Z" />
		<path id="Layer" fill-rule="evenodd" class="shp1" d="M200.77 77.59L203.69 77.59L203.69 74.57L200.77 74.57L200.77 77.59ZM200.9 98.18L203.63 98.18L203.63 80.69L200.9 80.69L200.9 98.18Z" />
		<path id="Layer" fill-rule="evenodd" class="shp1" d="M217.86 92.05L220.31 92.49C219.96 94.42 219.2 95.93 218.01 97.03C216.82 98.12 215.34 98.67 213.56 98.67C211.15 98.67 209.31 97.78 208.05 96C206.79 94.22 206.16 92.04 206.16 89.48C206.16 86.82 206.82 84.61 208.16 82.85C209.49 81.09 211.3 80.21 213.6 80.21C215.5 80.21 217.03 80.77 218.17 81.91C219.32 83.05 220.03 84.52 220.31 86.33L217.86 86.79C217.4 83.91 216 82.46 213.68 82.46C212.18 82.46 211.03 83.1 210.22 84.38C209.41 85.65 209.01 87.3 209.01 89.33C209.01 91.57 209.41 93.31 210.21 94.55C211.01 95.79 212.14 96.41 213.59 96.41C215.84 96.41 217.26 94.96 217.86 92.06L217.86 92.05Z" />
		<path id="Layer" fill-rule="evenodd" class="shp1" d="M217.86 92.05L220.31 92.49C219.96 94.42 219.2 95.93 218.01 97.03C216.82 98.12 215.34 98.67 213.56 98.67C211.15 98.67 209.31 97.78 208.05 96C206.79 94.22 206.16 92.04 206.16 89.48C206.16 86.82 206.82 84.61 208.16 82.85C209.49 81.09 211.3 80.21 213.6 80.21C215.5 80.21 217.03 80.77 218.17 81.91C219.32 83.05 220.03 84.52 220.31 86.33L217.86 86.79C217.4 83.91 216 82.46 213.68 82.46C212.18 82.46 211.03 83.1 210.22 84.38C209.41 85.65 209.01 87.3 209.01 89.33C209.01 91.57 209.41 93.31 210.21 94.55C211.01 95.79 212.14 96.41 213.59 96.41C215.84 96.41 217.26 94.96 217.86 92.06L217.86 92.05Z" />
		<path id="Layer" fill-rule="evenodd" class="shp1" d="M238.21 93.48C237.75 94.98 236.85 96.22 235.51 97.19C234.18 98.17 232.6 98.66 230.79 98.66C228.41 98.66 226.48 97.82 225 96.14C223.53 94.46 222.79 92.26 222.79 89.53C222.79 86.74 223.56 84.49 225.09 82.78C226.62 81.06 228.55 80.2 230.86 80.2C233.14 80.2 234.98 80.99 236.37 82.57C237.76 84.15 238.47 86.52 238.5 89.67L225.81 89.67C225.81 92.31 226.36 94.09 227.47 95.02C228.57 95.94 229.74 96.4 230.98 96.4C233.2 96.4 234.76 95.26 235.67 92.96L238.21 93.48ZM235.53 87.64L235.53 87.64C235.53 87.64 235.53 87.64 235.53 87.64L235.53 87.64ZM235.04 85.03C234.74 84.27 234.24 83.62 233.52 83.08C232.81 82.54 231.95 82.27 230.95 82.27C229.6 82.27 228.46 82.76 227.52 83.73C226.58 84.7 226.05 86 225.94 87.64L235.53 87.64C235.5 86.66 235.34 85.79 235.04 85.03Z" />
		<path id="Shape 1" class="shp1" d="M520 112" />
		<path id="Layer" fill-rule="evenodd" class="shp1" d="M238.21 93.48C237.75 94.98 236.85 96.22 235.51 97.19C234.18 98.17 232.6 98.66 230.79 98.66C228.41 98.66 226.48 97.82 225 96.14C223.53 94.46 222.79 92.26 222.79 89.53C222.79 86.74 223.56 84.49 225.09 82.78C226.62 81.06 228.55 80.2 230.86 80.2C233.14 80.2 234.98 80.99 236.37 82.57C237.76 84.15 238.47 86.52 238.5 89.67L225.81 89.67C225.81 92.31 226.36 94.09 227.47 95.02C228.57 95.94 229.74 96.4 230.98 96.4C233.2 96.4 234.76 95.26 235.67 92.96L238.21 93.48ZM235.53 87.64L235.53 87.64C235.53 87.64 235.53 87.64 235.53 87.64L235.53 87.64ZM235.04 85.03C234.74 84.27 234.24 83.62 233.52 83.08C232.81 82.54 231.95 82.27 230.95 82.27C229.6 82.27 228.46 82.76 227.52 83.73C226.58 84.7 226.05 86 225.94 87.64L235.53 87.64C235.5 86.66 235.34 85.79 235.04 85.03Z" />
		<path id="Layer" fill-rule="evenodd" class="shp1" d="M240.04 93.65L242.64 93.11C243.22 95.31 245.04 96.41 248.11 96.41C249.25 96.41 250.2 96.15 250.99 95.64C251.77 95.14 252.17 94.42 252.17 93.5C252.17 92.13 251.17 91.26 249.17 90.9L245.49 90.2C244.04 89.92 242.9 89.38 242.04 88.57C241.19 87.76 240.76 86.69 240.76 85.36C240.76 83.9 241.34 82.67 242.51 81.69C243.67 80.7 245.24 80.2 247.21 80.2C251.01 80.2 253.35 81.69 254.24 84.65L251.74 85.19C251.03 83.37 249.56 82.46 247.34 82.46C246.23 82.46 245.32 82.69 244.61 83.14C243.9 83.6 243.55 84.23 243.55 85.05C243.55 86.33 244.46 87.14 246.27 87.48L249.67 88.1C253.24 88.75 255.02 90.48 255.02 93.29C255.02 94.89 254.36 96.19 253.03 97.18C251.7 98.17 249.93 98.66 247.73 98.66C243.59 98.66 241.02 96.99 240.04 93.65L240.04 93.65Z" />
		<path id="Layer" fill-rule="evenodd" class="shp1" d="M240.04 93.65L242.64 93.11C243.22 95.31 245.04 96.41 248.11 96.41C249.25 96.41 250.2 96.15 250.99 95.64C251.77 95.14 252.17 94.42 252.17 93.5C252.17 92.13 251.17 91.26 249.17 90.9L245.49 90.2C244.04 89.92 242.9 89.38 242.04 88.57C241.19 87.76 240.76 86.69 240.76 85.36C240.76 83.9 241.34 82.67 242.51 81.69C243.67 80.7 245.24 80.2 247.21 80.2C251.01 80.2 253.35 81.69 254.24 84.65L251.74 85.19C251.03 83.37 249.56 82.46 247.34 82.46C246.23 82.46 245.32 82.69 244.61 83.14C243.9 83.6 243.55 84.23 243.55 85.05C243.55 86.33 244.46 87.14 246.27 87.48L249.67 88.1C253.24 88.75 255.02 90.48 255.02 93.29C255.02 94.89 254.36 96.19 253.03 97.18C251.7 98.17 249.93 98.66 247.73 98.66C243.59 98.66 241.02 96.99 240.04 93.65L240.04 93.65Z" />
		<path id="Layer" fill-rule="evenodd" class="shp1" d="M178.63 43.31L178.63 39.11C178.63 38.97 178.65 38.83 178.7 38.7C178.76 38.57 178.83 38.45 178.93 38.35C179.03 38.25 179.15 38.17 179.28 38.12C179.41 38.07 179.55 38.04 179.69 38.05L198.52 38.05C199.13 38.05 199.61 38.48 199.61 39.11L199.61 42.71C199.6 43.31 199.09 44.1 198.19 45.35L188.44 59.28C192.06 59.19 195.89 59.74 199.18 61.58C199.92 62 200.12 62.62 200.18 63.22L200.18 67.71C200.18 68.32 199.5 69.04 198.79 68.67C192.99 65.63 185.3 65.3 178.9 68.7C178.24 69.05 177.56 68.35 177.56 67.73L177.56 63.47C177.56 62.79 177.57 61.62 178.26 60.58L189.56 44.37L179.72 44.37C179.12 44.37 178.63 43.94 178.63 43.31M111.25 69.55L105.52 69.55C104.98 69.52 104.54 69.11 104.5 68.58L104.5 39.18C104.5 38.6 105 38.13 105.61 38.13L110.94 38.12C111.5 38.15 111.95 38.57 111.98 39.11L111.98 42.95L112.09 42.95C113.48 39.24 116.1 37.51 119.63 37.51C123.21 37.51 125.46 39.24 127.06 42.95C128.45 39.24 131.61 37.51 134.97 37.51C137.38 37.51 140 38.5 141.6 40.72C143.42 43.2 143.05 46.79 143.05 49.94L143.04 68.49C143.04 69.08 142.55 69.55 141.94 69.55L136.22 69.55C135.64 69.51 135.19 69.06 135.19 68.49L135.19 52.91C135.19 51.67 135.3 48.58 135.03 47.4C134.6 45.42 133.32 44.87 131.66 44.87C130.27 44.87 128.83 45.79 128.24 47.28C127.65 48.76 127.7 51.24 127.7 52.91L127.7 68.49C127.7 69.08 127.21 69.55 126.6 69.55L120.88 69.55C120.3 69.51 119.85 69.06 119.85 68.49L119.84 52.91C119.84 49.63 120.38 44.8 116.31 44.8C112.2 44.8 112.36 49.51 112.36 52.91L112.35 68.49C112.35 69.08 111.86 69.55 111.25 69.55M213.44 37.51C221.88 37.51 226.44 44.8 226.44 54.09C226.44 63.05 221.4 70.17 213.44 70.17C205.17 70.17 200.66 62.87 200.66 53.78C200.66 44.62 205.22 37.51 213.44 37.51L213.44 37.51ZM209.04 53.6C209.04 57.19 208.99 64.11 213.44 64.11C217.84 64.11 218.06 58.68 218.06 54.9C218.06 52.43 217.95 49.46 217.21 47.11C216.57 45.07 215.3 44.26 213.49 44.26C209.3 44.26 209.04 50.02 209.04 53.6ZM238.64 69.55L232.94 69.55C232.36 69.51 231.91 69.06 231.91 68.49L231.9 39.08C231.95 38.55 232.42 38.12 233 38.12L238.31 38.12C238.81 38.15 239.23 38.49 239.33 38.95L239.33 43.44L239.44 43.44C241.04 39.42 243.29 37.5 247.25 37.5C249.81 37.5 252.33 38.43 253.93 40.97C255.43 43.32 255.43 47.28 255.43 50.13L255.43 68.62C255.36 69.15 254.9 69.55 254.33 69.55L248.59 69.55C248.06 69.52 247.63 69.13 247.57 68.62L247.57 52.66C247.57 49.45 247.94 44.74 243.98 44.74C242.59 44.74 241.31 45.67 240.67 47.09C239.87 48.89 239.76 50.68 239.76 52.66L239.76 68.49C239.75 69.08 239.25 69.55 238.64 69.55M168.69 69.61C166.79 68.03 166.45 67.3 165.41 65.79C162.26 69 160.04 69.96 155.97 69.96C151.14 69.96 147.39 66.98 147.39 61.03C147.39 56.38 149.91 53.22 153.5 51.67C156.61 50.3 160.95 50.06 164.27 49.68L164.27 48.94C164.27 47.58 164.38 45.96 163.57 44.79C162.88 43.73 161.54 43.3 160.36 43.3C158.17 43.3 156.23 44.42 155.76 46.74C155.66 47.25 155.28 47.76 154.76 47.79L149.21 47.19C148.74 47.08 148.22 46.71 148.35 45.99C149.63 39.26 155.71 37.22 161.16 37.22C163.95 37.22 167.59 37.97 169.79 40.07C172.58 42.68 172.31 46.15 172.31 49.93L172.31 58.85C172.31 61.54 173.42 62.72 174.47 64.16C174.84 64.68 174.92 65.3 174.45 65.69C173.28 66.67 171.2 68.47 170.06 69.49L170.05 69.48C169.67 69.82 169.12 69.84 168.69 69.61ZM164.27 55.51L164.27 54.27C160.13 54.27 155.75 55.16 155.75 60.04C155.75 62.52 157.04 64.19 159.23 64.19C160.84 64.19 162.29 63.2 163.2 61.59C164.32 59.6 164.27 57.74 164.27 55.51L164.27 55.51ZM94.25 69.61C92.35 68.03 92.01 67.3 90.97 65.79C87.82 69 85.6 69.96 81.52 69.96C76.7 69.96 72.95 66.98 72.95 61.03C72.95 56.38 75.47 53.22 79.06 51.67C82.17 50.3 86.51 50.06 89.83 49.68L89.83 48.94C89.83 47.58 89.94 45.96 89.13 44.79C88.44 43.73 87.1 43.3 85.92 43.3C83.73 43.3 81.79 44.42 81.31 46.74C81.21 47.25 80.84 47.76 80.32 47.79L74.77 47.19C74.3 47.08 73.78 46.71 73.91 45.99C75.19 39.26 81.27 37.22 86.72 37.22C89.51 37.22 93.15 37.97 95.35 40.07C98.14 42.68 97.87 46.15 97.87 49.93L97.87 58.85C97.87 61.54 98.98 62.72 100.03 64.16C100.4 64.68 100.48 65.3 100.01 65.69C98.84 66.67 96.76 68.47 95.62 69.49L95.61 69.48C95.23 69.82 94.68 69.84 94.25 69.61ZM89.83 55.51L89.83 54.27C85.69 54.27 81.31 55.16 81.31 60.04C81.31 62.52 82.6 64.19 84.79 64.19C86.4 64.19 87.85 63.2 88.76 61.59C89.88 59.6 89.83 57.74 89.83 55.51Z" />
		<path id="Shape 2" class="shp1" d="M-112 -102" />
	</g>
</svg>