<svg xmlns="http://www.w3.org/2000/svg" viewBox="0 0 376 159" width="376" height="159">
	<style>
		tspan { white-space:pre }
		.shp0 { fill: #ffffff } 
		.shp1 { fill: #d2d2d2 } 
		.shp2 { fill: #3ab14a } 
	</style>
	<g id="Layer_2">
		<g id="Layer_1-2">
			<path id="Layer" class="shp0" d="M128.79 32.3L78.85 2.65C77.4 1.79 75.84 1.12 74.21 0.67C72.58 0.22 70.9 -0.01 69.22 -0.01C67.53 -0.01 65.85 0.22 64.22 0.67C62.59 1.12 61.03 1.79 59.58 2.65L9.63 32.3C8.16 33.19 6.81 34.26 5.61 35.49C4.42 36.73 3.39 38.11 2.55 39.61C1.71 41.11 1.06 42.71 0.63 44.37C0.2 46.03 -0.01 47.74 0 49.46L0 108.75C-0.01 110.47 0.21 112.18 0.64 113.84C1.07 115.5 1.71 117.1 2.55 118.6C3.39 120.09 4.42 121.48 5.62 122.71C6.81 123.94 8.16 125.01 9.63 125.9L59.57 155.54C61.02 156.4 62.58 157.07 64.21 157.52C65.84 157.97 67.52 158.19 69.2 158.19C70.89 158.19 72.57 157.97 74.2 157.52C75.83 157.07 77.39 156.4 78.84 155.54L128.78 125.9C130.25 125.01 131.6 123.94 132.8 122.71C133.99 121.47 135.03 120.09 135.87 118.59C136.71 117.1 137.35 115.5 137.78 113.83C138.21 112.17 138.43 110.46 138.42 108.74L138.42 49.46C138.43 47.74 138.22 46.03 137.79 44.37C137.36 42.71 136.71 41.11 135.87 39.61C135.03 38.11 134 36.73 132.81 35.49C131.61 34.26 130.26 33.19 128.79 32.3L128.79 32.3Z" />
			<path id="Layer" fill-rule="evenodd" class="shp1" d="M128.79 32.3C130.26 33.19 131.61 34.26 132.81 35.49C134 36.73 135.03 38.11 135.87 39.61C136.71 41.11 137.36 42.71 137.79 44.37C138.22 46.03 138.43 47.74 138.42 49.46L138.42 108.74C138.43 110.46 138.21 112.17 137.78 113.83C137.35 115.5 136.71 117.1 135.87 118.59C135.03 120.09 133.99 121.47 132.8 122.71C131.6 123.94 130.25 125.01 128.78 125.9L78.84 155.54C77.39 156.4 75.83 157.07 74.2 157.52C72.57 157.97 70.89 158.19 69.2 158.19C67.52 158.19 65.84 157.97 64.21 157.52C62.58 157.07 61.02 156.4 59.57 155.54L9.63 125.9C8.16 125.01 6.81 123.94 5.62 122.71C4.42 121.48 3.39 120.09 2.55 118.6C1.71 117.1 1.07 115.5 0.64 113.84C0.21 112.18 -0.01 110.47 0 108.75L0 49.46C-0.01 47.74 0.2 46.03 0.63 44.37C1.06 42.71 1.71 41.11 2.55 39.61C3.39 38.11 4.42 36.73 5.61 35.49C6.81 34.26 8.16 33.19 9.63 32.3L59.58 2.65C61.03 1.79 62.59 1.12 64.22 0.67C65.85 0.22 67.53 -0.01 69.22 -0.01C70.9 -0.01 72.58 0.22 74.21 0.67C75.84 1.12 77.4 1.79 78.85 2.65L128.79 32.3ZM61.32 152.51C61.91 152.86 62.53 153.18 63.17 153.45C63.8 153.72 64.45 153.94 65.12 154.13C65.78 154.31 66.46 154.45 67.15 154.54C67.83 154.63 68.52 154.68 69.21 154.68C69.43 154.68 69.65 154.67 69.87 154.66C70.09 154.65 70.31 154.63 70.53 154.61C70.74 154.59 70.96 154.57 71.18 154.53C71.4 154.5 71.61 154.47 71.83 154.43C69.19 153.62 67.48 150.87 67.48 146.62L67.48 88.4C67.49 81.3 71.83 77.43 77.72 74L124.93 44.76C129.28 42.26 133.01 43.23 134.67 46.76C134.49 45.59 134.17 44.44 133.74 43.34C133.31 42.24 132.76 41.19 132.1 40.2C131.44 39.22 130.67 38.31 129.81 37.49C128.96 36.68 128.01 35.95 127 35.34L77.1 5.69C75.91 4.98 74.64 4.44 73.3 4.07C71.97 3.7 70.59 3.52 69.21 3.52C67.83 3.52 66.45 3.7 65.12 4.07C63.78 4.44 62.51 4.98 61.32 5.69L11.38 35.34C10.17 36.07 9.06 36.96 8.08 37.97C7.1 38.99 6.25 40.12 5.56 41.36C4.87 42.59 4.34 43.9 3.99 45.27C3.63 46.64 3.45 48.05 3.46 49.46L3.46 108.75C3.45 110.16 3.63 111.57 3.99 112.94C4.34 114.3 4.87 115.62 5.56 116.85C6.25 118.08 7.1 119.22 8.08 120.24C9.06 121.25 10.17 122.14 11.38 122.87L61.32 152.51Z" />
			<path id="Shape 2" class="shp1" d="M427 171" />
			<path id="Layer" class="shp2" d="M115.7 114.48L103.26 121.92C103.18 121.95 103.1 122 103.03 122.05C102.97 122.11 102.91 122.17 102.86 122.24C102.8 122.31 102.77 122.39 102.74 122.47C102.71 122.56 102.69 122.64 102.69 122.73L102.69 126C102.69 126.4 102.96 126.56 103.29 126.37L115.92 118.69C116 118.63 116.06 118.57 116.12 118.49C116.18 118.42 116.22 118.33 116.25 118.25C116.29 118.16 116.31 118.06 116.32 117.97C116.32 117.88 116.32 117.78 116.3 117.69L116.3 114.82C116.29 114.45 116 114.29 115.7 114.48L115.7 114.48Z" />
			<path id="Layer" class="shp0" d="M89.22 87.09C89.62 86.89 89.95 87.09 89.96 87.66L90 92C90.37 91.83 90.75 91.69 91.15 91.58C91.54 91.47 91.94 91.39 92.35 91.34C92.75 91.29 93.16 91.27 93.57 91.29C93.97 91.3 94.38 91.35 94.78 91.42C95.09 91.5 95.22 91.92 95.1 92.42L94.15 96.23C94.13 96.3 94.11 96.37 94.08 96.44C94.05 96.51 94.02 96.58 93.99 96.64C93.95 96.7 93.91 96.76 93.87 96.82C93.82 96.88 93.77 96.94 93.72 96.99C93.7 97.01 93.68 97.03 93.66 97.04C93.64 97.06 93.62 97.07 93.6 97.09C93.58 97.1 93.56 97.12 93.54 97.13C93.52 97.15 93.49 97.16 93.47 97.17C93.44 97.19 93.41 97.2 93.38 97.21C93.35 97.22 93.32 97.23 93.29 97.23C93.26 97.24 93.23 97.24 93.19 97.24C93.16 97.24 93.13 97.24 93.1 97.23C92.71 97.14 92.31 97.09 91.92 97.08C91.52 97.07 91.12 97.1 90.72 97.16C90.33 97.22 89.94 97.32 89.57 97.46C89.19 97.6 88.83 97.77 88.49 97.97C88 98.19 87.54 98.48 87.12 98.83C86.71 99.19 86.35 99.59 86.05 100.04C85.75 100.5 85.51 100.99 85.35 101.5C85.18 102.02 85.09 102.56 85.08 103.1C85.08 105.1 86.08 105.65 89.57 105.71C94.18 105.79 96.18 107.8 96.23 112.45C96.2 113.65 96.05 114.83 95.76 116C95.48 117.16 95.07 118.29 94.54 119.36C94.02 120.43 93.37 121.45 92.63 122.38C91.88 123.32 91.04 124.17 90.11 124.92L90.19 129.18C90.19 129.31 90.17 129.44 90.14 129.56C90.1 129.69 90.05 129.81 89.99 129.92C89.93 130.04 89.85 130.14 89.76 130.23C89.67 130.33 89.57 130.41 89.46 130.48L86.94 131.93C86.54 132.13 86.21 131.93 86.2 131.37L86.2 127.18C84.04 128.08 81.85 128.29 80.45 127.73C80.19 127.63 80.07 127.24 80.18 126.79L81.09 122.94C81.11 122.86 81.13 122.79 81.16 122.72C81.19 122.65 81.22 122.57 81.26 122.51C81.29 122.44 81.34 122.37 81.39 122.31C81.43 122.25 81.48 122.19 81.54 122.14C81.56 122.12 81.58 122.11 81.6 122.09C81.61 122.08 81.63 122.06 81.65 122.05C81.67 122.03 81.69 122.02 81.72 122.01C81.74 121.99 81.76 121.98 81.78 121.97C81.81 121.96 81.85 121.94 81.88 121.94C81.91 121.93 81.95 121.93 81.98 121.93C82.02 121.93 82.06 121.93 82.09 121.94C82.12 121.94 82.16 121.96 82.19 121.97C82.63 122.09 83.08 122.17 83.54 122.2C83.99 122.23 84.45 122.22 84.9 122.16C85.35 122.1 85.8 122 86.23 121.86C86.67 121.71 87.08 121.53 87.48 121.3C88.05 121.03 88.57 120.68 89.04 120.26C89.52 119.85 89.93 119.37 90.27 118.85C90.61 118.32 90.88 117.75 91.07 117.15C91.26 116.55 91.37 115.93 91.39 115.3C91.39 113.14 90.2 112.24 87.39 112.22C83.76 112.22 80.39 111.52 80.32 106.22C80.34 105.08 80.49 103.95 80.76 102.84C81.03 101.73 81.42 100.66 81.92 99.63C82.43 98.61 83.04 97.65 83.76 96.76C84.48 95.87 85.29 95.07 86.18 94.36L86 90C86 89.87 86.02 89.74 86.05 89.61C86.08 89.48 86.13 89.36 86.19 89.25C86.26 89.13 86.34 89.02 86.43 88.93C86.52 88.83 86.62 88.75 86.73 88.68L89.22 87.09Z" />
			<path id="Layer" fill-rule="evenodd" class="shp1" d="M203 81.4C203.32 81.78 203.62 82.17 203.9 82.58C204.18 82.98 204.45 83.4 204.69 83.82C204.94 84.25 205.17 84.69 205.38 85.13C205.59 85.58 205.78 86.04 205.95 86.5C206.12 86.99 206.27 87.48 206.4 87.99C206.53 88.49 206.63 88.99 206.72 89.51C206.8 90.02 206.86 90.53 206.9 91.05C206.94 91.56 206.96 92.08 206.95 92.6C206.97 93.38 206.94 94.16 206.87 94.93C206.79 95.71 206.66 96.47 206.49 97.23C206.31 97.99 206.09 98.74 205.82 99.47C205.55 100.2 205.23 100.91 204.87 101.6C204.53 102.24 204.15 102.86 203.74 103.45C203.33 104.05 202.89 104.62 202.41 105.17C201.94 105.72 201.44 106.24 200.91 106.73C200.38 107.23 199.82 107.69 199.24 108.12C198.64 108.56 198.03 108.97 197.39 109.36C196.76 109.74 196.11 110.1 195.45 110.43C194.79 110.76 194.11 111.06 193.42 111.33C192.73 111.6 192.03 111.84 191.32 112.05C190.58 112.27 189.84 112.47 189.09 112.64C188.34 112.81 187.59 112.95 186.83 113.07C186.07 113.19 185.31 113.27 184.54 113.34C183.78 113.4 183.01 113.43 182.24 113.44L160.7 113.44C160.38 113.45 160.05 113.39 159.75 113.28C159.45 113.16 159.17 112.99 158.94 112.76C158.7 112.54 158.52 112.27 158.38 111.98C158.25 111.68 158.18 111.36 158.17 111.04L158.17 47.12C158.18 46.8 158.25 46.48 158.38 46.18C158.52 45.89 158.7 45.62 158.94 45.4C159.17 45.17 159.45 45 159.75 44.88C160.05 44.77 160.38 44.71 160.7 44.72L180.7 44.72C181.44 44.73 182.18 44.76 182.91 44.81C183.65 44.86 184.38 44.93 185.12 45.02C185.85 45.11 186.58 45.23 187.31 45.36C188.03 45.5 188.75 45.65 189.47 45.83C190.17 46 190.86 46.2 191.54 46.42C192.22 46.65 192.89 46.91 193.55 47.2C194.21 47.48 194.86 47.8 195.49 48.14C196.12 48.48 196.74 48.85 197.34 49.24C197.92 49.63 198.49 50.05 199.02 50.5C199.56 50.95 200.07 51.44 200.55 51.95C201.03 52.46 201.48 53 201.9 53.56C202.31 54.12 202.7 54.71 203.05 55.32C203.42 55.99 203.74 56.69 204.02 57.41C204.3 58.13 204.53 58.86 204.7 59.61C204.88 60.36 205.01 61.11 205.09 61.88C205.16 62.64 205.19 63.41 205.16 64.18C205.16 65.07 205.08 65.95 204.92 66.83C204.76 67.7 204.52 68.56 204.21 69.39C203.9 70.22 203.52 71.02 203.07 71.79C202.62 72.55 202.1 73.28 201.52 73.95C201.26 74.26 200.98 74.55 200.7 74.84C200.42 75.13 200.12 75.41 199.82 75.67C199.52 75.94 199.21 76.2 198.88 76.44C198.56 76.69 198.24 76.93 197.9 77.15L198.54 77.53C198.96 77.79 199.37 78.07 199.77 78.36C200.17 78.65 200.55 78.96 200.93 79.28C201.3 79.61 201.66 79.95 202.01 80.3C202.35 80.65 202.68 81.02 203 81.4ZM191.1 66.58C191.2 66.32 191.29 66.05 191.35 65.78C191.41 65.5 191.46 65.23 191.49 64.95C191.51 64.67 191.52 64.39 191.51 64.11C191.52 63.82 191.51 63.52 191.48 63.23C191.46 62.93 191.41 62.64 191.34 62.35C191.28 62.07 191.19 61.78 191.09 61.51C190.99 61.23 190.87 60.96 190.73 60.7C190.6 60.47 190.46 60.25 190.3 60.04C190.15 59.83 189.98 59.63 189.8 59.44C189.62 59.25 189.43 59.07 189.23 58.9C189.03 58.73 188.82 58.57 188.6 58.43C188.34 58.26 188.08 58.11 187.8 57.97C187.53 57.82 187.26 57.69 186.97 57.57C186.69 57.45 186.4 57.35 186.11 57.25C185.82 57.16 185.52 57.08 185.22 57.01C184.87 56.93 184.51 56.85 184.16 56.79C183.8 56.72 183.44 56.67 183.08 56.62C182.73 56.58 182.37 56.54 182 56.52C181.64 56.49 181.28 56.48 180.92 56.47L171.81 56.47L171.81 72L181.19 72C181.53 71.99 181.87 71.98 182.2 71.95C182.54 71.92 182.88 71.88 183.21 71.83C183.55 71.77 183.88 71.71 184.21 71.64C184.54 71.56 184.87 71.48 185.19 71.38C185.49 71.29 185.78 71.2 186.07 71.09C186.36 70.98 186.64 70.85 186.92 70.72C187.2 70.59 187.47 70.44 187.74 70.28C188.01 70.13 188.27 69.96 188.52 69.78C188.75 69.62 188.96 69.45 189.17 69.26C189.38 69.08 189.58 68.88 189.76 68.68C189.95 68.47 190.13 68.26 190.29 68.04C190.46 67.81 190.61 67.58 190.75 67.34C190.88 67.09 191 66.84 191.1 66.58ZM171.84 101.76L182.46 101.76C182.82 101.75 183.18 101.74 183.54 101.7C183.89 101.67 184.25 101.62 184.6 101.56C184.96 101.5 185.31 101.43 185.66 101.34C186 101.25 186.35 101.15 186.69 101.04C187 100.94 187.31 100.82 187.62 100.69C187.92 100.56 188.22 100.42 188.51 100.26C188.81 100.11 189.09 99.94 189.37 99.76C189.65 99.58 189.92 99.39 190.18 99.19C190.42 99.01 190.64 98.81 190.86 98.6C191.07 98.39 191.28 98.17 191.47 97.94C191.66 97.7 191.84 97.46 192 97.21C192.16 96.96 192.31 96.7 192.45 96.43C192.59 96.14 192.72 95.84 192.82 95.54C192.93 95.24 193.02 94.93 193.09 94.61C193.16 94.3 193.21 93.98 193.24 93.66C193.27 93.34 193.29 93.02 193.28 92.7C193.29 92.37 193.29 92.04 193.26 91.71C193.24 91.38 193.2 91.06 193.14 90.73C193.08 90.41 193 90.09 192.9 89.77C192.8 89.46 192.68 89.15 192.55 88.85C192.43 88.59 192.29 88.33 192.14 88.08C191.99 87.83 191.82 87.59 191.65 87.36C191.47 87.13 191.28 86.91 191.08 86.7C190.88 86.49 190.66 86.29 190.44 86.1C190.2 85.9 189.95 85.71 189.69 85.54C189.43 85.36 189.16 85.2 188.88 85.05C188.61 84.89 188.33 84.76 188.04 84.63C187.75 84.51 187.46 84.4 187.16 84.3C186.81 84.19 186.46 84.09 186.1 84C185.75 83.91 185.39 83.83 185.03 83.77C184.67 83.71 184.3 83.66 183.94 83.63C183.57 83.59 183.21 83.57 182.84 83.56L171.84 83.56L171.84 101.76ZM265.8 110.31C265.86 110.49 265.9 110.68 265.91 110.87C265.93 111.05 265.92 111.24 265.88 111.43C265.85 111.62 265.8 111.8 265.72 111.97C265.64 112.15 265.55 112.31 265.43 112.46C265.31 112.61 265.18 112.75 265.03 112.87C264.88 113 264.72 113.1 264.54 113.19C264.37 113.28 264.19 113.34 264 113.39C263.82 113.43 263.62 113.46 263.43 113.46L254.94 113.46C254.68 113.46 254.41 113.43 254.16 113.35C253.91 113.27 253.67 113.16 253.45 113C253.24 112.85 253.05 112.67 252.89 112.46C252.73 112.24 252.61 112.01 252.52 111.76L247.76 96.91L229.06 96.91L224.21 111.77C224.12 112.02 224 112.25 223.84 112.46C223.68 112.67 223.49 112.85 223.28 113C223.06 113.15 222.83 113.27 222.57 113.35C222.32 113.43 222.06 113.46 221.8 113.46L213.26 113.46C213.07 113.46 212.87 113.43 212.69 113.39C212.5 113.34 212.32 113.28 212.15 113.19C211.97 113.1 211.81 113 211.66 112.87C211.51 112.75 211.38 112.61 211.26 112.46C211.14 112.31 211.05 112.15 210.97 111.97C210.89 111.8 210.84 111.62 210.81 111.43C210.78 111.24 210.77 111.05 210.79 110.86C210.8 110.68 210.84 110.49 210.9 110.31L232.6 46.39C232.69 46.15 232.81 45.92 232.97 45.71C233.13 45.51 233.32 45.33 233.54 45.18C233.75 45.03 233.98 44.92 234.23 44.84C234.48 44.76 234.74 44.73 235 44.73L242.12 44.73C242.38 44.73 242.64 44.76 242.89 44.84C243.14 44.91 243.38 45.03 243.59 45.18C243.81 45.33 244 45.51 244.16 45.71C244.32 45.92 244.44 46.15 244.53 46.4L265.8 110.31ZM238.56 67.86L233 85L244 85L238.56 67.86ZM317.19 83.87C317.48 84.24 317.76 84.62 318.03 85.01C318.29 85.4 318.54 85.8 318.78 86.22C319.01 86.63 319.23 87.05 319.43 87.47C319.63 87.9 319.81 88.34 319.98 88.78C320.15 89.26 320.3 89.75 320.43 90.24C320.55 90.73 320.66 91.23 320.74 91.74C320.83 92.24 320.89 92.74 320.93 93.25C320.97 93.76 320.98 94.27 320.98 94.78C321 95.54 320.96 96.31 320.86 97.07C320.77 97.83 320.62 98.58 320.42 99.32C320.22 100.06 319.97 100.78 319.67 101.48C319.37 102.19 319.02 102.87 318.62 103.52C318.24 104.12 317.83 104.71 317.39 105.26C316.95 105.82 316.48 106.36 315.99 106.87C315.49 107.38 314.97 107.86 314.42 108.32C313.87 108.77 313.3 109.2 312.71 109.59C312.1 109.99 311.47 110.37 310.83 110.72C310.18 111.07 309.53 111.4 308.86 111.7C308.19 111.99 307.5 112.26 306.81 112.5C306.12 112.74 305.42 112.96 304.71 113.14C304 113.33 303.28 113.5 302.56 113.64C301.84 113.79 301.12 113.91 300.39 114.01C299.66 114.1 298.93 114.18 298.19 114.22C297.46 114.27 296.73 114.3 295.99 114.3C295.18 114.3 294.37 114.27 293.57 114.21C292.76 114.15 291.96 114.06 291.16 113.94C290.36 113.82 289.57 113.67 288.78 113.49C287.99 113.31 287.21 113.11 286.44 112.87C285.68 112.64 284.94 112.38 284.2 112.09C283.47 111.8 282.75 111.48 282.04 111.13C281.33 110.78 280.64 110.4 279.96 110C279.29 109.59 278.63 109.15 277.99 108.69C277.37 108.24 276.77 107.75 276.19 107.24C275.62 106.73 275.07 106.18 274.55 105.62C274.04 105.05 273.55 104.45 273.09 103.83C272.63 103.21 272.2 102.57 271.81 101.91C271.4 101.21 271.04 100.49 270.72 99.74C270.41 98.99 270.14 98.23 269.92 97.45C269.7 96.67 269.53 95.87 269.42 95.07C269.3 94.27 269.23 93.46 269.22 92.65C269.22 92.49 269.23 92.33 269.26 92.17C269.29 92.01 269.33 91.85 269.39 91.71C269.45 91.56 269.53 91.41 269.62 91.28C269.71 91.15 269.81 91.02 269.93 90.91C270.05 90.79 270.18 90.69 270.32 90.6C270.46 90.51 270.61 90.43 270.76 90.37C270.92 90.31 271.08 90.26 271.24 90.23C271.41 90.2 271.57 90.18 271.74 90.18L280.47 90.18C280.77 90.17 281.06 90.22 281.34 90.32C281.63 90.42 281.89 90.57 282.12 90.76C282.34 90.95 282.54 91.18 282.68 91.43C282.83 91.69 282.93 91.98 282.98 92.27C283.03 92.66 283.09 93.05 283.18 93.43C283.26 93.82 283.37 94.2 283.49 94.57C283.61 94.95 283.74 95.32 283.9 95.68C284.05 96.04 284.22 96.39 284.41 96.74C284.58 97.05 284.77 97.35 284.97 97.63C285.17 97.92 285.38 98.2 285.61 98.47C285.83 98.74 286.08 98.99 286.33 99.24C286.58 99.48 286.84 99.71 287.12 99.93C287.41 100.15 287.7 100.37 288.01 100.56C288.31 100.76 288.63 100.94 288.95 101.11C289.27 101.28 289.6 101.43 289.94 101.57C290.28 101.7 290.62 101.83 290.97 101.93C291.72 102.15 292.49 102.31 293.27 102.43C294.05 102.55 294.83 102.61 295.61 102.63C296.4 102.64 297.18 102.61 297.96 102.52C298.74 102.43 299.52 102.3 300.28 102.11C300.59 102.04 300.9 101.95 301.2 101.85C301.51 101.75 301.81 101.64 302.1 101.52C302.39 101.39 302.68 101.25 302.96 101.1C303.25 100.96 303.52 100.79 303.79 100.62C304.03 100.46 304.26 100.3 304.48 100.11C304.7 99.93 304.91 99.74 305.11 99.54C305.31 99.34 305.49 99.12 305.67 98.9C305.85 98.67 306.01 98.44 306.16 98.2C306.31 97.95 306.44 97.69 306.55 97.43C306.66 97.16 306.75 96.89 306.82 96.61C306.89 96.33 306.94 96.04 306.97 95.75C307 95.47 307.01 95.18 307 94.89C307.01 94.57 307 94.25 306.97 93.93C306.93 93.62 306.87 93.3 306.78 93C306.7 92.69 306.59 92.39 306.46 92.1C306.33 91.81 306.17 91.53 306 91.26C305.81 90.98 305.6 90.71 305.37 90.46C305.15 90.2 304.92 89.96 304.67 89.73C304.42 89.49 304.16 89.28 303.89 89.07C303.62 88.87 303.34 88.68 303.05 88.5C302.71 88.29 302.36 88.09 302.01 87.9C301.65 87.7 301.3 87.52 300.93 87.35C300.57 87.18 300.2 87.02 299.83 86.86C299.46 86.71 299.08 86.57 298.7 86.44C296.97 85.83 295.3 85.29 293.7 84.8C291.23 84.08 288.75 83.14 286.23 82.08C285.59 81.81 284.96 81.53 284.33 81.23C283.71 80.92 283.1 80.6 282.49 80.26C281.89 79.92 281.29 79.56 280.71 79.18C280.13 78.81 279.56 78.41 279 78C278.45 77.59 277.91 77.16 277.4 76.71C276.89 76.25 276.4 75.77 275.93 75.27C275.47 74.77 275.02 74.24 274.6 73.7C274.19 73.15 273.79 72.59 273.43 72.01C273.05 71.38 272.71 70.73 272.42 70.05C272.13 69.37 271.89 68.68 271.69 67.97C271.5 67.26 271.36 66.53 271.27 65.8C271.18 65.07 271.15 64.34 271.16 63.6C271.15 62.85 271.19 62.11 271.28 61.37C271.37 60.63 271.51 59.89 271.7 59.17C271.89 58.45 272.13 57.74 272.41 57.05C272.7 56.36 273.03 55.7 273.4 55.05C273.76 54.44 274.15 53.85 274.57 53.28C274.99 52.71 275.44 52.17 275.92 51.65C276.39 51.12 276.9 50.63 277.43 50.16C277.95 49.69 278.51 49.24 279.08 48.83C279.67 48.41 280.28 48.01 280.9 47.64C281.53 47.27 282.17 46.93 282.82 46.61C283.47 46.29 284.14 46 284.82 45.74C285.49 45.48 286.18 45.25 286.88 45.05C288.34 44.61 289.82 44.28 291.33 44.07C292.83 43.86 294.35 43.76 295.87 43.79C297.39 43.81 298.91 43.94 300.41 44.2C301.91 44.45 303.39 44.82 304.83 45.3C305.55 45.54 306.26 45.81 306.96 46.11C307.66 46.41 308.35 46.75 309.02 47.11C309.69 47.47 310.34 47.86 310.98 48.28C311.61 48.69 312.23 49.14 312.83 49.61C313.41 50.07 313.97 50.57 314.5 51.09C315.03 51.61 315.53 52.15 316.01 52.72C316.49 53.3 316.93 53.89 317.34 54.51C317.76 55.13 318.14 55.76 318.49 56.42C318.85 57.11 319.17 57.82 319.45 58.55C319.73 59.28 319.96 60.03 320.15 60.79C320.34 61.54 320.49 62.31 320.59 63.09C320.69 63.86 320.74 64.64 320.75 65.42C320.75 65.58 320.74 65.74 320.71 65.9C320.68 66.06 320.63 66.21 320.57 66.36C320.51 66.51 320.43 66.65 320.34 66.78C320.25 66.92 320.15 67.04 320.03 67.15C319.91 67.26 319.78 67.37 319.64 67.46C319.5 67.55 319.35 67.62 319.2 67.68C319.05 67.75 318.89 67.79 318.72 67.82C318.56 67.86 318.4 67.87 318.23 67.87L309.46 67.87C309.16 67.88 308.86 67.83 308.58 67.73C308.3 67.63 308.04 67.48 307.81 67.29C307.58 67.1 307.39 66.87 307.24 66.61C307.1 66.35 307 66.06 306.95 65.77C306.9 65.39 306.84 65.02 306.77 64.65C306.69 64.28 306.6 63.91 306.5 63.55C306.4 63.18 306.28 62.82 306.15 62.47C306.02 62.11 305.88 61.76 305.72 61.42C305.58 61.13 305.43 60.84 305.27 60.56C305.1 60.28 304.93 60 304.74 59.74C304.55 59.48 304.34 59.22 304.13 58.98C303.91 58.74 303.69 58.5 303.45 58.28C303.21 58.06 302.96 57.85 302.69 57.66C302.43 57.47 302.16 57.28 301.88 57.12C301.6 56.95 301.32 56.79 301.02 56.66C300.73 56.52 300.43 56.39 300.12 56.28C299.43 56.05 298.72 55.87 298 55.75C297.28 55.63 296.56 55.56 295.83 55.54C295.1 55.53 294.37 55.57 293.65 55.66C292.93 55.75 292.21 55.9 291.51 56.1C291.21 56.18 290.91 56.28 290.62 56.38C290.33 56.49 290.05 56.61 289.77 56.74C289.48 56.87 289.21 57.02 288.94 57.18C288.67 57.33 288.41 57.5 288.16 57.68C287.93 57.84 287.72 58.02 287.51 58.2C287.3 58.39 287.1 58.58 286.92 58.79C286.73 59 286.56 59.22 286.4 59.44C286.23 59.67 286.09 59.91 285.95 60.15C285.81 60.41 285.69 60.67 285.59 60.94C285.49 61.21 285.4 61.49 285.34 61.77C285.27 62.06 285.22 62.34 285.19 62.63C285.16 62.92 285.15 63.21 285.16 63.5C285.15 63.79 285.17 64.08 285.21 64.37C285.25 64.66 285.31 64.94 285.4 65.22C285.48 65.5 285.59 65.77 285.72 66.03C285.84 66.29 285.99 66.54 286.16 66.78C286.36 67.04 286.57 67.29 286.79 67.53C287.01 67.77 287.25 68 287.49 68.22C287.74 68.43 287.99 68.64 288.26 68.83C288.52 69.02 288.8 69.2 289.08 69.37C289.42 69.57 289.76 69.77 290.1 69.95C290.45 70.14 290.8 70.32 291.16 70.48C291.51 70.65 291.87 70.81 292.24 70.96C292.6 71.1 292.97 71.24 293.34 71.37C294.99 71.93 296.57 72.44 298.05 72.87C299.79 73.39 301.54 73.98 303.26 74.62C303.7 74.79 304.15 74.96 304.58 75.14C305.02 75.32 305.46 75.5 305.89 75.69C306.32 75.89 306.75 76.09 307.18 76.29C307.61 76.5 308.03 76.71 308.45 76.93C308.86 77.15 309.28 77.37 309.68 77.61C310.09 77.84 310.49 78.08 310.88 78.33C311.28 78.58 311.67 78.84 312.05 79.11C312.44 79.37 312.82 79.65 313.19 79.93C313.56 80.21 313.93 80.51 314.28 80.82C314.64 81.12 314.98 81.44 315.32 81.77C315.65 82.1 315.98 82.44 316.29 82.79C316.6 83.14 316.9 83.5 317.19 83.87ZM373.2 44.73C373.52 44.72 373.85 44.78 374.15 44.89C374.45 45.01 374.73 45.18 374.96 45.41C375.2 45.63 375.38 45.9 375.52 46.19C375.65 46.49 375.72 46.81 375.73 47.13L375.73 111.05C375.72 111.37 375.65 111.69 375.52 111.99C375.38 112.28 375.2 112.55 374.96 112.77C374.73 113 374.45 113.17 374.15 113.29C373.85 113.4 373.52 113.46 373.2 113.45L365.12 113.45C364.8 113.46 364.47 113.4 364.17 113.29C363.87 113.17 363.59 113 363.36 112.77C363.12 112.55 362.94 112.28 362.8 111.99C362.67 111.69 362.6 111.37 362.59 111.05L362.59 83.91L340.08 83.91L340.08 111.05C340.07 111.37 340 111.69 339.87 111.99C339.73 112.28 339.55 112.55 339.31 112.77C339.08 113 338.8 113.17 338.5 113.29C338.2 113.4 337.87 113.46 337.55 113.45L329.55 113.45C329.23 113.46 328.9 113.4 328.6 113.29C328.3 113.17 328.02 113 327.79 112.77C327.55 112.55 327.37 112.28 327.23 111.99C327.1 111.69 327.03 111.37 327.02 111.05L327.02 47.13C327.03 46.81 327.1 46.49 327.23 46.19C327.37 45.9 327.55 45.63 327.79 45.41C328.02 45.18 328.3 45.01 328.6 44.89C328.9 44.78 329.23 44.72 329.55 44.73L337.55 44.73C337.87 44.72 338.2 44.78 338.5 44.89C338.8 45.01 339.08 45.18 339.31 45.41C339.55 45.63 339.73 45.9 339.87 46.19C340 46.49 340.07 46.81 340.08 47.13L340.08 72.21L362.59 72.21L362.59 47.13C362.6 46.81 362.67 46.49 362.8 46.19C362.94 45.9 363.12 45.63 363.36 45.41C363.59 45.18 363.87 45.01 364.17 44.89C364.47 44.78 364.8 44.72 365.12 44.73L373.2 44.73ZM165.93 124.53L162.87 124.53L162.87 132.71L161.24 132.71L161.24 124.53L158.24 124.53L158.24 123.24L165.97 123.24L165.93 124.53ZM175.34 132.71L173.74 132.71L173.74 128.48L170.35 128.48L170.35 132.71L168.76 132.71L168.76 123.24L170.35 123.24L170.35 127.24L173.74 127.24L173.74 123.24L175.34 123.24L175.34 132.71ZM184.74 128.47L180.64 128.47L180.64 131.47L185.43 131.47L185.43 132.74L179 132.74L179 123.27L185.39 123.27L185.39 124.56L180.64 124.56L180.64 127.23L184.74 127.23L184.74 128.47ZM198.93 132.71L198.93 123.24L202.11 123.24C202.22 123.24 202.34 123.24 202.45 123.25C202.56 123.26 202.67 123.27 202.78 123.28C202.9 123.3 203.01 123.31 203.12 123.33C203.23 123.35 203.34 123.37 203.45 123.4C203.55 123.42 203.64 123.45 203.74 123.48C203.83 123.51 203.92 123.54 204.02 123.58C204.11 123.62 204.2 123.66 204.28 123.71C204.37 123.76 204.46 123.81 204.54 123.86C204.62 123.91 204.69 123.97 204.76 124.02C204.83 124.08 204.9 124.15 204.96 124.21C205.02 124.28 205.08 124.35 205.13 124.43C205.19 124.5 205.24 124.58 205.28 124.66C205.33 124.75 205.37 124.84 205.4 124.93C205.44 125.03 205.46 125.12 205.49 125.22C205.51 125.31 205.52 125.41 205.53 125.51C205.54 125.61 205.54 125.71 205.54 125.81C205.54 125.92 205.53 126.03 205.52 126.13C205.5 126.24 205.47 126.34 205.44 126.45C205.4 126.55 205.36 126.65 205.31 126.74C205.26 126.84 205.2 126.93 205.13 127.01C205.06 127.1 204.98 127.18 204.9 127.25C204.81 127.33 204.73 127.4 204.64 127.47C204.54 127.53 204.45 127.59 204.35 127.64C204.25 127.69 204.15 127.74 204.04 127.78C204.11 127.8 204.17 127.82 204.23 127.84C204.3 127.86 204.36 127.89 204.42 127.91C204.48 127.94 204.54 127.97 204.6 128C204.66 128.03 204.72 128.06 204.78 128.1C204.83 128.13 204.88 128.17 204.93 128.2C204.98 128.24 205.03 128.28 205.07 128.32C205.12 128.36 205.16 128.41 205.2 128.45C205.24 128.49 205.28 128.54 205.32 128.59C205.36 128.64 205.39 128.69 205.42 128.74C205.46 128.79 205.49 128.84 205.52 128.89C205.54 128.94 205.57 129 205.59 129.05C205.62 129.11 205.64 129.16 205.66 129.22C205.68 129.28 205.7 129.34 205.71 129.4C205.73 129.46 205.74 129.52 205.75 129.59C205.76 129.65 205.77 129.71 205.77 129.77C205.78 129.83 205.78 129.9 205.78 129.96C205.78 130.06 205.78 130.16 205.77 130.27C205.76 130.37 205.74 130.47 205.72 130.57C205.7 130.67 205.67 130.77 205.64 130.87C205.6 130.96 205.56 131.06 205.52 131.15C205.48 131.23 205.43 131.32 205.38 131.4C205.33 131.47 205.27 131.55 205.21 131.62C205.15 131.69 205.09 131.76 205.02 131.83C204.95 131.89 204.88 131.95 204.8 132.01C204.72 132.07 204.63 132.13 204.55 132.18C204.46 132.23 204.37 132.28 204.28 132.32C204.19 132.36 204.09 132.4 204 132.44C203.9 132.47 203.81 132.5 203.71 132.53C203.6 132.56 203.49 132.59 203.38 132.61C203.26 132.64 203.15 132.66 203.04 132.67C202.92 132.69 202.81 132.7 202.69 132.71C202.58 132.72 202.46 132.72 202.35 132.72L198.93 132.71ZM200.58 127.23L202.15 127.23C202.21 127.23 202.27 127.23 202.32 127.22C202.38 127.22 202.44 127.21 202.5 127.21C202.56 127.2 202.61 127.19 202.67 127.18C202.73 127.17 202.78 127.15 202.84 127.14C202.89 127.13 202.94 127.11 202.99 127.09C203.03 127.08 203.08 127.06 203.13 127.04C203.17 127.01 203.22 126.99 203.26 126.96C203.31 126.94 203.35 126.91 203.39 126.88C203.43 126.85 203.46 126.82 203.5 126.79C203.53 126.76 203.57 126.73 203.6 126.69C203.63 126.66 203.66 126.62 203.69 126.58C203.71 126.54 203.74 126.5 203.76 126.46C203.78 126.42 203.8 126.37 203.82 126.33C203.84 126.28 203.85 126.23 203.87 126.18C203.88 126.14 203.89 126.09 203.89 126.04C203.9 125.99 203.9 125.94 203.9 125.89C203.9 125.84 203.9 125.79 203.89 125.73C203.89 125.68 203.88 125.63 203.87 125.58C203.86 125.53 203.85 125.48 203.83 125.43C203.81 125.38 203.79 125.33 203.77 125.28C203.75 125.24 203.72 125.2 203.7 125.16C203.67 125.12 203.64 125.08 203.61 125.05C203.58 125.01 203.55 124.98 203.51 124.95C203.48 124.92 203.44 124.89 203.4 124.86C203.36 124.83 203.31 124.81 203.27 124.78C203.22 124.76 203.18 124.73 203.13 124.71C203.08 124.69 203.04 124.68 202.99 124.66C202.94 124.64 202.89 124.63 202.84 124.62C202.78 124.61 202.72 124.6 202.67 124.59C202.61 124.58 202.55 124.57 202.49 124.56C202.43 124.55 202.38 124.55 202.32 124.55C202.26 124.54 202.2 124.54 202.14 124.54L200.58 124.54L200.58 127.23ZM200.58 128.42L200.58 131.42L202.37 131.42C202.43 131.42 202.49 131.42 202.55 131.41C202.61 131.41 202.67 131.4 202.73 131.39C202.79 131.38 202.85 131.37 202.91 131.36C202.96 131.34 203.02 131.33 203.08 131.31C203.13 131.29 203.18 131.27 203.23 131.25C203.28 131.23 203.32 131.21 203.37 131.18C203.41 131.16 203.46 131.13 203.5 131.1C203.55 131.07 203.59 131.04 203.63 131.01C203.67 130.98 203.71 130.95 203.74 130.91C203.78 130.88 203.81 130.84 203.84 130.8C203.87 130.76 203.9 130.72 203.93 130.68C203.95 130.64 203.98 130.59 204 130.55C204.02 130.5 204.04 130.45 204.06 130.4C204.08 130.35 204.09 130.3 204.1 130.25C204.11 130.2 204.12 130.15 204.12 130.1C204.13 130.04 204.13 129.99 204.13 129.94C204.13 129.89 204.13 129.83 204.12 129.78C204.12 129.72 204.11 129.67 204.1 129.61C204.09 129.56 204.08 129.51 204.06 129.45C204.05 129.4 204.03 129.35 204.01 129.3C203.99 129.25 203.97 129.21 203.95 129.17C203.93 129.12 203.9 129.08 203.87 129.04C203.84 129 203.81 128.96 203.78 128.93C203.75 128.89 203.72 128.85 203.68 128.82C203.64 128.79 203.6 128.75 203.56 128.73C203.52 128.7 203.47 128.67 203.43 128.64C203.39 128.62 203.34 128.6 203.29 128.57C203.25 128.55 203.2 128.54 203.15 128.52C203.09 128.5 203.04 128.49 202.98 128.47C202.92 128.46 202.86 128.45 202.8 128.44C202.75 128.43 202.69 128.42 202.63 128.42C202.57 128.41 202.51 128.41 202.45 128.41L200.58 128.42ZM215.7 128.59C215.7 128.73 215.7 128.86 215.69 129C215.68 129.13 215.66 129.27 215.64 129.4C215.62 129.54 215.6 129.67 215.57 129.8C215.54 129.94 215.51 130.07 215.47 130.2C215.44 130.32 215.4 130.44 215.35 130.56C215.3 130.68 215.25 130.8 215.2 130.91C215.14 131.02 215.08 131.14 215.01 131.24C214.95 131.35 214.88 131.46 214.8 131.56C214.73 131.66 214.65 131.75 214.56 131.84C214.48 131.93 214.39 132.01 214.29 132.09C214.2 132.17 214.1 132.25 214 132.31C213.9 132.38 213.79 132.44 213.68 132.5C213.56 132.56 213.43 132.61 213.3 132.66C213.18 132.7 213.04 132.74 212.91 132.77C212.78 132.8 212.64 132.82 212.51 132.83C212.37 132.85 212.24 132.85 212.1 132.85C211.84 132.86 211.59 132.83 211.34 132.78C211.09 132.73 210.84 132.64 210.61 132.53C210.38 132.42 210.16 132.28 209.97 132.12C209.77 131.95 209.59 131.77 209.44 131.56C209.36 131.46 209.29 131.35 209.23 131.24C209.16 131.14 209.1 131.02 209.05 130.91C208.99 130.8 208.94 130.68 208.9 130.56C208.85 130.44 208.81 130.32 208.78 130.2C208.74 130.07 208.71 129.94 208.68 129.8C208.65 129.67 208.63 129.54 208.61 129.4C208.59 129.27 208.58 129.13 208.57 129C208.56 128.86 208.56 128.73 208.56 128.59L208.56 127.38C208.56 127.29 208.56 127.2 208.57 127.11C208.57 127.01 208.58 126.92 208.58 126.83C208.59 126.74 208.6 126.65 208.62 126.56C208.63 126.47 208.64 126.38 208.66 126.29C208.68 126.2 208.69 126.12 208.71 126.03C208.73 125.95 208.75 125.87 208.78 125.78C208.8 125.7 208.83 125.62 208.86 125.53C208.89 125.45 208.92 125.37 208.95 125.29C208.98 125.21 209.02 125.14 209.05 125.06C209.09 124.99 209.13 124.91 209.17 124.84C209.21 124.77 209.25 124.7 209.3 124.63C209.34 124.56 209.39 124.49 209.44 124.42C209.49 124.35 209.54 124.29 209.59 124.23C209.64 124.17 209.7 124.11 209.75 124.05C209.81 123.99 209.87 123.93 209.93 123.88C209.99 123.83 210.05 123.78 210.12 123.73C210.19 123.68 210.26 123.63 210.33 123.59C210.4 123.55 210.47 123.51 210.55 123.47C210.62 123.43 210.7 123.4 210.77 123.37C210.85 123.33 210.93 123.31 211.01 123.28C211.1 123.25 211.19 123.23 211.28 123.21C211.37 123.19 211.46 123.17 211.55 123.16C211.64 123.14 211.73 123.13 211.82 123.13C211.92 123.12 212.01 123.12 212.1 123.12C212.36 123.11 212.62 123.14 212.87 123.19C213.13 123.24 213.37 123.33 213.61 123.44C213.84 123.55 214.06 123.69 214.26 123.85C214.46 124.02 214.64 124.2 214.8 124.41C214.88 124.51 214.95 124.62 215.02 124.72C215.08 124.83 215.15 124.94 215.2 125.06C215.26 125.17 215.31 125.29 215.36 125.41C215.4 125.53 215.45 125.65 215.48 125.77C215.52 125.9 215.55 126.03 215.58 126.17C215.61 126.3 215.63 126.43 215.65 126.57C215.67 126.7 215.69 126.84 215.7 126.97C215.71 127.11 215.71 127.24 215.71 127.38L215.7 128.59ZM214.05 127.37C214.05 127.28 214.05 127.19 214.04 127.1C214.04 127.01 214.03 126.93 214.02 126.84C214.01 126.75 214 126.66 213.99 126.57C213.98 126.49 213.97 126.4 213.95 126.31C213.94 126.23 213.92 126.15 213.9 126.07C213.88 125.99 213.85 125.91 213.83 125.83C213.8 125.75 213.77 125.67 213.74 125.59C213.71 125.52 213.67 125.44 213.63 125.37C213.59 125.3 213.55 125.24 213.51 125.18C213.47 125.12 213.42 125.06 213.37 125C213.32 124.94 213.27 124.89 213.21 124.84C213.15 124.79 213.09 124.74 213.03 124.7C212.96 124.66 212.89 124.62 212.82 124.58C212.74 124.55 212.66 124.52 212.58 124.5C212.51 124.48 212.43 124.46 212.34 124.45C212.26 124.44 212.18 124.44 212.1 124.44C212.02 124.44 211.94 124.44 211.86 124.45C211.78 124.46 211.7 124.48 211.62 124.5C211.54 124.52 211.47 124.55 211.39 124.58C211.32 124.62 211.25 124.66 211.18 124.7C211.12 124.74 211.06 124.79 211.01 124.84C210.95 124.89 210.9 124.94 210.85 125C210.8 125.06 210.76 125.12 210.71 125.18C210.67 125.24 210.63 125.3 210.6 125.37C210.56 125.44 210.53 125.52 210.5 125.6C210.47 125.67 210.44 125.75 210.41 125.83C210.39 125.91 210.37 125.99 210.35 126.07C210.33 126.15 210.31 126.23 210.3 126.31C210.29 126.4 210.27 126.49 210.26 126.57C210.25 126.66 210.24 126.75 210.23 126.84C210.23 126.93 210.22 127.02 210.22 127.1C210.21 127.19 210.21 127.28 210.21 127.37L210.21 128.59C210.21 128.68 210.21 128.77 210.22 128.86C210.22 128.94 210.23 129.03 210.24 129.12C210.25 129.21 210.26 129.3 210.27 129.39C210.28 129.47 210.29 129.56 210.31 129.65C210.32 129.73 210.34 129.81 210.36 129.89C210.38 129.97 210.4 130.05 210.42 130.13C210.45 130.21 210.48 130.29 210.51 130.36C210.54 130.44 210.57 130.52 210.61 130.59C210.64 130.66 210.68 130.72 210.72 130.79C210.76 130.85 210.81 130.91 210.86 130.97C210.91 131.02 210.96 131.08 211.02 131.13C211.07 131.18 211.13 131.23 211.19 131.27C211.26 131.31 211.33 131.35 211.4 131.39C211.48 131.42 211.55 131.45 211.63 131.47C211.71 131.49 211.79 131.51 211.87 131.52C211.95 131.53 212.03 131.53 212.11 131.53C212.19 131.53 212.27 131.53 212.35 131.52C212.44 131.51 212.52 131.49 212.6 131.47C212.67 131.45 212.75 131.42 212.83 131.39C212.9 131.35 212.97 131.31 213.04 131.27C213.1 131.23 213.16 131.18 213.22 131.13C213.27 131.08 213.33 131.02 213.38 130.96C213.43 130.91 213.48 130.85 213.52 130.78C213.56 130.72 213.6 130.66 213.64 130.59C213.68 130.52 213.72 130.44 213.75 130.37C213.78 130.29 213.81 130.21 213.84 130.13C213.86 130.05 213.89 129.97 213.91 129.89C213.93 129.81 213.95 129.73 213.96 129.65C213.98 129.56 213.99 129.47 214 129.39C214.01 129.3 214.02 129.21 214.03 129.12C214.04 129.03 214.05 128.94 214.05 128.86C214.06 128.77 214.06 128.68 214.06 128.59L214.05 127.37ZM225.44 123.25L225.44 129.59C225.44 129.7 225.43 129.82 225.42 129.93C225.41 130.04 225.4 130.16 225.38 130.27C225.36 130.38 225.33 130.49 225.3 130.6C225.27 130.71 225.23 130.81 225.19 130.92C225.15 131.01 225.11 131.1 225.06 131.19C225.01 131.28 224.96 131.37 224.91 131.45C224.85 131.54 224.79 131.62 224.72 131.7C224.66 131.77 224.59 131.85 224.52 131.92C224.45 131.99 224.37 132.06 224.3 132.12C224.22 132.19 224.14 132.25 224.05 132.3C223.97 132.36 223.88 132.41 223.79 132.45C223.7 132.5 223.61 132.54 223.52 132.58C223.41 132.62 223.3 132.65 223.19 132.68C223.07 132.71 222.96 132.74 222.85 132.76C222.73 132.78 222.62 132.79 222.5 132.8C222.38 132.81 222.27 132.81 222.15 132.81C222.04 132.81 221.92 132.81 221.81 132.8C221.69 132.79 221.58 132.78 221.47 132.76C221.36 132.74 221.25 132.71 221.14 132.68C221.03 132.65 220.92 132.62 220.81 132.58C220.62 132.51 220.43 132.42 220.26 132.3C220.09 132.19 219.92 132.06 219.78 131.92C219.63 131.77 219.5 131.61 219.39 131.44C219.28 131.27 219.18 131.08 219.11 130.89C219.07 130.78 219.03 130.68 219 130.57C218.97 130.46 218.94 130.34 218.92 130.23C218.9 130.12 218.89 130.01 218.88 129.89C218.86 129.78 218.86 129.66 218.86 129.55L218.86 123.21L220.47 123.21L220.47 129.55C220.47 129.62 220.47 129.69 220.48 129.75C220.48 129.82 220.49 129.89 220.5 129.95C220.51 130.02 220.52 130.09 220.54 130.15C220.55 130.22 220.57 130.29 220.59 130.35C220.61 130.41 220.62 130.46 220.64 130.52C220.67 130.57 220.69 130.63 220.72 130.68C220.74 130.73 220.77 130.78 220.8 130.83C220.83 130.88 220.86 130.93 220.9 130.98C220.93 131.02 220.97 131.06 221.01 131.1C221.05 131.14 221.09 131.18 221.13 131.21C221.17 131.25 221.22 131.28 221.27 131.31C221.31 131.34 221.36 131.37 221.41 131.39C221.47 131.42 221.52 131.44 221.58 131.46C221.64 131.48 221.7 131.49 221.76 131.51C221.82 131.52 221.88 131.53 221.94 131.53C222 131.54 222.06 131.54 222.12 131.54C222.18 131.54 222.25 131.54 222.31 131.53C222.37 131.53 222.43 131.52 222.49 131.51C222.55 131.49 222.62 131.48 222.67 131.46C222.73 131.44 222.79 131.42 222.85 131.39C222.9 131.37 222.95 131.34 223 131.31C223.05 131.28 223.09 131.25 223.14 131.22C223.18 131.18 223.23 131.14 223.27 131.11C223.31 131.07 223.34 131.02 223.38 130.98C223.42 130.93 223.45 130.88 223.48 130.84C223.51 130.79 223.54 130.73 223.57 130.68C223.6 130.63 223.62 130.57 223.64 130.52C223.67 130.46 223.68 130.41 223.7 130.35C223.72 130.29 223.74 130.22 223.75 130.15C223.76 130.09 223.78 130.02 223.79 129.95C223.8 129.89 223.8 129.82 223.81 129.75C223.82 129.69 223.82 129.62 223.82 129.55L223.82 123.21L225.44 123.25ZM232.32 129L230.65 129L230.65 132.69L229 132.69L229 123.22L232.15 123.22C232.27 123.22 232.39 123.22 232.51 123.23C232.63 123.24 232.74 123.25 232.86 123.27C232.98 123.28 233.1 123.3 233.21 123.33C233.33 123.35 233.45 123.38 233.56 123.41C233.66 123.44 233.76 123.47 233.86 123.5C233.96 123.54 234.05 123.58 234.15 123.62C234.24 123.67 234.33 123.72 234.42 123.77C234.51 123.82 234.6 123.88 234.68 123.94C234.76 124 234.83 124.06 234.9 124.13C234.97 124.19 235.04 124.27 235.1 124.34C235.16 124.42 235.22 124.49 235.27 124.58C235.32 124.66 235.37 124.74 235.41 124.83C235.46 124.93 235.49 125.03 235.53 125.13C235.56 125.23 235.59 125.33 235.61 125.44C235.63 125.55 235.65 125.65 235.66 125.76C235.67 125.87 235.67 125.97 235.67 126.08C235.67 126.15 235.67 126.23 235.66 126.3C235.66 126.37 235.65 126.45 235.64 126.52C235.63 126.59 235.62 126.67 235.6 126.74C235.58 126.81 235.56 126.88 235.54 126.95C235.52 127.01 235.5 127.08 235.47 127.14C235.44 127.2 235.41 127.26 235.38 127.32C235.35 127.38 235.32 127.44 235.28 127.49C235.25 127.55 235.21 127.61 235.17 127.66C235.13 127.71 235.09 127.77 235.04 127.82C235 127.87 234.95 127.91 234.91 127.96C234.86 128.01 234.81 128.05 234.76 128.1C234.71 128.14 234.65 128.18 234.6 128.22C234.54 128.26 234.48 128.3 234.42 128.34C234.36 128.38 234.3 128.41 234.24 128.45C234.18 128.48 234.12 128.51 234.05 128.54C233.99 128.57 233.93 128.6 233.86 128.63L235.97 132.63L235.97 132.71L234.22 132.71L232.32 129ZM230.65 127.74L232.16 127.74C232.22 127.74 232.29 127.74 232.35 127.73C232.41 127.73 232.48 127.72 232.54 127.71C232.6 127.7 232.66 127.69 232.73 127.68C232.79 127.67 232.85 127.65 232.91 127.63C232.96 127.61 233.02 127.59 233.07 127.57C233.12 127.55 233.17 127.52 233.22 127.5C233.27 127.47 233.32 127.44 233.36 127.41C233.41 127.38 233.46 127.35 233.5 127.31C233.54 127.28 233.58 127.24 233.62 127.2C233.66 127.16 233.69 127.12 233.72 127.08C233.76 127.04 233.79 127 233.81 126.95C233.84 126.91 233.87 126.86 233.89 126.81C233.91 126.76 233.93 126.7 233.95 126.65C233.97 126.59 233.99 126.53 234 126.48C234.01 126.42 234.02 126.36 234.02 126.3C234.03 126.25 234.03 126.19 234.03 126.13C234.03 126.07 234.03 126.01 234.02 125.95C234.02 125.89 234.01 125.83 234 125.77C233.99 125.71 233.98 125.66 233.96 125.6C233.94 125.54 233.92 125.49 233.9 125.43C233.88 125.38 233.86 125.33 233.83 125.29C233.8 125.24 233.78 125.2 233.74 125.15C233.71 125.11 233.68 125.07 233.64 125.03C233.61 124.99 233.57 124.95 233.53 124.92C233.49 124.88 233.44 124.85 233.4 124.82C233.35 124.79 233.3 124.76 233.25 124.73C233.2 124.7 233.15 124.68 233.1 124.66C233.05 124.64 232.99 124.62 232.94 124.6C232.88 124.58 232.81 124.57 232.75 124.55C232.68 124.54 232.62 124.53 232.55 124.52C232.49 124.51 232.42 124.5 232.36 124.5C232.29 124.49 232.23 124.49 232.16 124.49L230.66 124.49L230.65 127.74ZM245.43 132.71L243.78 132.71L240.54 126.2L240.54 132.71L238.88 132.71L238.88 123.24L240.54 123.24L243.77 129.74L243.77 123.24L245.43 123.24L245.43 132.71ZM254.84 128.47L250.74 128.47L250.74 131.47L255.53 131.47L255.53 132.74L249.1 132.74L249.1 123.27L255.49 123.27L255.49 124.56L250.74 124.56L250.74 127.23L254.84 127.23L254.84 128.47ZM265.18 129.19L259.7 129.19L259.7 127.94L265.18 127.94L265.18 129.19ZM273.86 130.52L270.75 130.52L270.07 132.72L268.37 132.72L271.6 123.25L273 123.25L276.17 132.72L274.48 132.72L273.86 130.52ZM271.17 129.19L273.45 129.19L272.32 125.48L271.17 129.19ZM285.73 131.53C285.69 131.58 285.64 131.63 285.59 131.68C285.55 131.72 285.5 131.77 285.45 131.81C285.4 131.86 285.35 131.9 285.3 131.94C285.25 131.98 285.19 132.02 285.14 132.06C285.08 132.1 285.02 132.14 284.96 132.18C284.89 132.22 284.83 132.26 284.77 132.29C284.7 132.33 284.64 132.36 284.57 132.39C284.5 132.42 284.44 132.45 284.37 132.48C284.3 132.51 284.22 132.54 284.15 132.56C284.07 132.59 283.99 132.62 283.92 132.64C283.84 132.66 283.76 132.68 283.68 132.7C283.61 132.72 283.53 132.74 283.45 132.75C283.36 132.77 283.28 132.78 283.19 132.79C283.1 132.81 283.01 132.82 282.92 132.83C282.83 132.83 282.75 132.84 282.66 132.84C282.57 132.85 282.48 132.85 282.39 132.85C282.25 132.85 282.12 132.85 281.98 132.84C281.85 132.82 281.71 132.8 281.58 132.78C281.44 132.75 281.31 132.71 281.18 132.67C281.05 132.63 280.92 132.58 280.8 132.52C280.69 132.47 280.58 132.41 280.47 132.34C280.37 132.28 280.26 132.21 280.16 132.13C280.07 132.05 279.97 131.97 279.88 131.88C279.79 131.8 279.71 131.71 279.63 131.61C279.55 131.51 279.47 131.41 279.4 131.3C279.33 131.19 279.26 131.08 279.2 130.97C279.14 130.85 279.08 130.73 279.03 130.61C278.98 130.5 278.94 130.37 278.9 130.25C278.86 130.11 278.82 129.98 278.79 129.84C278.75 129.7 278.73 129.56 278.71 129.42C278.68 129.28 278.67 129.14 278.66 129C278.65 128.85 278.64 128.71 278.64 128.57L278.64 127.4C278.64 127.26 278.64 127.12 278.65 126.97C278.66 126.83 278.68 126.69 278.7 126.55C278.72 126.41 278.75 126.27 278.78 126.13C278.81 125.99 278.85 125.86 278.89 125.72C278.93 125.6 278.97 125.48 279.02 125.36C279.07 125.24 279.12 125.12 279.18 125.01C279.24 124.89 279.31 124.78 279.38 124.67C279.45 124.57 279.52 124.46 279.6 124.36C279.68 124.26 279.76 124.17 279.84 124.09C279.93 124 280.02 123.92 280.11 123.84C280.21 123.77 280.31 123.69 280.41 123.63C280.51 123.56 280.62 123.5 280.73 123.45C280.85 123.39 280.97 123.34 281.09 123.3C281.22 123.25 281.35 123.22 281.47 123.19C281.6 123.16 281.73 123.14 281.87 123.13C282 123.11 282.13 123.11 282.26 123.11C282.38 123.11 282.49 123.11 282.61 123.12C282.73 123.13 282.84 123.14 282.96 123.16C283.07 123.17 283.19 123.19 283.3 123.22C283.42 123.24 283.53 123.28 283.64 123.31C283.73 123.34 283.82 123.38 283.91 123.42C284 123.46 284.08 123.5 284.17 123.55C284.25 123.6 284.33 123.65 284.41 123.71C284.49 123.77 284.57 123.83 284.64 123.89C284.71 123.95 284.78 124.02 284.85 124.09C284.91 124.17 284.98 124.24 285.03 124.32C285.09 124.4 285.15 124.48 285.2 124.56C285.24 124.65 285.29 124.73 285.33 124.82C285.37 124.92 285.41 125.01 285.45 125.11C285.48 125.21 285.52 125.31 285.54 125.42C285.57 125.52 285.59 125.62 285.61 125.73C285.63 125.83 285.64 125.93 285.65 126.04L284.04 126.04C284.03 125.98 284.02 125.92 284.01 125.86C284 125.8 283.98 125.75 283.97 125.69C283.95 125.63 283.93 125.57 283.91 125.52C283.89 125.46 283.87 125.41 283.85 125.35C283.83 125.3 283.81 125.25 283.78 125.21C283.76 125.16 283.73 125.12 283.7 125.07C283.67 125.03 283.64 124.99 283.61 124.95C283.57 124.91 283.54 124.87 283.5 124.83C283.46 124.79 283.42 124.76 283.38 124.73C283.34 124.69 283.3 124.66 283.25 124.64C283.21 124.61 283.16 124.58 283.12 124.56C283.07 124.54 283.02 124.52 282.97 124.5C282.91 124.48 282.85 124.46 282.79 124.45C282.73 124.43 282.67 124.42 282.6 124.41C282.54 124.4 282.48 124.4 282.42 124.39C282.36 124.39 282.29 124.39 282.23 124.39C282.15 124.39 282.07 124.39 282 124.4C281.92 124.41 281.84 124.42 281.77 124.44C281.69 124.46 281.62 124.49 281.55 124.52C281.48 124.55 281.41 124.59 281.34 124.63C281.28 124.67 281.22 124.72 281.16 124.77C281.1 124.82 281.04 124.87 280.99 124.92C280.94 124.98 280.89 125.04 280.85 125.1C280.8 125.16 280.76 125.22 280.72 125.29C280.68 125.37 280.64 125.45 280.6 125.53C280.56 125.61 280.53 125.69 280.5 125.77C280.47 125.86 280.44 125.94 280.42 126.03C280.39 126.12 280.38 126.2 280.36 126.29C280.34 126.38 280.32 126.48 280.31 126.57C280.29 126.67 280.28 126.76 280.27 126.86C280.26 126.95 280.25 127.05 280.25 127.14C280.24 127.24 280.24 127.33 280.24 127.43L280.24 128.61C280.24 128.7 280.24 128.8 280.25 128.89C280.26 128.99 280.26 129.08 280.28 129.18C280.29 129.27 280.3 129.37 280.32 129.46C280.33 129.55 280.35 129.65 280.37 129.74C280.39 129.83 280.41 129.92 280.43 130C280.46 130.09 280.48 130.17 280.52 130.26C280.55 130.34 280.58 130.42 280.62 130.5C280.66 130.58 280.7 130.66 280.75 130.74C280.79 130.81 280.84 130.87 280.88 130.93C280.93 130.99 280.99 131.05 281.04 131.11C281.1 131.16 281.16 131.22 281.22 131.27C281.28 131.31 281.34 131.36 281.41 131.4C281.49 131.44 281.56 131.48 281.64 131.51C281.73 131.55 281.81 131.57 281.89 131.59C281.98 131.62 282.06 131.63 282.15 131.64C282.24 131.65 282.32 131.65 282.41 131.65L282.89 131.65C282.93 131.65 282.97 131.64 283.01 131.63C283.05 131.63 283.09 131.62 283.13 131.61C283.17 131.61 283.21 131.6 283.24 131.59C283.28 131.58 283.32 131.57 283.36 131.56C283.4 131.55 283.43 131.54 283.47 131.53C283.5 131.51 283.54 131.5 283.57 131.49C283.6 131.47 283.64 131.46 283.67 131.44C283.7 131.42 283.74 131.41 283.77 131.39C283.8 131.37 283.83 131.36 283.85 131.34C283.88 131.32 283.91 131.3 283.93 131.28C283.96 131.26 283.98 131.24 284 131.21C284.03 131.19 284.05 131.17 284.07 131.14L284.07 129.25L282.27 129.25L282.27 128.04L285.68 128.04L285.73 131.53ZM293.89 130.52L290.78 130.52L290.1 132.72L288.4 132.72L291.63 123.25L293.07 123.25L296.24 132.72L294.55 132.72L293.89 130.52ZM291.2 129.19L293.48 129.19L292.35 125.48L291.2 129.19ZM299.3 123.25L305.22 123.25L305.22 124.54L303.07 124.54L303.07 131.43L305.22 131.43L305.22 132.72L299.3 132.72L299.3 131.43L301.41 131.43L301.41 124.54L299.3 124.54L299.3 123.25ZM315.54 132.71L313.89 132.71L310.65 126.2L310.65 132.71L309 132.71L309 123.24L310.66 123.24L313.89 129.74L313.89 123.24L315.55 123.24L315.54 132.71ZM334.28 130.13C334.28 130.08 334.27 130.02 334.25 129.98C334.24 129.93 334.23 129.88 334.21 129.83C334.19 129.78 334.17 129.73 334.14 129.69C334.11 129.65 334.08 129.6 334.05 129.56C334.02 129.52 333.99 129.48 333.95 129.44C333.92 129.4 333.88 129.37 333.84 129.34C333.8 129.3 333.76 129.27 333.72 129.24C333.67 129.21 333.62 129.17 333.57 129.14C333.52 129.11 333.46 129.08 333.41 129.05C333.36 129.02 333.3 128.99 333.25 128.97C333.19 128.94 333.14 128.92 333.08 128.9C332.83 128.8 332.56 128.71 332.27 128.63C332.17 128.6 332.07 128.57 331.98 128.54C331.88 128.51 331.78 128.48 331.68 128.45C331.59 128.42 331.49 128.38 331.4 128.34C331.3 128.31 331.2 128.27 331.11 128.23C331.02 128.19 330.93 128.15 330.85 128.11C330.76 128.06 330.67 128.02 330.59 127.97C330.51 127.92 330.43 127.87 330.35 127.81C330.27 127.76 330.19 127.7 330.11 127.64C330.04 127.58 329.97 127.53 329.9 127.46C329.83 127.4 329.77 127.34 329.71 127.27C329.65 127.2 329.59 127.13 329.53 127.06C329.48 126.98 329.43 126.91 329.38 126.83C329.33 126.75 329.29 126.66 329.25 126.58C329.22 126.49 329.19 126.4 329.17 126.31C329.14 126.22 329.12 126.13 329.11 126.03C329.1 125.94 329.1 125.84 329.1 125.75C329.1 125.65 329.1 125.56 329.11 125.46C329.13 125.37 329.14 125.27 329.17 125.18C329.19 125.09 329.22 125 329.26 124.91C329.29 124.82 329.33 124.73 329.38 124.65C329.43 124.57 329.48 124.49 329.53 124.42C329.59 124.34 329.64 124.27 329.71 124.2C329.77 124.13 329.83 124.07 329.9 124C329.97 123.94 330.04 123.88 330.12 123.83C330.2 123.77 330.29 123.72 330.37 123.67C330.46 123.61 330.55 123.57 330.64 123.52C330.73 123.48 330.82 123.44 330.91 123.4C331.01 123.37 331.1 123.34 331.2 123.31C331.3 123.28 331.41 123.25 331.52 123.23C331.62 123.21 331.73 123.19 331.84 123.17C331.95 123.16 332.05 123.15 332.16 123.14C332.27 123.13 332.38 123.13 332.49 123.13C332.6 123.13 332.72 123.13 332.83 123.14C332.94 123.15 333.06 123.16 333.17 123.18C333.28 123.2 333.39 123.22 333.5 123.25C333.61 123.27 333.72 123.3 333.83 123.34C333.93 123.37 334.03 123.41 334.12 123.45C334.22 123.49 334.31 123.54 334.4 123.59C334.49 123.64 334.58 123.69 334.67 123.75C334.75 123.8 334.84 123.87 334.92 123.93C335 123.99 335.07 124.06 335.14 124.13C335.21 124.2 335.28 124.27 335.34 124.35C335.4 124.42 335.46 124.5 335.51 124.58C335.57 124.67 335.61 124.75 335.66 124.84C335.71 124.93 335.75 125.02 335.78 125.12C335.82 125.21 335.85 125.31 335.87 125.41C335.89 125.51 335.91 125.61 335.92 125.71C335.93 125.81 335.94 125.91 335.94 126.01L334.3 126.01C334.3 125.95 334.29 125.9 334.28 125.84C334.27 125.79 334.26 125.73 334.25 125.68C334.23 125.62 334.22 125.57 334.2 125.52C334.18 125.46 334.16 125.41 334.14 125.36C334.12 125.31 334.1 125.26 334.07 125.22C334.05 125.17 334.02 125.13 333.99 125.09C333.96 125.04 333.92 125 333.89 124.96C333.86 124.92 333.82 124.89 333.78 124.85C333.74 124.81 333.7 124.78 333.65 124.75C333.61 124.71 333.56 124.68 333.52 124.66C333.47 124.63 333.42 124.6 333.37 124.58C333.32 124.56 333.27 124.54 333.22 124.52C333.16 124.5 333.1 124.48 333.03 124.47C332.97 124.45 332.91 124.44 332.85 124.43C332.78 124.42 332.72 124.41 332.65 124.41C332.59 124.4 332.52 124.4 332.46 124.4C332.4 124.4 332.35 124.4 332.29 124.4C332.23 124.41 332.17 124.41 332.12 124.42C332.06 124.43 332 124.44 331.95 124.45C331.89 124.46 331.84 124.47 331.78 124.49C331.73 124.5 331.68 124.52 331.64 124.54C331.59 124.56 331.54 124.58 331.5 124.6C331.45 124.62 331.41 124.65 331.36 124.67C331.32 124.7 331.28 124.73 331.24 124.76C331.2 124.79 331.17 124.82 331.13 124.85C331.1 124.88 331.07 124.91 331.04 124.95C331.01 124.99 330.98 125.02 330.95 125.06C330.93 125.1 330.9 125.14 330.88 125.18C330.86 125.22 330.84 125.27 330.82 125.31C330.81 125.36 330.79 125.4 330.78 125.45C330.77 125.5 330.76 125.55 330.76 125.6C330.75 125.64 330.75 125.69 330.75 125.74C330.75 125.79 330.75 125.84 330.76 125.89C330.77 125.94 330.78 125.99 330.8 126.04C330.81 126.09 330.83 126.13 330.85 126.18C330.88 126.22 330.9 126.27 330.93 126.31C330.96 126.35 330.99 126.39 331.03 126.43C331.06 126.47 331.1 126.51 331.14 126.55C331.18 126.58 331.22 126.62 331.26 126.65C331.3 126.68 331.35 126.71 331.39 126.74C331.44 126.77 331.49 126.8 331.55 126.83C331.6 126.86 331.66 126.89 331.71 126.92C331.77 126.95 331.82 126.97 331.88 126.99C331.93 127.02 331.99 127.04 332.05 127.06C332.3 127.15 332.56 127.23 332.83 127.3C332.93 127.33 333.03 127.36 333.13 127.39C333.23 127.42 333.33 127.46 333.43 127.49C333.53 127.53 333.63 127.57 333.73 127.61C333.83 127.65 333.92 127.69 334.02 127.73C334.11 127.77 334.2 127.81 334.29 127.86C334.37 127.9 334.46 127.95 334.54 128.01C334.62 128.06 334.71 128.11 334.79 128.17C334.87 128.23 334.94 128.29 335.02 128.35C335.09 128.41 335.16 128.47 335.22 128.53C335.28 128.6 335.34 128.66 335.4 128.73C335.46 128.8 335.51 128.87 335.56 128.95C335.61 129.02 335.66 129.1 335.7 129.18C335.74 129.26 335.78 129.35 335.81 129.44C335.85 129.53 335.87 129.62 335.89 129.71C335.91 129.8 335.93 129.89 335.94 129.99C335.95 130.08 335.95 130.18 335.95 130.27C335.95 130.37 335.95 130.46 335.94 130.56C335.93 130.66 335.91 130.75 335.88 130.84C335.86 130.94 335.83 131.03 335.8 131.12C335.76 131.21 335.72 131.3 335.67 131.38C335.62 131.46 335.57 131.54 335.52 131.61C335.46 131.69 335.4 131.76 335.34 131.83C335.28 131.89 335.21 131.96 335.14 132.02C335.07 132.08 335 132.14 334.92 132.19C334.84 132.25 334.75 132.3 334.66 132.35C334.58 132.4 334.49 132.44 334.4 132.48C334.3 132.52 334.21 132.56 334.12 132.59C334.02 132.63 333.93 132.66 333.83 132.68C333.72 132.71 333.62 132.73 333.51 132.75C333.4 132.78 333.29 132.79 333.19 132.81C333.08 132.82 332.97 132.83 332.86 132.84C332.75 132.85 332.64 132.85 332.53 132.85C332.45 132.85 332.38 132.85 332.3 132.85C332.23 132.84 332.15 132.84 332.07 132.83C332 132.82 331.92 132.82 331.85 132.81C331.77 132.8 331.69 132.78 331.62 132.77C331.55 132.76 331.47 132.74 331.4 132.72C331.33 132.71 331.26 132.69 331.18 132.67C331.11 132.65 331.04 132.62 330.97 132.6C330.9 132.57 330.83 132.55 330.76 132.52C330.69 132.49 330.62 132.46 330.56 132.43C330.49 132.4 330.43 132.37 330.36 132.33C330.3 132.3 330.24 132.26 330.17 132.22C330.11 132.18 330.05 132.14 329.99 132.1C329.93 132.06 329.88 132.02 329.82 131.97C329.77 131.93 329.71 131.88 329.66 131.83C329.61 131.78 329.56 131.73 329.51 131.68C329.46 131.63 329.41 131.58 329.37 131.52C329.28 131.41 329.2 131.28 329.13 131.15C329.05 131.03 328.99 130.89 328.95 130.75C328.9 130.62 328.86 130.47 328.84 130.33C328.81 130.18 328.8 130.04 328.8 129.89L330.45 129.89C330.45 129.95 330.46 130.02 330.47 130.08C330.48 130.15 330.5 130.21 330.51 130.27C330.53 130.34 330.55 130.4 330.57 130.46C330.6 130.52 330.62 130.58 330.65 130.64C330.68 130.69 330.71 130.74 330.74 130.79C330.77 130.84 330.8 130.89 330.84 130.93C330.88 130.97 330.92 131.02 330.96 131.06C331 131.1 331.04 131.13 331.09 131.17C331.14 131.21 331.19 131.24 331.24 131.27C331.29 131.3 331.34 131.33 331.39 131.36C331.45 131.39 331.5 131.41 331.56 131.43C331.62 131.45 331.67 131.47 331.73 131.49C331.8 131.51 331.86 131.53 331.93 131.54C332 131.55 332.06 131.56 332.13 131.57C332.2 131.58 332.27 131.59 332.34 131.59C332.4 131.6 332.47 131.6 332.54 131.6C332.6 131.6 332.66 131.6 332.71 131.6C332.77 131.59 332.83 131.59 332.89 131.58C332.95 131.58 333 131.57 333.06 131.56C333.12 131.55 333.17 131.53 333.23 131.52C333.28 131.51 333.33 131.49 333.38 131.48C333.43 131.46 333.47 131.44 333.52 131.42C333.57 131.4 333.61 131.38 333.66 131.35C333.7 131.33 333.75 131.3 333.79 131.27C333.83 131.24 333.87 131.22 333.9 131.18C333.94 131.15 333.97 131.12 334 131.09C334.04 131.05 334.07 131.02 334.09 130.98C334.12 130.94 334.15 130.9 334.17 130.86C334.19 130.82 334.21 130.77 334.23 130.72C334.25 130.68 334.26 130.63 334.27 130.58C334.28 130.53 334.29 130.48 334.29 130.43C334.29 130.38 334.29 130.33 334.29 130.28C334.29 130.23 334.29 130.18 334.28 130.13ZM345.59 132.71L344 132.71L344 128.48L340.6 128.48L340.6 132.71L339 132.71L339 123.24L340.59 123.24L340.59 127.24L344 127.24L344 123.24L345.6 123.24L345.59 132.71ZM355 128.47L350.9 128.47L350.9 131.47L355.69 131.47L355.69 132.74L349.25 132.74L349.25 123.27L355.64 123.27L355.64 124.56L350.89 124.56L350.89 127.23L355 127.23L355 128.47ZM361 131.44L365.75 131.44L365.75 132.71L359.36 132.71L359.36 123.24L361 123.24L361 131.44ZM371 131.44L375.75 131.44L375.75 132.71L369.36 132.71L369.36 123.24L371 123.24L371 131.44Z" />
			<path id="Shape 1" class="shp1" d="M511 273" />
		</g>
	</g>
</svg>