<svg xmlns="http://www.w3.org/2000/svg" viewBox="0 0 1771 2500" width="1771" height="2500">
	<style>
		tspan { white-space:pre }
		.shp0 { fill: #d2d2d2 } 
		.shp1 { fill: #1572b6 } 
		.shp2 { fill: #33a9dc } 
		.shp3 { fill: #ffffff } 
		.shp4 { fill: #ebebeb } 
	</style>
	<path id="Layer" class="shp0" d="M1387.8 92.5L1240.9 92.5L1393.7 258.4L1393.7 337.3L1078.9 337.3L1078.9 244.9L1231.7 244.9L1078.9 79L1078.9 0L1387.9 0L1387.8 92.5ZM1016.4 92.5L869.3 92.5L1022.3 258.4L1022.3 337.3L707.4 337.3L707.4 244.9L860.2 244.9L707.4 79L707.4 0L1016.4 0L1016.4 92.5ZM648.6 96.3L490.1 96.3L490.1 241.1L648.6 241.1L648.6 337.4L377.3 337.4L377.3 0L648.6 0L648.6 96.3Z" />
	<path id="Layer" class="shp1" d="M161.2 2299.1L0 491.4L1771 491.4L1609.6 2298.8L884.4 2499.8L161.2 2299.1Z" />
	<path id="Layer" class="shp2" d="M885.5 2346.2L1471.5 2183.7L1609.3 639.2L885.5 639.2L885.5 2346.2Z" />
	<path id="Layer" class="shp3" d="M885.5 1294.1L1178.9 1294.1L1199.1 1067.1L885.5 1067.1L885.5 845.5L1441.5 845.5L1436.2 905L1381.7 1516L885.5 1516L885.5 1294.1Z" />
	<path id="Layer" class="shp4" d="M886.7 1869.9L885.7 1869.9L638.8 1803.2L623 1626.4L400.6 1626.4L431.7 1974.5L885.9 2100.9L887.2 2100.9L887.2 1869.9L886.7 1869.9Z" />
	<path id="Layer" class="shp3" d="M1160.1 1506.3L1133.4 1803L886.1 1869.7L886.1 2100.7L1340.6 1974.7L1343.9 1937.2L1382.5 1506.2L1160.1 1506.2L1160.1 1506.3Z" />
	<path id="Layer" class="shp4" d="M886.3 845.5L886.3 1067.2L350.9 1067.2L346.3 1017.4L336.2 905L330.9 845.5L886.3 845.5ZM885.5 1294.1L885.5 1515.8L641.4 1515.8L637.1 1466L627 1353.6L621.7 1294.1L885.4 1294.1L885.5 1294.1Z" />
	<path id="Shape 1" class="shp4" d="M2466 384" />
</svg>