<svg xmlns="http://www.w3.org/2000/svg" viewBox="0 0 256 215" width="256" height="215">
	<style>
		tspan { white-space:pre }
		.shp0 { fill: #d2d2d2 } 
		.shp1 { fill: #22a0c8 } 
		.shp2 { fill: #37b1d9 } 
		.shp3 { fill: #1b81a5 } 
		.shp4 { fill: #1d91b4 } 
		.shp5 { fill: #23a3c2 } 
		.shp6 { fill: #34bbde } 
		.shp7 { fill: #d3ecec } 
		.shp8 { fill: #364548 } 
		.shp9 { fill: #bdd9d7 } 
	</style>
	<g id="Layer">
		<path id="Layer" fill-rule="evenodd" class="shp0" d="M38.62 173.98C34.55 170.4 29.73 168.2 24.04 168.2L22.5 168.2C21.54 168.2 20.59 168.26 19.64 168.38C18.69 168.51 17.75 168.7 16.83 168.95C15.9 169.2 15 169.52 14.11 169.89C13.23 170.26 12.38 170.7 11.55 171.19C4.33 175.45 0.18 182.13 0.18 190.53L0.18 192.07C0.17 193.03 0.23 193.98 0.36 194.93C0.49 195.88 0.67 196.82 0.93 197.74C1.18 198.67 1.49 199.57 1.87 200.46C2.24 201.34 2.67 202.19 3.16 203.02C7.43 210.24 14.1 214.4 22.5 214.4L24.04 214.4C25 214.4 25.95 214.34 26.9 214.21C27.85 214.08 28.79 213.89 29.71 213.64C30.64 213.39 31.54 213.08 32.42 212.7C33.31 212.33 34.16 211.9 34.98 211.41C42.22 207.15 46.37 200.47 46.37 192.07L46.37 157.62C46.37 155.47 45.03 153.75 42.8 153.75L42.19 153.75C39.96 153.75 38.62 155.47 38.62 157.62L38.62 173.98ZM7.92 191.3C7.92 189.12 8.36 187.03 9.3 185.06C12.11 179.23 16.78 175.95 23.27 175.95C26.42 175.95 29.32 176.88 31.89 178.73C36.13 181.78 38.62 185.88 38.62 191.14C38.62 193.87 37.96 196.44 36.54 198.79C33.49 203.84 29.07 206.65 23.12 206.65C20.67 206.65 18.33 206.02 16.18 204.84C10.87 201.93 7.92 197.37 7.92 191.3ZM62.3 171.19C55.09 175.47 50.92 182.13 50.92 190.53L50.92 192.07C50.92 193.03 50.98 193.98 51.1 194.93C51.23 195.88 51.42 196.82 51.67 197.74C51.92 198.67 52.24 199.57 52.61 200.46C52.98 201.34 53.42 202.19 53.91 203.02C58.17 210.24 64.85 214.4 73.25 214.4L74.78 214.4C78.67 214.4 82.37 213.38 85.73 211.41C92.97 207.16 97.11 200.47 97.11 192.07L97.11 190.53C97.11 186.95 96.19 183.53 94.45 180.39C90.13 172.56 83.3 168.2 74.32 168.2L73.25 168.2C69.35 168.2 65.65 169.2 62.3 171.19ZM58.67 191.3C58.67 189.12 59.1 187.03 60.05 185.06C62.85 179.23 67.52 175.95 74.02 175.95C76.99 175.95 79.74 176.79 82.21 178.45C86.72 181.48 89.36 185.67 89.36 191.14C89.36 193.87 88.72 196.44 87.29 198.79C84.29 203.7 79.99 206.65 74.17 206.65C71.44 206.65 68.87 206 66.53 204.57C61.56 201.52 58.67 197.19 58.67 191.3ZM129.32 176.57C130.36 177.06 132.98 178.26 134.14 178.26L134.6 178.26L134.75 178.23C136.53 177.89 138.01 176.82 138.01 174.84L138.01 174.08C138.01 173.35 137.7 172.65 137.33 172.04L137.15 171.74L136.87 171.55C133.46 169.22 129.66 168.05 125.53 168.05L123.99 168.05C120.1 168.05 116.39 169.05 113.04 171.04C105.83 175.32 101.66 181.97 101.66 190.38L101.66 191.91C101.66 193.91 101.92 195.82 102.5 197.75C105.81 208.82 114.49 215.2 126.1 214.39C129.39 214.16 138.01 213.08 138.01 208.37L138.01 207.6C138.01 205.7 136.68 204.59 134.92 204.22L134.76 204.19L133.33 204.19L133.01 204.34C131.16 205.22 128.22 206.49 126.14 206.49C123.78 206.49 120.99 206.29 118.82 205.26C112.9 202.43 109.41 197.78 109.41 191.14C109.41 188.96 109.85 186.88 110.79 184.91C113.54 179.2 118.23 175.55 124.7 175.8C125.96 175.84 128.15 176.03 129.32 176.57ZM154.46 181.82L154.46 157.77C154.46 155.62 153.11 153.9 150.89 153.9L150.28 153.9C148.05 153.9 146.71 155.62 146.71 157.77L146.71 210.37C146.71 212.52 148.05 214.25 150.28 214.25L150.89 214.25C153.11 214.25 154.46 212.52 154.46 210.37L154.46 201.03L160.41 206.87C162.18 208.62 163.93 210.41 165.74 212.12C166.62 212.95 168.06 214.4 169.35 214.4L169.96 214.4C171.92 214.4 173.04 212.97 173.48 211.2L173.52 211.02L173.52 210.22C173.52 209.58 173.31 208.99 172.96 208.46C172.64 207.9 172.07 207.4 171.69 206.99C171.42 206.71 171.14 206.43 170.87 206.14C170.59 205.86 170.32 205.57 170.04 205.29C169.77 205.01 169.49 204.73 169.22 204.44C168.94 204.16 168.66 203.88 168.39 203.6C164.39 199.53 160.36 195.48 156.33 191.44L165.69 181.94C167.52 180.09 169.39 178.27 171.17 176.38C172.01 175.49 173.52 173.99 173.52 172.69L173.52 171.93C173.52 170.03 172.2 168.91 170.43 168.54L170.27 168.51L168.89 168.51C167.62 168.51 164.39 172.01 163.54 172.83C160.49 175.8 157.47 178.81 154.46 181.82ZM251.04 168.51C246.52 168.51 242.29 169.88 238.6 172.49C232.42 176.85 228.71 183.07 228.71 190.68L228.71 210.52C228.71 212.67 230.05 214.4 232.28 214.4L232.89 214.4C235.12 214.4 236.46 212.67 236.46 210.52L236.46 191.76C236.46 187.61 237.77 183.83 240.76 180.88C243.16 178.52 246.48 176.41 249.96 176.41C252.61 176.41 255.68 175.59 255.68 172.38C255.68 170.07 254.13 168.51 251.81 168.51L251.04 168.51L251.04 168.51ZM195.96 205.68C201.1 201.24 206.23 196.79 211.38 192.35C213.68 190.36 216.11 188.13 218.52 186.27C220.59 184.67 222.6 182.33 221.05 179.65L220.66 178.98C218.53 175.28 215.43 172.47 211.61 170.59C204.5 167.08 197.08 166.81 190.16 170.8L189.1 171.42C186.29 173.04 183.89 175.11 182.05 177.8C176.73 185.57 176.09 194.17 180.81 202.34L181.27 203.14C183.25 206.57 185.93 209.38 189.43 211.27C196.76 215.23 204.58 215.82 211.93 211.58L212.59 211.2C214.58 210.05 215.07 208.01 214.06 205.98C213.62 205.12 212.81 204.53 211.96 204.12L211.76 204.02L211.55 203.98C210.15 203.74 206.37 205.39 204.89 206.02C202 206.53 198.78 206.67 195.96 205.68ZM187.8 198.95C186.52 196.9 185.87 194.57 185.79 192.15C185.59 186.01 187.88 181.08 193.24 177.98C197.34 175.61 201.75 175.04 206.22 176.74C208.43 177.59 211.04 179.01 212.6 180.97C210.65 182.75 208.5 184.5 206.54 186.19C200.81 191.14 195.06 196.08 189.31 201.01C188.76 200.36 188.26 199.68 187.8 198.95ZM147.49 0L120.05 0L120.05 22.87L74.31 22.87L74.31 45.73L51.45 45.73L51.45 69.11L31.9 69.11L31.57 72.56C30.5 84.11 32.08 95.66 36.85 106.2L38.91 110.38L39.14 110.77C53.24 134.73 78.01 144.82 105.01 144.82C157.27 144.82 200.37 121.48 220.17 72.17C233.4 72.86 246.93 68.95 253.41 56.31L255.06 53.09L251.92 51.28C244.26 46.86 234.07 46.25 225.39 48.81C224.32 39.58 218.25 31.48 211.04 25.69L208.18 23.39L205.77 26.17C200.95 31.75 199.51 41.04 200.17 48.17C200.65 53.42 202.3 58.74 205.53 62.95C203.07 64.43 200.29 65.6 197.8 66.44C192.75 68.16 187.25 69.11 181.91 69.11L170.35 69.11L170.35 45.73L147.49 45.73L147.49 0Z" />
		<path id="Shape 1" class="shp0" d="M386 99" />
		<path id="Layer" fill-rule="evenodd" class="shp1" d="M221.57 54.38C223.1 42.46 214.19 33.11 208.66 28.66C202.28 36.03 201.29 55.34 211.29 63.47C205.71 68.42 193.95 72.92 181.91 72.92L35.37 72.92C34.2 85.48 36.41 97.06 41.45 106.96L43.11 110.01C43.38 110.46 43.65 110.9 43.92 111.34C44.2 111.78 44.48 112.22 44.77 112.65C45.06 113.08 45.35 113.51 45.65 113.94C45.95 114.36 46.26 114.78 46.57 115.2C52.59 115.58 58.15 115.72 63.23 115.6L63.23 115.6C73.22 115.38 81.37 114.2 87.54 112.06C87.98 111.93 88.45 111.97 88.86 112.17C89.27 112.38 89.58 112.74 89.73 113.17C89.88 113.6 89.86 114.07 89.66 114.49C89.47 114.9 89.12 115.23 88.7 115.39C87.87 115.68 87.02 115.94 86.13 116.19L86.13 116.19C81.27 117.58 76.05 118.52 69.33 118.93C69.73 118.94 68.91 118.99 68.91 118.99C68.68 119.01 68.39 119.04 68.16 119.05C65.51 119.2 62.65 119.23 59.73 119.23C56.54 119.23 53.39 119.17 49.87 118.99L49.78 119.05C61.99 132.78 81.08 141.01 105.01 141.01C155.66 141.01 198.62 118.56 217.65 68.15C231.14 69.54 244.11 66.09 250.01 54.58C240.62 49.15 228.53 50.88 221.57 54.38" />
		<path id="Layer" fill-rule="evenodd" class="shp2" d="M221.57 54.38C223.1 42.46 214.19 33.11 208.66 28.66C202.28 36.03 201.29 55.34 211.29 63.47C205.71 68.42 193.95 72.92 181.91 72.92L44.05 72.92C43.45 92.16 50.59 106.77 63.23 115.6L63.23 115.6C73.22 115.38 81.37 114.2 87.54 112.06C87.98 111.93 88.45 111.97 88.86 112.17C89.27 112.38 89.58 112.74 89.73 113.17C89.88 113.6 89.86 114.07 89.66 114.49C89.47 114.9 89.12 115.23 88.7 115.39C87.87 115.68 87.02 115.94 86.13 116.19L86.13 116.19C81.27 117.58 75.61 118.64 68.88 119.05C68.88 119.05 68.71 118.9 68.71 118.9C85.95 127.74 110.94 127.71 139.6 116.7C171.73 104.36 201.63 80.84 222.49 53.94C222.17 54.09 221.87 54.23 221.57 54.38" />
		<path id="Layer" fill-rule="evenodd" class="shp3" d="M35.65 88.19C36.55 94.92 38.53 101.22 41.45 106.96L43.11 110.01C43.38 110.46 43.65 110.9 43.92 111.34C44.2 111.78 44.48 112.22 44.77 112.65C45.06 113.08 45.35 113.51 45.65 113.94C45.95 114.36 46.26 114.78 46.57 115.2C52.59 115.58 58.15 115.72 63.23 115.6C73.22 115.38 81.37 114.2 87.54 112.06C87.98 111.93 88.45 111.97 88.86 112.17C89.27 112.38 89.58 112.74 89.73 113.17C89.88 113.6 89.86 114.07 89.66 114.49C89.47 114.9 89.12 115.23 88.7 115.39C87.87 115.68 87.02 115.94 86.13 116.19L86.13 116.19C81.27 117.58 75.64 118.58 68.91 118.99C68.68 119.01 68.27 119.01 68.04 119.02C65.39 119.17 62.57 119.26 59.64 119.26C56.45 119.26 53.18 119.2 49.66 119.02C61.87 132.75 81.08 141.01 105.01 141.01C148.37 141.01 186.1 124.55 207.99 88.19L35.65 88.19Z" />
		<path id="Layer" fill-rule="evenodd" class="shp4" d="M45.37 88.19C47.96 100.01 54.19 109.29 63.23 115.6C73.22 115.38 81.37 114.2 87.54 112.06C87.98 111.93 88.45 111.97 88.86 112.17C89.27 112.38 89.58 112.74 89.73 113.17C89.88 113.6 89.86 114.07 89.66 114.49C89.47 114.9 89.12 115.23 88.7 115.39C87.87 115.68 87.02 115.94 86.13 116.2L86.13 116.2C81.27 117.58 75.52 118.58 68.79 118.99C86.02 127.83 110.94 127.71 139.6 116.7C156.93 110.04 173.61 100.13 188.58 88.19L45.37 88.19Z" />
		<path id="Layer" fill-rule="evenodd" class="shp5" d="M55.26 49.54L75.08 49.54L75.08 69.36L55.26 69.36L55.26 49.54ZM56.91 67.71L58.48 67.71L58.48 51.2L56.91 51.2L56.91 67.71ZM59.85 51.2L59.85 67.71L61.48 67.71L61.48 51.2L59.85 51.2ZM62.85 67.71L64.48 67.71L64.48 51.2L62.85 51.2L62.85 67.71ZM65.86 67.71L67.48 67.71L67.48 51.2L65.86 51.2L65.86 67.71ZM68.86 67.71L70.49 67.71L70.49 51.2L68.86 51.2L68.86 67.71ZM71.86 67.71L73.43 67.71L73.43 51.2L71.86 51.2L71.86 67.71ZM97.95 26.68L97.95 46.49L78.13 46.49L78.13 26.68L97.95 26.68ZM79.78 44.84L81.34 44.84L81.34 28.33L79.78 28.33L79.78 44.84ZM82.72 28.33L82.72 44.84L84.34 44.84L84.34 28.33L82.72 28.33ZM85.72 44.84L87.35 44.84L87.35 28.33L85.72 28.33L85.72 44.84ZM88.72 44.84L90.35 44.84L90.35 28.33L88.72 28.33L88.72 44.84ZM91.73 44.84L93.35 44.84L93.35 28.33L91.73 28.33L91.73 44.84ZM94.73 44.84L96.29 44.84L96.29 28.33L94.73 28.33L94.73 44.84Z" />
		<path id="Layer" fill-rule="evenodd" class="shp6" d="M97.95 49.54L97.95 69.36L78.13 69.36L78.13 49.54L97.95 49.54ZM79.78 67.71L81.34 67.71L81.34 51.2L79.78 51.2L79.78 67.71ZM82.72 51.2L82.72 67.71L84.34 67.71L84.34 51.2L82.72 51.2ZM85.72 67.71L87.35 67.71L87.35 51.2L85.72 51.2L85.72 67.71ZM88.72 67.71L90.35 67.71L90.35 51.2L88.72 51.2L88.72 67.71ZM91.73 67.71L93.35 67.71L93.35 51.2L91.73 51.2L91.73 67.71ZM94.73 67.71L96.29 67.71L96.29 51.2L94.73 51.2L94.73 67.71Z" />
		<path id="Layer" fill-rule="evenodd" class="shp5" d="M100.99 49.54L120.81 49.54L120.81 69.36L100.99 69.36L100.99 49.54ZM102.64 67.71L104.21 67.71L104.21 51.2L102.64 51.2L102.64 67.71ZM105.58 67.71L107.21 67.71L107.21 51.2L105.58 51.2L105.58 67.71ZM108.59 67.71L110.21 67.71L110.21 51.2L108.59 51.2L108.59 67.71ZM111.59 67.71L113.22 67.71L113.22 51.2L111.59 51.2L111.59 67.71ZM114.59 67.71L116.22 67.71L116.22 51.2L114.59 51.2L114.59 67.71ZM117.59 51.2L117.59 67.71L119.16 67.71L119.16 51.2L117.59 51.2Z" />
		<path id="Layer" fill-rule="evenodd" class="shp6" d="M100.99 26.68L120.81 26.68L120.81 46.49L100.99 46.49L100.99 26.68ZM102.64 44.84L104.21 44.84L104.21 28.33L102.64 28.33L102.64 44.84ZM105.58 44.84L107.21 44.84L107.21 28.33L105.58 28.33L105.58 44.84ZM108.59 44.84L110.21 44.84L110.21 28.33L108.59 28.33L108.59 44.84ZM111.59 44.84L113.22 44.84L113.22 28.33L111.59 28.33L111.59 44.84ZM114.59 44.84L116.22 44.84L116.22 28.33L114.59 28.33L114.59 44.84ZM117.59 28.33L117.59 44.84L119.16 44.84L119.16 28.33L117.59 28.33ZM123.86 49.54L143.68 49.54L143.68 69.36L123.86 69.36L123.86 49.54ZM125.51 67.71L127.07 67.71L127.07 51.2L125.51 51.2L125.51 67.71ZM128.45 67.71L130.08 67.71L130.08 51.2L128.45 51.2L128.45 67.71ZM131.45 67.71L133.08 67.71L133.08 51.2L131.45 51.2L131.45 67.71ZM134.46 67.71L136.08 67.71L136.08 51.2L134.46 51.2L134.46 67.71ZM137.46 67.71L139.09 67.71L139.09 51.2L137.46 51.2L137.46 67.71ZM140.46 67.71L142.03 67.71L142.03 51.2L140.46 51.2L140.46 67.71Z" />
		<path id="Layer" fill-rule="evenodd" class="shp5" d="M123.86 26.68L143.68 26.68L143.68 46.49L123.86 46.49L123.86 26.68ZM125.51 44.84L127.07 44.84L127.07 28.33L125.51 28.33L125.51 44.84ZM128.45 44.84L130.08 44.84L130.08 28.33L128.45 28.33L128.45 44.84ZM131.45 44.84L133.08 44.84L133.08 28.33L131.45 28.33L131.45 44.84ZM134.46 44.84L136.08 44.84L136.08 28.33L134.46 28.33L134.46 44.84ZM137.46 44.84L139.09 44.84L139.09 28.33L137.46 28.33L137.46 44.84ZM140.46 44.84L142.03 44.84L142.03 28.33L140.46 28.33L140.46 44.84Z" />
		<path id="Layer" fill-rule="evenodd" class="shp6" d="M123.86 3.81L143.68 3.81L143.68 23.63L123.86 23.63L123.86 3.81ZM125.51 21.98L127.07 21.98L127.07 5.46L125.51 5.46L125.51 21.98ZM128.45 21.98L130.08 21.98L130.08 5.46L128.45 5.46L128.45 21.98ZM131.45 21.98L133.08 21.98L133.08 5.46L131.45 5.46L131.45 21.98ZM134.46 21.98L136.08 21.98L136.08 5.46L134.46 5.46L134.46 21.98ZM137.46 21.98L139.09 21.98L139.09 5.46L137.46 5.46L137.46 21.98ZM140.46 21.98L142.03 21.98L142.03 5.46L140.46 5.46L140.46 21.98Z" />
		<path id="Layer" fill-rule="evenodd" class="shp5" d="M146.72 49.54L166.54 49.54L166.54 69.36L146.72 69.36L146.72 49.54ZM148.38 51.2L148.38 67.71L149.94 67.71L149.94 51.2L148.38 51.2ZM151.32 51.2L151.32 67.71L152.94 67.71L152.94 51.2L151.32 51.2ZM154.32 67.71L155.95 67.71L155.95 51.2L154.32 51.2L154.32 67.71ZM157.32 67.71L158.95 67.71L158.95 51.2L157.32 51.2L157.32 67.71ZM160.32 67.71L161.95 67.71L161.95 51.2L160.32 51.2L160.32 67.71ZM163.33 67.71L164.89 67.71L164.89 51.2L163.33 51.2L163.33 67.71Z" />
		<path id="Layer" fill-rule="evenodd" class="shp7" d="M96.7 101.49C98.17 101.47 99.58 102.04 100.62 103.07C101.66 104.1 102.25 105.5 102.24 106.96C102.24 108.42 101.66 109.83 100.62 110.85C99.57 111.88 98.16 112.45 96.7 112.43C95.26 112.41 93.89 111.82 92.88 110.8C91.87 109.78 91.31 108.4 91.31 106.96C91.31 105.52 91.88 104.14 92.89 103.12C93.89 102.1 95.27 101.51 96.7 101.49Z" />
		<path id="Layer" fill-rule="evenodd" class="shp8" d="M92.96 105.82C92.46 107.47 93.1 109.26 94.53 110.21C95.97 111.17 97.86 111.08 99.19 109.98C100.52 108.89 100.98 107.05 100.32 105.46C100.05 105.95 99.52 106.29 98.92 106.29C98.57 106.29 98.23 106.17 97.95 105.96C97.67 105.74 97.47 105.44 97.38 105.1C97.29 104.76 97.31 104.4 97.45 104.08C97.58 103.76 97.82 103.48 98.12 103.31C97.68 103.14 97.2 103.04 96.7 103.04C94.98 103.04 93.46 104.17 92.96 105.82ZM0 90.16C0 90.16 0 90.16 0 90.16L0 90.16M254.33 90.16C248.79 88.76 236.81 86.86 238.78 79.6C228.71 91.25 204.43 87.78 198.3 82.03C191.48 91.93 151.75 88.17 148.98 80.46C140.42 90.5 113.91 90.5 105.35 80.46C102.58 88.17 62.85 91.93 56.03 82.03C49.9 87.78 25.62 91.25 15.55 79.6C17.52 86.86 5.54 88.76 0 90.16L254.33 90.16Z" />
		<path id="Layer" fill-rule="evenodd" class="shp9" d="M111.24 140.89C97.7 134.46 90.27 125.73 86.13 116.2C81.1 117.63 75.06 118.55 68.03 118.94C65.39 119.09 62.6 119.17 59.68 119.17C56.31 119.17 52.76 119.07 49.04 118.87C61.46 131.28 76.73 140.83 105.01 141.01C107.1 141.01 109.17 140.97 111.24 140.89" />
		<path id="Layer" fill-rule="evenodd" class="shp7" d="M91.16 124.99C89.29 122.45 87.47 119.25 86.13 116.19C81.1 117.63 75.06 118.55 68.03 118.94C72.86 121.56 79.76 123.99 91.16 124.99" />
	</g>
</svg>