<svg xmlns="http://www.w3.org/2000/svg" viewBox="0 0 256 108" width="256" height="108">
	<style>
		tspan { white-space:pre }
		.shp0 { fill: #d2d2d2 } 
		.shp1 { fill: #de4c36 } 
	</style>
	<path id="Layer" fill-rule="evenodd" class="shp0" d="M175.67 47.8C175.67 59.09 166.82 65.7 154 65.7C150.75 65.7 147.8 65.29 145.97 64.79L142.61 70.18L152.58 70.79C170.18 71.91 180.55 72.42 180.55 85.94C180.55 97.65 170.28 104.25 152.58 104.25C134.16 104.25 127.14 99.57 127.14 91.54C127.14 86.96 129.18 84.52 132.74 81.16C129.38 79.74 128.26 77.2 128.26 74.45C128.26 72.21 129.38 70.18 131.22 68.24C133.05 66.31 135.08 64.38 137.52 62.14C132.54 59.7 128.77 54.41 128.77 46.88C128.77 35.18 136.5 27.15 152.07 27.15C156.44 27.15 159.09 27.55 161.43 28.16L181.27 28.16L181.27 36.81L171.91 37.52C173.74 39.86 175.67 43.12 175.67 47.8ZM139.15 89.3C139.15 93.37 144.34 94.6 151.46 94.6C157.36 94.6 165.4 94.18 165.4 88.7C165.4 85.43 161.53 85.23 156.64 84.93L141.79 83.91C140.47 85.54 139.15 87.27 139.15 89.3ZM143.22 46.58C143.22 51.56 145.97 55.02 152.68 55.02C158.38 55.02 162.24 51.66 162.24 46.37C162.24 40.37 158.78 37.21 152.98 37.21C147.39 37.21 143.22 39.96 143.22 46.58ZM199.17 19.03C193.37 19.03 190.01 15.67 190.01 9.87C190.01 4.08 193.36 0.92 199.17 0.92C205.07 0.92 208.42 4.08 208.42 9.87C208.42 15.67 205.07 19.03 199.17 19.03ZM186.04 72.14L191.23 71.43C192.66 71.22 192.86 70.92 192.86 69.39L192.86 39.48C192.86 38.36 192.55 37.65 191.53 37.35L186.04 35.41L187.16 27.17L208.22 27.17L208.22 69.39C208.22 71.02 208.32 71.22 209.85 71.43L215.04 72.14L215.04 80.17L186.04 80.17L186.04 72.14ZM255.27 76.23C250.89 78.36 244.48 80.3 238.68 80.3C226.57 80.3 222 75.42 222 63.92L222 37.26C222 36.65 222 36.25 221.18 36.25L214.06 36.25L214.06 27.19C223.02 26.17 226.57 21.69 227.69 10.61L237.36 10.61L237.36 25.05C237.36 25.77 237.36 26.07 238.17 26.07L252.52 26.07L252.52 36.24L237.36 36.24L237.36 60.56C237.36 66.56 238.79 68.9 244.28 68.9C247.13 68.9 250.08 68.19 252.52 67.27L255.27 76.23" />
	<path id="Layer" class="shp1" d="M104.53 49.53L58.01 3.02C57.38 2.38 56.62 1.87 55.79 1.53C54.95 1.18 54.06 1.01 53.16 1.01C52.26 1.01 51.37 1.18 50.54 1.53C49.7 1.87 48.95 2.38 48.31 3.02L38.65 12.68L50.9 24.93C51.62 24.69 52.37 24.54 53.12 24.51C53.88 24.47 54.64 24.54 55.37 24.71C56.11 24.88 56.82 25.15 57.48 25.52C58.14 25.89 58.75 26.35 59.29 26.88C59.82 27.42 60.28 28.03 60.65 28.7C61.02 29.36 61.3 30.08 61.47 30.82C61.64 31.56 61.7 32.33 61.66 33.09C61.62 33.85 61.47 34.6 61.22 35.32L73.03 47.13C75.89 46.14 79.18 46.78 81.47 49.06C82.22 49.82 82.82 50.72 83.24 51.71C83.65 52.7 83.86 53.76 83.86 54.84C83.86 55.91 83.65 56.97 83.24 57.96C82.82 58.95 82.22 59.85 81.47 60.61C80.13 61.94 78.37 62.78 76.5 62.96C74.62 63.15 72.73 62.68 71.16 61.63C69.59 60.58 68.43 59.03 67.88 57.22C67.33 55.41 67.42 53.47 68.14 51.73L57.13 40.72L57.13 69.7C57.33 69.79 57.52 69.9 57.71 70.02C57.9 70.13 58.09 70.25 58.27 70.38C58.45 70.51 58.63 70.65 58.8 70.79C58.97 70.93 59.13 71.08 59.29 71.24C60.05 72 60.65 72.9 61.06 73.89C61.47 74.88 61.68 75.94 61.68 77.01C61.68 78.09 61.47 79.15 61.06 80.14C60.65 81.13 60.05 82.03 59.29 82.79C56.1 85.98 50.93 85.98 47.74 82.79C46.79 81.84 46.09 80.66 45.7 79.38C45.31 78.09 45.24 76.73 45.51 75.41C45.77 74.09 46.36 72.86 47.21 71.82C48.07 70.78 49.17 69.97 50.41 69.46L50.41 40.21C50.16 40.11 49.92 39.99 49.68 39.87C49.44 39.74 49.21 39.6 48.99 39.45C48.76 39.3 48.55 39.14 48.34 38.97C48.13 38.8 47.93 38.62 47.74 38.43C45.33 36.01 44.74 32.47 45.98 29.5L33.91 17.42L2.01 49.31C1.37 49.95 0.87 50.71 0.52 51.54C0.18 52.37 0 53.27 0 54.17C0 55.07 0.18 55.96 0.52 56.79C0.87 57.63 1.37 58.38 2.01 59.02L48.53 105.53C49.16 106.17 49.92 106.68 50.75 107.02C51.59 107.37 52.48 107.54 53.38 107.54C54.28 107.54 55.17 107.37 56 107.02C56.84 106.68 57.59 106.17 58.23 105.53L104.53 59.24C105.17 58.6 105.67 57.84 106.02 57.01C106.36 56.18 106.54 55.28 106.54 54.38C106.54 53.48 106.36 52.59 106.02 51.76C105.67 50.92 105.17 50.17 104.53 49.53Z" />
</svg>