<svg xmlns="http://www.w3.org/2000/svg" viewBox="0 0 256 361" width="256" height="361">
	<style>
		tspan { white-space:pre }
		.shp0 { fill: none } 
		.shp1 { fill: #e44d26 } 
		.shp2 { fill: #f16529 } 
		.shp3 { fill: #ebebeb } 
		.shp4 { fill: #d2d2d2 } 
		.shp5 { fill: #ffffff } 
	</style>
	<g id="Layer">
		<path id="canvas_background" class="shp0" d="M-1 -1L581 -1L581 401L-1 401L-1 -1Z" />
	</g>
	<g id="Layer">
		<path id="svg_1" class="shp1" d="M255.56 70.77L232.31 331.13L127.84 360.09L23.66 331.17L0.45 70.77L255.56 70.77L255.56 70.77Z" />
		<path id="svg_2" class="shp2" d="M128 337.95L212.42 314.55L232.28 92.06L128 92.06L128 337.95L128 337.95Z" />
		<path id="svg_3" class="shp3" d="M82.82 155.93L128 155.93L128 123.99L47.92 123.99L48.68 132.56L56.53 220.57L128 220.57L128 188.64L85.74 188.64L82.82 155.93L82.82 155.93ZM90.02 236.54L57.96 236.54L62.43 286.69L127.85 304.85L128 304.81L128 271.58L127.86 271.62L92.29 262.01L90.02 236.54Z" />
		<path id="svg_4" class="shp4" d="M24.18 0L40.41 0L40.41 16.04L55.26 16.04L55.26 0L71.49 0L71.49 48.56L55.26 48.56L55.26 32.3L40.41 32.3L40.41 48.56L24.18 48.56L24.18 0L24.18 0L24.18 0ZM92.83 16.1L78.54 16.1L78.54 0L123.36 0L123.36 16.1L109.06 16.1L109.06 48.56L92.83 48.56L92.83 16.1L92.83 16.1L92.83 16.1L92.83 16.1ZM130.47 0L147.39 0L157.8 17.06L168.2 0L185.13 0L185.13 48.56L168.97 48.56L168.97 24.49L157.8 41.75L157.52 41.75L146.35 24.49L146.35 48.56L130.47 48.56L130.47 0L130.47 0ZM193.21 0L209.45 0L209.45 32.51L232.27 32.51L232.27 48.56L193.21 48.56L193.21 0L193.21 0L193.21 0Z" />
		<path id="svg_5" class="shp5" d="M127.89 220.57L167.22 220.57L163.51 261.99L127.89 271.61L127.89 304.83L193.36 286.69L193.84 281.29L201.35 197.21L202.13 188.64L127.89 188.64L127.89 220.57L127.89 220.57ZM127.89 155.85L127.89 155.93L205.03 155.93L205.67 148.75L207.13 132.56L207.89 124L127.89 124L127.89 155.86L127.89 155.85Z" />
		<path id="Shape 1" class="shp4" d="M455 -52" />
	</g>
</svg>