<svg xmlns="http://www.w3.org/2000/svg" viewBox="0 0 266 312" width="266" height="312">
	<style>
		tspan { white-space:pre }
		.shp0 { fill: #d2d2d2 } 
	</style>
	<g id="Layer">
		<path id="Layer" fill-rule="evenodd" class="shp0" d="M132.56 291.63C119.56 291.63 109.56 293.39 102.56 296.88L102.56 296.58C97.56 302.58 91.96 305.68 84.16 305.68C79.26 305.68 71.56 303.78 61.16 299.98C50.66 296.38 41.36 293.62 33.26 291.8C32.46 291.57 30.66 291.23 27.76 290.77C24.96 290.32 22.36 289.86 20.06 289.4C17.96 288.95 15.56 288.27 12.96 287.35C10.46 286.56 8.46 285.53 6.96 284.28C5.58 283.02 4.9 281.6 4.9 280.01C4.9 278.41 5.24 276.7 5.92 274.88C6.56 273.78 7.26 272.68 7.96 271.68C8.66 270.58 9.26 269.58 9.66 268.58C10.26 267.68 10.66 266.78 11.06 265.78C11.46 264.88 11.86 263.98 12.06 262.88C12.26 261.88 12.46 260.88 12.46 259.88C12.46 258.88 12.06 255.88 11.26 250.58C10.46 245.38 10.06 242.08 10.06 240.68C10.06 236.28 11.06 232.78 13.26 230.28C15.46 227.78 17.56 226.48 19.76 226.48L31.26 226.48C32.16 226.48 33.56 225.98 35.66 224.78C36.36 223.18 36.96 221.88 37.36 220.68C37.86 219.48 38.06 218.58 38.26 218.18C38.46 217.58 38.66 216.98 38.86 216.48C39.26 215.78 39.76 214.98 40.46 214.18C39.66 213.18 39.26 211.88 39.26 210.28C39.26 209.18 39.26 208.18 39.46 207.58C39.46 203.98 41.16 198.88 44.76 192.18L48.26 185.88C51.16 180.48 53.36 176.48 54.96 172.48C56.66 168.48 58.46 162.48 60.46 154.48C62.06 147.48 65.86 140.48 71.86 133.48L79.36 124.48C84.56 118.48 87.96 113.48 89.86 109.48C91.76 105.48 92.76 100.48 92.76 96.48C92.76 94.48 92.26 88.48 91.16 78.48C90.16 68.48 89.66 58.48 89.66 49.48C89.66 42.48 90.26 37.48 91.56 32.48C92.86 27.48 95.16 22.48 98.56 18.48C101.56 14.48 105.56 10.48 111.56 8.48C117.56 6.48 124.56 5.48 132.56 5.48C135.56 5.48 138.56 5.48 141.56 6.48C144.56 6.48 148.56 7.48 153.56 9.48C157.56 11.48 161.56 13.48 164.56 16.48C168.56 19.48 171.56 24.48 174.56 29.48C176.56 35.48 178.56 41.48 179.56 49.48C180.56 54.48 180.56 59.48 181.56 66.48C181.56 72.48 182.56 76.48 182.56 79.48C183.56 82.48 183.56 86.48 184.56 91.48C185.56 95.48 186.56 99.48 188.56 102.48C190.56 106.48 192.56 110.48 195.56 114.48C198.56 119.48 202.56 124.48 206.56 130.48C215.56 140.48 222.56 151.48 226.56 162.48C231.56 172.48 234.56 185.48 234.56 199.38C234.56 206.28 233.56 212.98 231.56 219.48C233.56 219.48 234.56 220.28 235.56 221.68C236.56 223.08 237.56 226.08 238.56 230.78L239.56 238.18C240.56 240.38 241.56 242.48 244.56 244.28C246.56 246.08 248.56 247.58 251.56 248.78C253.56 249.78 256.56 251.18 258.56 252.98C260.56 254.98 261.56 257.08 261.56 259.28C261.56 262.68 260.56 265.18 258.56 266.98C256.56 268.98 254.56 270.38 251.56 271.28C249.56 272.28 245.56 274.28 239.56 277.1C234.56 280.06 229.56 283.65 224.56 287.9L214.56 296.41C210.56 300.31 206.56 303.11 203.56 304.81C200.56 306.61 196.56 307.51 192.56 307.51L185.56 306.71C177.56 304.61 172.56 300.61 169.56 294.51C153.56 292.57 140.56 291.61 132.56 291.61M104.66 79.28C100.66 77.28 99.66 74.28 99.66 69.28C99.66 66.28 99.66 64.28 101.66 62.28C102.66 60.28 104.66 59.28 106.66 59.28C108.66 59.28 109.66 60.28 111.66 62.28C112.66 65.28 113.66 68.28 113.66 71.28L113.66 73.28L114.66 73.28L114.66 72.28C115.66 72.28 115.66 70.28 115.66 66.28C115.66 63.28 115.66 60.28 113.66 57.28C111.66 54.28 109.66 52.28 105.66 52.28C102.66 52.28 99.66 54.28 98.66 57.28C96.66 61.28 96.26 64.28 96.26 69.28C96.26 73.28 97.66 77.28 101.66 81.28C102.66 80.28 103.66 80.28 104.66 79.28ZM137.66 75.28C136.66 74.28 136.66 72.28 136.66 70.28C136.66 66.28 136.66 64.28 138.66 61.28C140.66 59.28 142.66 58.28 144.66 58.28C147.66 58.28 149.66 60.28 151.66 62.28C152.66 65.28 153.66 67.28 153.66 70.28C153.66 75.28 151.66 78.28 147.66 79.28C147.66 79.28 148.66 80.28 149.66 80.28C151.66 80.28 152.66 81.28 154.66 82.28C155.66 76.28 156.66 72.28 156.66 67.28C156.66 61.28 155.66 57.28 153.66 54.28C150.66 51.28 147.66 50.28 143.66 50.28C140.66 50.28 137.66 51.28 134.66 53.28C132.66 56.28 131.66 58.28 131.66 61.28C131.66 66.28 132.66 70.28 134.66 74.28C135.66 74.28 136.66 75.28 137.66 75.28ZM149.66 91.28C136.66 100.28 126.66 104.28 118.66 104.28C111.66 104.28 104.66 101.28 98.66 96.28C99.66 98.28 100.66 100.28 101.66 101.28L107.66 107.28C111.66 111.28 116.66 113.28 121.66 113.28C128.66 113.28 136.66 109.28 146.66 102.28L155.66 96.28C157.66 94.28 159.66 92.28 159.66 89.28C159.66 88.28 159.66 87.28 158.66 87.28C157.66 85.28 152.66 82.28 142.66 79.28C133.66 75.28 126.66 73.28 122.66 73.28C119.66 73.28 114.66 75.28 107.66 79.28C101.66 83.28 97.66 87.28 97.66 91.28C97.66 91.28 98.66 92.28 99.66 94.28C105.66 99.28 111.66 102.28 117.66 102.28C125.66 102.28 135.66 98.28 148.66 88.28L148.66 90.28C149.66 90.28 149.66 91.28 149.66 91.28ZM110.66 69.28C110.66 64.28 108.66 61.28 105.66 61.28C105.66 61.28 105.66 62.28 104.66 62.28L104.66 64.28L107.66 64.28C107.66 66.28 108.66 67.28 108.66 69.28L110.66 69.28ZM229.66 220.28C230.66 220.28 230.66 219.88 230.66 218.98C230.66 216.78 229.66 214.18 226.66 211.28C223.66 208.28 218.66 206.38 212.66 205.58C211.66 205.48 210.66 205.48 210.66 205.48C209.66 205.28 209.66 205.28 208.66 205.28C207.66 205.18 205.66 204.98 204.66 204.78C207.66 195.48 208.66 187.28 208.66 180.08C208.66 170.08 206.66 163.08 202.66 157.08C198.66 151.08 194.66 148.08 189.66 147.08C188.66 148.08 188.66 148.08 188.66 149.08C193.66 151.08 198.66 155.08 201.66 161.08C204.66 168.08 205.66 174.08 205.66 181.08C205.66 186.68 204.66 194.98 200.66 205.58C196.66 207.18 192.66 210.88 189.66 216.68C189.66 217.58 189.66 218.08 190.66 218.08C190.66 218.08 191.66 217.18 192.66 215.48C194.66 213.78 195.66 212.08 197.66 210.38C200.66 208.68 202.66 207.78 205.66 207.78C210.66 207.78 215.66 208.48 218.66 209.88C222.66 211.18 224.66 212.58 225.66 214.18C226.66 215.68 227.66 217.08 228.66 218.38C228.66 219.68 229.66 220.28 229.66 220.28ZM145.66 64.28C147.66 64.28 148.66 66.28 149.66 69.28L151.66 69.28C150.66 68.28 150.66 67.28 150.66 66.28C150.66 65.28 150.66 64.28 149.66 63.28C148.66 62.28 147.66 61.28 146.66 61.28C146.66 61.28 145.66 62.28 144.66 62.28C144.66 63.28 145.66 63.28 145.66 64.28ZM128.66 79.28C128.66 80.28 127.66 80.28 127.66 80.28L126.66 80.28C125.66 80.28 125.66 79.28 124.66 78.28C124.66 78.28 123.66 77.28 123.66 76.28C123.66 75.28 123.66 75.28 124.66 75.28L126.66 76.28C127.66 77.28 128.66 78.28 128.66 79.28ZM172.66 293.28C176.66 300.8 183.66 304.58 191.66 304.58C193.66 304.58 195.66 304.28 197.66 303.68C199.66 303.28 201.66 302.58 202.66 301.78C203.66 301.08 204.66 300.38 205.66 299.58C207.66 298.88 207.66 298.38 208.66 297.88L225.66 283.18C229.66 279.99 233.66 277.2 238.66 274.78C242.66 272.38 246.66 270.78 248.66 269.88C251.66 269.08 253.66 267.88 255.66 266.28C256.66 264.78 257.66 262.88 257.66 260.48C257.66 257.58 255.66 255.38 253.66 253.78C251.66 252.18 249.66 251.08 247.66 250.38C245.66 249.68 243.66 248.08 240.66 245.38C238.66 242.78 236.66 239.18 235.66 234.48L234.66 228.68C233.66 225.98 233.66 223.98 232.66 222.88C232.66 222.58 232.66 222.48 231.66 222.48C230.66 222.48 228.66 223.38 227.66 225.08C225.66 226.78 223.66 228.68 221.66 230.68C220.66 232.68 217.66 234.48 215.66 236.18C212.66 237.88 209.66 238.78 207.66 238.78C199.66 238.78 195.66 236.58 192.66 232.28C190.66 229.08 189.66 225.38 188.66 221.18C186.66 219.48 185.66 218.58 183.66 218.58C178.66 218.58 176.66 223.78 176.66 234.28L176.66 265.38C176.66 266.28 175.66 268.28 175.66 271.38C174.66 274.48 174.66 278 174.66 281.98L172.66 293.08L172.66 293.25M27.66 287.96C36.96 289.32 47.66 292.23 59.76 296.67C71.86 301.07 79.26 303.37 81.96 303.37C88.96 303.37 94.76 300.27 99.56 294.28C100.56 292.34 100.56 290.06 100.56 287.44C100.56 277.99 94.86 266.04 83.46 251.54L76.66 242.44C75.26 240.54 73.56 237.64 71.36 233.74C69.26 229.84 67.36 226.84 65.86 224.74C64.56 222.44 62.46 220.14 59.76 217.84C57.16 215.54 54.16 214.04 50.86 213.24C46.66 214.04 43.76 215.44 42.36 217.34C40.96 219.24 40.16 221.34 39.96 223.54C39.66 225.64 39.06 227.04 38.06 227.74C37.06 228.34 35.36 228.84 33.06 229.34C32.56 229.34 31.66 229.34 30.36 229.44L27.66 229.44C22.36 229.44 18.76 230.04 16.86 231.04C14.36 233.94 13.06 237.24 13.06 240.74C13.06 242.34 13.46 245.04 14.26 248.84C15.06 252.54 15.46 255.54 15.46 257.64C15.46 261.74 14.26 265.84 11.76 269.94C9.26 274.24 7.96 277.44 7.96 279.72C8.96 283.6 15.56 286.33 27.66 287.93M60.96 197.03C60.96 190.13 62.76 182.53 66.46 173.53C70.06 164.53 73.66 158.53 77.16 154.53C76.96 153.53 76.46 153.53 75.66 153.53L74.66 152.53C71.76 155.53 68.26 162.53 64.06 172.53C59.86 181.53 57.66 189.83 57.66 195.93C57.66 200.43 58.76 204.33 60.76 207.73C62.96 211.03 68.26 215.83 76.66 221.93L87.26 228.83C98.56 238.63 104.56 245.43 104.56 249.43C104.56 251.53 103.56 253.63 100.56 255.93C98.56 258.33 95.86 259.53 93.56 259.53C93.36 259.53 93.26 259.73 93.26 260.23C93.26 260.33 94.26 262.33 96.36 266.23C100.56 271.93 109.56 274.73 121.56 274.73C143.56 274.73 160.56 265.73 173.56 247.73C173.56 242.73 173.56 239.63 172.56 238.33L172.56 234.63C172.56 228.13 173.56 223.23 175.56 220.03C177.56 216.83 179.56 215.33 182.56 215.33C184.56 215.33 186.56 216.03 188.56 217.53C189.56 209.83 189.56 203.13 189.56 197.13C189.56 188.03 189.56 180.53 187.56 173.53C186.56 167.53 184.56 162.53 182.56 158.53C180.56 155.53 178.56 152.53 176.56 149.53C174.56 146.53 173.56 143.53 171.56 140.53C170.56 136.53 169.56 133.53 169.56 128.53C166.56 123.53 164.56 118.53 161.56 113.53C159.56 108.53 157.56 103.53 155.56 99.53L146.56 106.53C136.56 113.53 128.56 116.53 121.56 116.53C115.56 116.53 110.56 115.53 107.56 111.53L101.56 106.53C101.56 109.53 100.56 113.53 98.56 117.53L92.26 129.53C89.46 136.53 87.96 140.53 87.66 143.53C87.26 145.53 86.96 147.53 86.76 147.53L79.26 162.53C71.16 177.53 67.06 191.43 67.06 202.93C67.06 205.23 67.26 207.63 67.66 210.03C63.16 206.93 60.96 202.63 60.96 197.03ZM115.66 80.28C114.66 80.28 114.66 80.28 114.66 79.28C114.66 78.28 114.66 77.28 115.66 76.28C117.66 76.28 118.66 75.28 118.66 75.28C119.66 75.28 119.66 76.28 119.66 76.28C119.66 77.28 118.66 78.28 116.66 80.28L115.66 80.28Z" />
	</g>
</svg>