<svg xmlns="http://www.w3.org/2000/svg" viewBox="0 0 512 146" width="512" height="146">
	<style>
		tspan { white-space:pre }
		.shp0 { fill: #ecbd84 } 
		.shp1 { fill: #ad7459 } 
		.shp2 { fill: #ffffff } 
		.shp3 { fill: #a6a385 } 
		.shp4 { fill: #499d4a } 
		.shp5 { fill: #58aa50 } 
	</style>
	<g id="Layer">
		<path id="Layer" fill-rule="evenodd" class="shp0" d="M457.89 55.39C458.81 55.39 461.58 55.66 468.69 55.66C475.42 55.66 480.77 55.48 487.33 55.48C495.35 55.48 506.43 58.34 506.43 70.34C506.43 76.24 502.27 80.95 496.83 83.26C496.56 83.35 496.56 83.53 496.83 83.62C504.58 85.56 511.41 90.36 511.41 99.4C511.41 108.26 505.88 113.89 497.85 117.4C492.96 119.52 486.87 120.26 480.68 120.26C475.98 120.26 463.33 119.71 456.32 119.89C455.58 119.61 456.97 116.29 457.61 115.74C459.27 115.65 460.56 115.55 462.32 115C464.81 114.36 465.09 113.62 465.46 109.83C465.64 106.6 465.64 95.16 465.64 87.04C465.64 75.87 465.73 68.31 465.64 64.62C465.55 61.76 464.53 60.83 462.5 60.28C460.93 60 458.35 59.63 456.23 59.36C455.77 58.89 457.33 55.76 457.89 55.39ZM481.61 87.5C481.05 87.5 477.18 87.41 476.25 87.59C475.98 87.69 475.61 87.87 475.61 88.15C475.61 94.7 475.51 105.13 475.79 109.19C475.98 110.94 477.27 113.43 478.84 114.17C480.5 115.09 484.28 115.28 486.87 115.28C494.16 115.28 500.52 111.22 500.52 101.71C500.52 92.58 493.79 87.5 481.61 87.5ZM475.79 62.12C475.7 65.81 475.61 75.6 475.61 82.24C475.61 82.43 475.88 82.8 476.16 82.8C477.54 82.89 480.87 82.98 483.73 82.98C487.69 82.98 490 82.43 491.29 81.87C494.62 80.21 496.18 76.61 496.18 72.64C496.18 63.69 489.91 60.28 480.59 60.28C479.94 60.19 478.1 60.19 476.71 60.46C476.25 60.55 475.79 61.57 475.79 62.12ZM383.69 55.39C385.45 55.39 392.18 55.66 395.41 55.66C401.23 55.66 405.38 55.39 416.36 55.39C425.59 55.39 433.34 57.88 438.88 62.58C445.61 68.4 449.12 76.43 449.12 86.21C449.12 100.14 442.75 108.17 436.39 112.79C430.02 117.49 421.71 120.26 409.9 120.26C403.63 120.26 392.83 120.08 383.88 119.98L383.79 119.98C383.33 119.15 384.52 115.92 385.26 115.83C387.66 115.55 388.31 115.46 389.51 115C391.45 114.26 391.82 113.25 392.09 109.83C392.37 103.47 392.28 95.81 392.28 87.13C392.28 80.95 392.37 68.86 392.18 64.98C391.91 61.75 390.52 60.92 387.75 60.37C386.37 60.09 384.52 59.72 381.94 59.45C381.57 58.8 383.23 55.94 383.69 55.39L383.69 55.39ZM404.64 112.79C406.86 114.54 411.19 115.28 415.07 115.28C420.05 115.28 425.04 114.36 429.83 110.02C434.73 105.59 438.14 98.76 438.14 87.87C438.14 77.44 434.17 68.95 426.05 63.97C421.44 61.11 415.53 59.91 408.7 59.91C406.67 59.91 404.73 60 403.54 60.55C403.26 60.74 402.61 61.57 402.61 62.03C402.43 63.88 402.43 78.09 402.43 86.39C402.43 94.98 402.43 106.97 402.61 108.36C402.61 109.74 403.26 111.86 404.64 112.79L404.64 112.79Z" />
		<path id="Shape 2" class="shp0" d="M-75 -158" />
		<path id="Layer" fill-rule="evenodd" class="shp1" d="M272.03 116.39C272.4 117.12 272.22 119.8 271.76 120.35C270.28 120.35 266.59 120.08 260.87 120.08C256.25 120.08 253.11 120.35 250.44 120.35C249.98 119.71 249.79 116.85 250.44 116.2C252.38 116.02 254.04 115.65 254.68 115.37C256.07 114.91 256.34 113.99 256.34 110.3C256.34 103.47 256.53 95.62 256.07 91.65C255.79 89.9 255.15 87.5 253.12 85.84C251.64 84.64 249.7 83.72 246.75 83.72C243.7 83.72 240.29 85.01 238.17 86.86C237.61 87.41 237.06 88.33 237.06 90.27C237.06 97.28 237.06 107.62 237.24 112.51C237.34 114.45 237.8 115.28 239.46 115.65C240.66 116.02 241.95 116.2 243.7 116.29C244.07 116.94 243.89 119.71 243.24 120.45C241.67 120.45 238.54 120.17 232.45 120.17C228.01 120.17 222.66 120.45 221.65 120.45C221.09 119.8 221.09 116.85 221.65 116.29C223.22 116.11 224.23 115.83 225.52 115.56L225.34 115.65C227 115.28 227.65 114.45 227.74 112.14C228.01 106.33 228.01 95.71 227.92 88.79C227.92 87.96 228.01 86.95 227.09 86.21C225.8 85.38 224.14 84.55 221.65 83.81L221.56 83.81C219.25 83.07 219.8 80.95 222.02 80.49C225.06 80.21 233.37 78.27 236.32 76.8C236.32 76.8 237.06 77.44 236.97 78.73C236.87 80.12 236.69 82.15 236.69 83.16C236.6 84.18 237.34 83.53 237.43 83.44C241.95 79.56 247.39 76.8 251.45 76.8C256.07 76.8 259.67 78.83 262.16 82.33C264.28 85.38 265.11 89.72 265.11 94.7C265.11 100.88 265.11 110.11 265.3 113.34C265.3 113.71 265.76 114.63 266.04 114.82C268.06 115.74 269.73 116.11 272.03 116.39ZM284.4 142.04C280.98 139.46 279.51 135.58 279.51 132.9C279.51 132.17 279.69 130.13 281.35 128.29C282.37 127.18 284.58 125.06 289.84 121.46C290.03 121.37 290.12 121.28 290.12 121.09C290.12 120.91 289.94 120.72 289.75 120.63C285.41 118.97 284.12 116.29 283.75 114.82L283.75 114.63C283.66 114.08 283.48 113.53 284.31 112.97C284.95 112.51 285.88 111.96 286.89 111.31C288.46 110.39 290.12 109.37 291.13 108.54C291.32 108.36 291.32 108.17 291.32 107.99C291.32 107.8 291.13 107.62 290.95 107.53C284.49 105.4 281.26 100.61 281.26 93.41C281.26 88.7 283.38 84.46 287.17 81.78C289.75 79.75 296.21 77.26 300.46 77.26L300.73 77.26C305.07 77.35 307.47 78.27 310.88 79.47C312.73 80.12 314.48 80.4 316.88 80.4C320.48 80.4 322.05 79.29 323.34 78C323.43 78.18 323.62 78.64 323.71 79.84C323.8 81.04 323.43 82.8 322.51 84.09C321.77 85.1 320.11 85.84 318.45 85.84L317.99 85.84C316.33 85.66 315.59 85.47 315.59 85.47L315.22 85.66C315.13 85.84 315.22 86.03 315.31 86.3L315.41 86.49C315.59 87.32 315.96 89.81 315.96 90.46C315.96 98.02 312.91 101.34 309.68 103.84C306.55 106.14 302.95 107.62 298.89 107.99C298.8 107.99 298.43 107.99 297.6 108.08C297.13 108.08 296.49 108.17 296.4 108.17L296.3 108.17C295.57 108.36 293.72 109.28 293.72 110.85C293.72 112.23 294.55 113.89 298.52 114.17C299.35 114.26 300.18 114.26 301.1 114.36C306.36 114.72 312.91 115.19 315.96 116.2C320.2 117.77 322.88 121.55 322.88 126.08C322.88 132.91 317.99 139.27 309.87 143.24C305.9 144.99 301.93 145.92 297.6 145.92C291.97 145.92 287.91 144.72 284.4 142.04ZM292.98 122.94C289.11 125.43 287.35 127.83 287.35 130.69C287.35 133.37 288.37 135.49 290.58 137.33C293.26 139.64 296.95 140.75 301.65 140.75C311.07 140.75 315.22 135.67 315.22 130.69C315.22 127.18 313.47 124.88 309.87 123.58C307.28 122.48 302.58 121.92 296.95 121.92C295.1 121.92 293.81 122.48 292.98 122.94ZM297.6 81.14C292.71 81.14 289.66 84.92 289.66 90.82C289.66 96.82 292.34 103.74 299.9 103.74C301.19 103.74 303.59 103.19 304.7 101.9C306.45 100.24 307.65 96.91 307.65 93.41C307.65 85.75 303.87 81.13 297.6 81.13L297.6 81.14ZM330.54 98.76C330.54 91.19 333.59 85.38 339.68 81.23C344.01 78.55 349.18 77.07 353.8 77.07C365.79 77.07 374.19 85.66 374.19 98.02C374.19 106.42 370.87 113.06 364.5 117.12C361.45 119.15 356.19 121.09 351.86 121.09L351.86 121.09C336.17 121.09 330.54 109.56 330.54 98.76ZM350.2 81.6C348.26 81.6 346.5 82.06 345.21 82.98C341.61 85.19 339.77 89.62 339.77 96.08C339.77 108.17 345.86 116.66 354.53 116.66C357.12 116.66 359.15 115.92 360.9 114.45C363.58 112.23 364.96 107.8 364.96 101.62C364.96 89.62 358.96 81.59 350.2 81.59L350.2 81.6ZM189.07 121.09C173.38 121.09 167.75 109.56 167.75 98.76C167.75 91.19 170.8 85.38 176.89 81.23C181.23 78.55 186.4 77.07 191.01 77.07C203.01 77.07 211.4 85.66 211.4 98.02C211.4 106.42 208.08 113.06 201.71 117.12C198.76 119.15 193.5 121.09 189.07 121.09ZM187.41 81.59C185.47 81.59 183.72 82.06 182.43 82.98C178.83 85.19 176.98 89.62 176.98 96.08C176.98 108.17 183.07 116.66 191.75 116.66C194.33 116.66 196.36 115.92 198.12 114.45C200.79 112.23 202.18 107.8 202.18 101.62C202.18 89.62 196.27 81.59 187.41 81.59ZM83.32 118.05C83.32 117.31 83.5 116.85 83.59 116.66C85.53 116.38 86.55 116.11 87.65 115.83C89.5 115.37 90.24 114.36 90.33 112.05C90.61 106.51 90.61 95.99 90.52 88.7L90.52 88.52C90.52 87.69 90.52 86.67 89.5 85.93C88.02 85.01 86.27 84.18 83.96 83.53C83.13 83.26 82.58 82.79 82.67 82.24C82.67 81.69 83.23 81.04 84.43 80.86C87.47 80.58 95.41 78.64 98.54 77.26C98.73 77.44 99.01 78 99.01 78.73L98.91 79.75C98.82 80.76 98.73 81.96 98.73 83.16C98.73 83.53 99.1 83.81 99.47 83.81C99.65 83.81 99.84 83.72 100.02 83.62C105.93 79.01 111.28 77.35 114.05 77.35C118.57 77.35 122.08 79.47 124.75 83.9C124.94 84.18 125.12 84.27 125.4 84.27C125.58 84.27 125.86 84.18 125.95 83.99C131.4 79.84 136.84 77.35 140.44 77.35C149.02 77.35 154.1 83.72 154.1 94.51C154.1 97.56 154.1 101.53 154 105.13C154 108.36 153.91 111.31 153.91 113.43C153.91 113.89 154.56 115.37 155.57 115.65C156.86 116.29 158.62 116.57 160.93 116.94L161.02 116.94C161.2 117.58 160.83 119.98 160.47 120.45C159.91 120.45 159.08 120.45 158.16 120.35C157.57 120.32 156.99 120.3 156.41 120.27C155.82 120.25 155.24 120.23 154.65 120.22C154.07 120.2 153.48 120.19 152.9 120.18C152.31 120.17 151.73 120.17 151.14 120.17C145.42 120.17 142.47 120.26 139.61 120.45C139.43 119.71 139.33 117.49 139.61 116.94C141.27 116.66 142.1 116.38 143.12 116.11C144.96 115.55 145.42 114.72 145.52 112.32C145.52 110.57 145.88 95.62 145.33 92.02C144.78 88.33 142.01 83.99 135.92 83.99C133.61 83.99 130.01 84.92 126.5 87.59C126.32 87.78 126.13 88.24 126.13 88.52L126.13 88.61C126.5 90.55 126.5 92.76 126.5 96.18L126.5 102.17C126.5 106.33 126.41 110.2 126.5 113.15C126.5 115.19 127.7 115.65 128.72 116.02C129.27 116.11 129.64 116.2 130.1 116.29C130.93 116.48 131.76 116.66 133.06 116.94C133.24 117.31 133.24 118.51 132.96 119.52C132.87 120.08 132.69 120.35 132.59 120.45C129.46 120.35 126.23 120.26 121.52 120.26C120.14 120.26 117.74 120.35 115.71 120.35C114.05 120.35 112.48 120.45 111.56 120.45C111.46 120.26 111.28 119.62 111.28 118.6C111.28 117.77 111.46 117.12 111.65 116.94C112.11 116.85 112.48 116.75 112.94 116.75C114.05 116.57 114.97 116.38 115.89 116.2C117.46 115.74 118.01 114.91 118.11 112.88C118.38 108.26 118.66 95.07 118.01 91.75C116.91 86.39 113.86 83.72 108.97 83.72C106.11 83.72 102.51 85.1 99.56 87.32C99.1 87.69 98.73 88.61 98.73 89.44L98.73 94.88C98.73 101.53 98.73 109.83 98.82 113.43C98.91 114.54 99.28 115.83 101.4 116.29C101.87 116.38 102.6 116.57 103.53 116.66L105.19 116.94C105.37 117.49 105.28 119.71 104.91 120.45C103.99 120.45 102.88 120.35 101.59 120.35C99.65 120.26 97.16 120.17 94.39 120.17C91.16 120.17 88.85 120.26 87.01 120.35C85.72 120.17 84.7 120.17 83.59 120.17C83.41 119.89 83.22 119.06 83.32 118.05Z" />
		<path id="Shape 1" class="shp1" d="M440 81" />
		<path id="Layer" fill-rule="evenodd" class="shp2" d="M35.05 142.32L31.27 141.02C31.27 141.02 31.73 121.74 24.81 120.35C20.2 115 25.55 -106.66 42.16 119.61C42.16 119.61 36.44 122.47 35.42 127.37C34.31 132.17 35.05 142.32 35.05 142.32L35.05 142.32Z" />
		<path id="Layer" fill-rule="evenodd" class="shp3" d="M35.05 142.32L31.27 141.02C31.27 141.02 31.73 121.74 24.81 120.35C20.2 115 25.55 -106.66 42.16 119.61C42.16 119.61 36.44 122.47 35.42 127.37C34.31 132.17 35.05 142.32 35.05 142.32L35.05 142.32Z" />
		<path id="Layer" fill-rule="evenodd" class="shp2" d="M37.08 123.68C37.08 123.68 70.21 101.9 62.46 56.59C54.99 23.64 37.36 12.85 35.42 8.69C33.3 5.74 31.27 0.57 31.27 0.57L32.66 92.21C32.66 92.3 29.79 120.26 37.09 123.68" />
		<path id="Layer" fill-rule="evenodd" class="shp4" d="M37.08 123.68C37.08 123.68 70.21 101.9 62.46 56.59C54.99 23.64 37.36 12.85 35.42 8.69C33.3 5.74 31.27 0.57 31.27 0.57L32.66 92.21C32.66 92.3 29.79 120.26 37.09 123.68" />
		<path id="Layer" fill-rule="evenodd" class="shp2" d="M29.33 124.88C29.33 124.88 -1.77 103.65 0.08 66.28C1.83 28.9 23.8 10.54 28.04 7.22C30.81 4.26 30.9 3.16 31.09 0.2C33.02 4.36 32.66 62.31 32.93 69.14C33.76 95.44 31.45 119.89 29.33 124.88Z" />
		<path id="Layer" fill-rule="evenodd" class="shp5" d="M29.33 124.88C29.33 124.88 -1.77 103.65 0.08 66.28C1.83 28.9 23.8 10.54 28.04 7.22C30.81 4.26 30.9 3.16 31.09 0.2C33.02 4.36 32.66 62.31 32.93 69.14C33.76 95.44 31.45 119.89 29.33 124.88Z" />
	</g>
</svg>