<svg xmlns="http://www.w3.org/2000/svg" viewBox="0 0 1330 446" width="1330" height="446">
	<style>
		tspan { white-space:pre }
		.shp0 { fill: none } 
		.shp1 { fill: #61dafb } 
		.shp2 { fill: #ffffff } 
	</style>
	<g id="Layer">
		<path id="canvas_background" class="shp0" d="M-1 -1L499.9 -1L499.9 446.3L-1 446.3L-1 -1Z" />
	</g>
	<g id="Layer">
		<g id="svg_1">
			<path id="svg_2" fill-rule="evenodd" class="shp1" d="M495.3 222.5C495.3 254.9 454.8 285.7 392.8 304.8C407.3 368.2 401 418.7 372.9 434.9C366.3 438.7 358.7 440.5 350.3 440.5C322.8 440.5 286.8 421.1 250.4 387.3C214 421.3 178 440.9 150.5 440.9C142.1 440.9 134.5 439.1 128 435.3C99.8 419.1 93.4 368.5 107.8 304.9C45.4 285.8 4.7 255 4.7 222.5C4.7 190.1 45.2 159.4 107.4 140.2C92.9 76.8 99.2 26.3 127.3 10.1C133.9 6.3 141.5 4.5 149.9 4.5L149.9 4.4C177.4 4.4 213.4 23.8 249.8 57.6C286.2 23.6 322.2 4 349.7 4L349.7 4.1C357.96 4.11 365.53 5.92 372 9.7C400.2 25.9 406.6 76.5 392.2 140.1C454.6 159.2 495.3 190 495.3 222.5ZM349.6 4.1L349.6 26.3C349.63 26.3 349.67 26.3 349.7 26.3L349.7 4.1C349.67 4.1 349.63 4.1 349.6 4.1ZM349.6 26.3C328.8 26.35 298.25 42.95 265.7 73.2C279.8 87.9 293.8 104.7 307.3 123.2C329.8 125.6 351.2 129.3 370.8 134.1C373 124 374.8 114.1 375.9 104.7C380.5 66.5 374.6 36.8 361 29C357.9 27.3 354.2 26.4 349.6 26.4L349.6 26.3ZM149.9 26.7L149.9 26.8C145.3 26.8 141.4 27.6 138.4 29.4C124.9 37.3 119.1 67 123.8 105.2C125 114.5 126.7 124.2 129 134.2C148.6 129.3 170 125.6 192.6 123.2C205.9 104.7 219.9 88 233.9 73.3C201.3 43.2 170.6 26.7 149.9 26.7ZM324.1 147.9C329 155.5 333.9 163.3 338.5 171.3C343.2 179.3 347.5 187.3 351.6 195.3C356.8 182 361.4 168.7 365.1 155.8C352 152.6 338.3 150 324.1 147.9ZM319.3 262.3C326.8 249.2 333.7 235.8 340 222.4C333.7 209 326.8 195.7 319.2 182.6C311.4 169.2 303.3 156.5 295 144.6C280.2 143.4 265.1 142.7 250 142.7C234.8 142.7 219.7 143.4 204.8 144.7C196.5 156.6 188.5 169.4 180.7 182.9C173.2 196 166.2 209.4 160 222.8C166.3 236.2 173.2 249.5 180.8 262.6C188.6 276 196.7 288.7 205 300.6C219.8 301.8 234.9 302.5 250 302.5C265.2 302.5 280.3 301.8 295.2 300.5C303.5 288.6 311.5 275.8 319.3 262.3ZM351.6 249.3C347.5 257.3 343.2 265.4 338.6 273.4C334 281.5 329.1 289.4 324.2 297.1C338.5 295 352.3 292.3 365.4 289.1C361.6 276.1 357 262.7 351.6 249.3ZM250.2 356C259.4 346.4 268.7 335.7 277.7 324C268.6 324.5 259.3 324.7 249.9 324.7C240.6 324.7 231.4 324.4 222.4 324C231.6 335.7 240.9 346.4 250.2 356ZM161.4 273.7C156.7 265.7 152.4 257.7 148.3 249.7C143.1 263 138.5 276.3 134.8 289.2C147.9 292.4 161.6 295 175.8 297.1C170.9 289.5 166.1 281.7 161.4 273.7ZM249.7 89C240.5 98.6 231.2 109.3 222.2 121C231.3 120.5 240.6 120.3 250 120.3C259.3 120.3 268.5 120.6 277.5 121C268.3 109.3 259 98.6 249.7 89ZM175.7 147.9C161.4 150 147.6 152.7 134.5 155.8C138.3 168.8 142.9 182.2 148.3 195.6C152.4 187.6 156.7 179.6 161.3 171.6C165.9 163.5 170.8 155.6 175.7 147.9ZM85.2 273.1C93.9 276.8 103.3 280.2 113.2 283.3C118.8 263.8 126.2 243.5 135.4 222.7C126.1 201.8 118.6 181.4 112.9 161.8C103.2 164.9 93.8 168.2 85.2 171.9C49.8 186.9 26.9 206.8 26.9 222.5C26.9 238.2 49.8 258 85.2 273.1ZM139 416C142 417.7 145.8 418.6 150.3 418.7C171.1 418.7 201.7 402.1 234.3 371.8C220.2 357.1 206.2 340.3 192.7 321.8C170.2 319.4 148.8 315.7 129.2 310.9C127 321 125.2 330.9 124.1 340.3C119.5 378.5 125.4 408.2 139 416ZM376.2 339.8C375.1 330.5 373.3 320.8 371 310.7C351.4 315.6 330 319.3 307.4 321.7C294.1 340.2 280.1 356.9 266.1 371.6C298.7 401.7 329.4 418.2 350.1 418.2C354.7 418.2 358.6 417.4 361.6 415.6C375.1 407.7 380.9 378 376.2 339.8ZM414.7 273.1C450.1 258.1 473 238.2 473.1 222.5C473.1 206.8 450.2 187 414.8 171.9C406 168.2 396.6 164.8 386.7 161.7C381.1 181.2 373.7 201.5 364.5 222.3C373.8 243.2 381.3 263.6 387 283.2C396.7 280.1 406.1 276.8 414.7 273.1Z" />
			<path id="svg_3" class="shp1" d="M149.8 4.4L149.8 4.4L149.8 4.4L149.8 4.4Z" />
			<path id="svg_4" class="shp1" d="M249.9 268.2C224.63 268.2 204.2 247.77 204.2 222.5C204.2 197.23 224.63 176.8 249.9 176.8C275.17 176.8 295.6 197.23 295.6 222.5C295.6 247.77 275.17 268.2 249.9 268.2Z" />
			<path id="svg_5" class="shp1" d="M349.5 4.1L349.5 4.1L349.5 4.1L349.5 4.1Z" />
		</g>
		<path id="React.js " fill-rule="evenodd" class="shp2" d="M623.67 150.9C644.67 150.9 660.77 154.67 671.94 162.21C683.12 169.62 688.71 181.2 688.71 196.95C688.71 206.78 686.42 214.8 681.84 220.99C677.4 227.05 670.93 231.83 662.45 235.33C665.28 238.84 668.24 242.88 671.34 247.45C674.44 251.9 677.47 256.61 680.43 261.59C683.53 266.44 686.49 271.56 689.32 276.95C692.14 282.2 694.77 287.38 697.19 292.5L661.84 292.5C659.29 287.92 656.66 283.28 653.97 278.56C651.41 273.85 648.71 269.27 645.89 264.83C643.19 260.38 640.5 256.21 637.81 252.3C635.11 248.26 632.42 244.63 629.73 241.39L614.17 241.39L614.17 292.5L582.66 292.5L582.66 154.53C589.53 153.19 596.6 152.24 603.87 151.71C611.28 151.17 617.88 150.9 623.67 150.9ZM625.48 177.76C623.19 177.76 621.11 177.83 619.22 177.97C617.47 178.1 615.79 178.24 614.17 178.37L614.17 216.35L623.06 216.35C634.91 216.35 643.39 214.86 648.51 211.9C653.63 208.94 656.19 203.89 656.19 196.75C656.19 189.88 653.56 185.04 648.31 182.21C643.19 179.25 635.58 177.76 625.48 177.76ZM705.27 240.18C705.27 230.76 706.69 222.54 709.52 215.54C712.48 208.4 716.32 202.48 721.03 197.76C725.74 193.05 731.13 189.48 737.19 187.06C743.38 184.63 749.71 183.42 756.18 183.42C771.26 183.42 783.18 188.07 791.93 197.36C800.69 206.52 805.06 220.05 805.06 237.96C805.06 239.71 804.99 241.66 804.86 243.82C804.73 245.84 804.59 247.66 804.46 249.27L736.18 249.27C736.85 255.47 739.75 260.38 744.87 264.02C749.98 267.65 756.85 269.47 765.47 269.47C770.99 269.47 776.38 269 781.63 268.06C787.02 266.98 791.39 265.7 794.76 264.22L798.8 288.66C797.18 289.47 795.03 290.28 792.34 291.09C789.64 291.89 786.61 292.63 783.25 293.31C780.01 293.85 776.51 294.32 772.74 294.72C768.97 295.13 765.2 295.33 761.43 295.33C751.87 295.33 743.52 293.91 736.38 291.09C729.38 288.26 723.52 284.42 718.81 279.57C714.23 274.59 710.8 268.73 708.51 262C706.35 255.26 705.27 247.99 705.27 240.18ZM736.18 228.67L775.97 228.67C775.84 226.11 775.37 223.62 774.56 221.19C773.89 218.77 772.74 216.62 771.13 214.73C769.64 212.84 767.69 211.3 765.27 210.08C762.98 208.87 760.08 208.27 756.58 208.27C753.22 208.27 750.32 208.87 747.9 210.08C745.47 211.16 743.45 212.64 741.84 214.53C740.22 216.41 738.94 218.64 738 221.19C737.19 223.62 736.58 226.11 736.18 228.67ZM866.47 183.42C875.36 183.42 882.76 184.43 888.69 186.45C894.62 188.47 899.33 191.37 902.83 195.14C906.47 198.91 909.02 203.49 910.51 208.87C911.99 214.26 912.73 220.25 912.73 226.85L912.73 289.47C908.42 290.41 902.43 291.56 894.75 292.9C887.07 294.12 877.78 294.72 866.87 294.72C860.01 294.72 853.74 294.12 848.09 292.9C842.57 291.69 837.79 289.74 833.75 287.05C829.71 284.22 826.61 280.58 824.45 276.14C822.3 271.69 821.22 266.24 821.22 259.78C821.22 253.58 822.43 248.33 824.86 244.02C827.42 239.71 830.78 236.28 834.96 233.72C839.13 231.16 843.91 229.34 849.3 228.26C854.69 227.05 860.28 226.45 866.07 226.45C869.97 226.45 873.41 226.65 876.37 227.05C879.47 227.32 881.96 227.73 883.84 228.26L883.84 225.44C883.84 220.32 882.29 216.21 879.2 213.11C876.1 210.02 870.71 208.47 863.04 208.47C857.92 208.47 852.87 208.87 847.89 209.68C842.9 210.35 838.59 211.36 834.96 212.71L831.12 188.47C832.87 187.93 835.03 187.39 837.58 186.85C840.28 186.18 843.17 185.64 846.27 185.24C849.37 184.7 852.6 184.3 855.97 184.03C859.47 183.62 862.97 183.42 866.47 183.42ZM868.89 271.49C871.86 271.49 874.68 271.42 877.38 271.29C880.07 271.16 882.23 270.95 883.84 270.68L883.84 247.86C882.63 247.59 880.81 247.32 878.39 247.05C875.96 246.78 873.74 246.65 871.72 246.65C868.89 246.65 866.2 246.85 863.64 247.25C861.22 247.52 859.06 248.13 857.18 249.07C855.29 250.01 853.81 251.29 852.73 252.91C851.66 254.52 851.12 256.54 851.12 258.97C851.12 263.68 852.67 266.98 855.76 268.87C859 270.62 863.37 271.49 868.89 271.49ZM934.95 239.37C934.95 231.7 936.16 224.49 938.58 217.76C941.14 210.89 944.78 204.97 949.49 199.98C954.21 194.87 959.93 190.83 966.66 187.86C973.4 184.9 981.07 183.42 989.69 183.42C995.35 183.42 1000.53 183.96 1005.24 185.04C1009.96 185.98 1014.54 187.39 1018.98 189.28L1012.72 213.32C1009.89 212.24 1006.79 211.3 1003.43 210.49C1000.06 209.68 996.29 209.28 992.11 209.28C983.23 209.28 976.56 212.04 972.12 217.56C967.81 223.08 965.65 230.35 965.65 239.37C965.65 248.94 967.67 256.34 971.71 261.59C975.89 266.85 983.09 269.47 993.33 269.47C996.96 269.47 1000.87 269.14 1005.04 268.46C1009.22 267.79 1013.05 266.71 1016.56 265.23L1020.8 289.87C1017.3 291.36 1012.92 292.63 1007.67 293.71C1002.42 294.79 996.63 295.33 990.3 295.33C980.6 295.33 972.25 293.91 965.25 291.09C958.25 288.12 952.45 284.15 947.88 279.17C943.43 274.19 940.13 268.33 937.98 261.59C935.96 254.73 934.95 247.32 934.95 239.37ZM1039.99 249.07L1039.99 159.79L1070.09 154.94L1070.09 186.25L1106.24 186.25L1106.24 211.3L1070.09 211.3L1070.09 248.67C1070.09 255 1071.16 260.05 1073.32 263.82C1075.61 267.59 1080.12 269.47 1086.85 269.47C1090.08 269.47 1093.38 269.2 1096.75 268.66C1100.25 267.99 1103.42 267.12 1106.24 266.04L1110.49 289.47C1106.85 290.95 1102.81 292.23 1098.37 293.31C1093.92 294.39 1088.47 294.92 1082 294.92C1073.79 294.92 1066.99 293.85 1061.6 291.69C1056.22 289.4 1051.91 286.31 1048.67 282.4C1045.44 278.36 1043.15 273.51 1041.81 267.86C1040.59 262.2 1039.99 255.94 1039.99 249.07ZM1163.61 276.54C1163.61 282.6 1161.66 287.25 1157.75 290.48C1153.98 293.58 1149.67 295.13 1144.83 295.13C1139.98 295.13 1135.6 293.58 1131.7 290.48C1127.93 287.25 1126.04 282.6 1126.04 276.54C1126.04 270.48 1127.93 265.9 1131.7 262.81C1135.6 259.57 1139.98 257.96 1144.83 257.96C1149.67 257.96 1153.98 259.57 1157.75 262.81C1161.66 265.9 1163.61 270.48 1163.61 276.54ZM1173.91 329.87C1172.03 329.87 1169.2 329.67 1165.43 329.26C1161.79 328.86 1158.36 328.12 1155.13 327.04L1159.17 302.6C1161.19 303.27 1163.01 303.74 1164.62 304.01C1166.37 304.28 1168.53 304.42 1171.09 304.42C1175.8 304.42 1179.1 303 1180.98 300.18C1182.87 297.35 1183.81 293.24 1183.81 287.85L1183.81 186.25L1213.91 186.25L1213.91 288.66C1213.91 302.67 1210.48 313.04 1203.61 319.77C1196.74 326.5 1186.84 329.87 1173.91 329.87ZM1216.74 155.54C1216.74 161.07 1214.92 165.44 1211.28 168.67C1207.78 171.77 1203.61 173.32 1198.76 173.32C1193.91 173.32 1189.67 171.77 1186.03 168.67C1182.53 165.44 1180.78 161.07 1180.78 155.54C1180.78 150.02 1182.53 145.71 1186.03 142.62C1189.67 139.38 1193.91 137.77 1198.76 137.77C1203.61 137.77 1207.78 139.38 1211.28 142.62C1214.92 145.71 1216.74 150.02 1216.74 155.54ZM1272.69 270.89C1278.21 270.89 1282.12 270.35 1284.41 269.27C1286.7 268.19 1287.84 266.11 1287.84 263.01C1287.84 260.58 1286.36 258.5 1283.4 256.75C1280.44 254.86 1275.92 252.77 1269.86 250.48C1265.15 248.73 1260.84 246.92 1256.94 245.03C1253.17 243.14 1249.93 240.92 1247.24 238.36C1244.55 235.67 1242.46 232.51 1240.98 228.87C1239.5 225.23 1238.76 220.86 1238.76 215.74C1238.76 205.77 1242.46 197.9 1249.87 192.11C1257.27 186.32 1267.44 183.42 1280.37 183.42C1286.83 183.42 1293.03 184.03 1298.95 185.24C1304.88 186.32 1309.59 187.53 1313.09 188.87L1307.84 212.31C1304.34 211.09 1300.5 210.02 1296.33 209.07C1292.29 208.13 1287.71 207.66 1282.59 207.66C1273.16 207.66 1268.45 210.29 1268.45 215.54C1268.45 216.75 1268.65 217.83 1269.06 218.77C1269.46 219.71 1270.27 220.66 1271.48 221.6C1272.69 222.41 1274.31 223.35 1276.33 224.43C1278.48 225.37 1281.18 226.45 1284.41 227.66C1291.01 230.08 1296.46 232.51 1300.77 234.93C1305.08 237.22 1308.45 239.78 1310.87 242.61C1313.43 245.3 1315.18 248.33 1316.12 251.7C1317.2 255.06 1317.74 258.97 1317.74 263.41C1317.74 273.92 1313.77 281.86 1305.82 287.25C1298.01 292.63 1286.9 295.33 1272.49 295.33C1263.06 295.33 1255.19 294.52 1248.86 292.9C1242.66 291.29 1238.35 289.94 1235.93 288.86L1240.98 264.42C1246.1 266.44 1251.35 268.06 1256.73 269.27C1262.12 270.35 1267.44 270.89 1272.69 270.89Z" />
	</g>
</svg>
