<svg xmlns="http://www.w3.org/2000/svg" viewBox="0 0 1330 446" width="1330" height="446">
	<style>
		tspan { white-space:pre }
		.shp0 { fill: none } 
		.shp1 { fill: #61dafb } 
		.txt2 { font-size: 202px;fill: #000000;font-family: "Ubuntu";font-weight: 700 } 
	</style>
	<g id="Layer">
		<path id="canvas_background" class="shp0" d="M-1 -1L499.9 -1L499.9 446.3L-1 446.3L-1 -1Z" />
	</g>
	<g id="Layer">
		<g id="svg_1">
			<path id="svg_2" fill-rule="evenodd" class="shp1" d="M495.3 222.5C495.3 254.9 454.8 285.7 392.8 304.8C407.3 368.2 401 418.7 372.9 434.9C366.3 438.7 358.7 440.5 350.3 440.5C322.8 440.5 286.8 421.1 250.4 387.3C214 421.3 178 440.9 150.5 440.9C142.1 440.9 134.5 439.1 128 435.3C99.8 419.1 93.4 368.5 107.8 304.9C45.4 285.8 4.7 255 4.7 222.5C4.7 190.1 45.2 159.4 107.4 140.2C92.9 76.8 99.2 26.3 127.3 10.1C133.9 6.3 141.5 4.5 149.9 4.5L149.9 4.4C177.4 4.4 213.4 23.8 249.8 57.6C286.2 23.6 322.2 4 349.7 4L349.7 4.1C357.96 4.11 365.53 5.92 372 9.7C400.2 25.9 406.6 76.5 392.2 140.1C454.6 159.2 495.3 190 495.3 222.5ZM349.6 4.1L349.6 26.3C349.63 26.3 349.67 26.3 349.7 26.3L349.7 4.1C349.67 4.1 349.63 4.1 349.6 4.1ZM349.6 26.3C328.8 26.35 298.25 42.95 265.7 73.2C279.8 87.9 293.8 104.7 307.3 123.2C329.8 125.6 351.2 129.3 370.8 134.1C373 124 374.8 114.1 375.9 104.7C380.5 66.5 374.6 36.8 361 29C357.9 27.3 354.2 26.4 349.6 26.4L349.6 26.3ZM149.9 26.7L149.9 26.8C145.3 26.8 141.4 27.6 138.4 29.4C124.9 37.3 119.1 67 123.8 105.2C125 114.5 126.7 124.2 129 134.2C148.6 129.3 170 125.6 192.6 123.2C205.9 104.7 219.9 88 233.9 73.3C201.3 43.2 170.6 26.7 149.9 26.7ZM324.1 147.9C329 155.5 333.9 163.3 338.5 171.3C343.2 179.3 347.5 187.3 351.6 195.3C356.8 182 361.4 168.7 365.1 155.8C352 152.6 338.3 150 324.1 147.9ZM319.3 262.3C326.8 249.2 333.7 235.8 340 222.4C333.7 209 326.8 195.7 319.2 182.6C311.4 169.2 303.3 156.5 295 144.6C280.2 143.4 265.1 142.7 250 142.7C234.8 142.7 219.7 143.4 204.8 144.7C196.5 156.6 188.5 169.4 180.7 182.9C173.2 196 166.2 209.4 160 222.8C166.3 236.2 173.2 249.5 180.8 262.6C188.6 276 196.7 288.7 205 300.6C219.8 301.8 234.9 302.5 250 302.5C265.2 302.5 280.3 301.8 295.2 300.5C303.5 288.6 311.5 275.8 319.3 262.3ZM351.6 249.3C347.5 257.3 343.2 265.4 338.6 273.4C334 281.5 329.1 289.4 324.2 297.1C338.5 295 352.3 292.3 365.4 289.1C361.6 276.1 357 262.7 351.6 249.3ZM250.2 356C259.4 346.4 268.7 335.7 277.7 324C268.6 324.5 259.3 324.7 249.9 324.7C240.6 324.7 231.4 324.4 222.4 324C231.6 335.7 240.9 346.4 250.2 356ZM161.4 273.7C156.7 265.7 152.4 257.7 148.3 249.7C143.1 263 138.5 276.3 134.8 289.2C147.9 292.4 161.6 295 175.8 297.1C170.9 289.5 166.1 281.7 161.4 273.7ZM249.7 89C240.5 98.6 231.2 109.3 222.2 121C231.3 120.5 240.6 120.3 250 120.3C259.3 120.3 268.5 120.6 277.5 121C268.3 109.3 259 98.6 249.7 89ZM175.7 147.9C161.4 150 147.6 152.7 134.5 155.8C138.3 168.8 142.9 182.2 148.3 195.6C152.4 187.6 156.7 179.6 161.3 171.6C165.9 163.5 170.8 155.6 175.7 147.9ZM85.2 273.1C93.9 276.8 103.3 280.2 113.2 283.3C118.8 263.8 126.2 243.5 135.4 222.7C126.1 201.8 118.6 181.4 112.9 161.8C103.2 164.9 93.8 168.2 85.2 171.9C49.8 186.9 26.9 206.8 26.9 222.5C26.9 238.2 49.8 258 85.2 273.1ZM139 416C142 417.7 145.8 418.6 150.3 418.7C171.1 418.7 201.7 402.1 234.3 371.8C220.2 357.1 206.2 340.3 192.7 321.8C170.2 319.4 148.8 315.7 129.2 310.9C127 321 125.2 330.9 124.1 340.3C119.5 378.5 125.4 408.2 139 416ZM376.2 339.8C375.1 330.5 373.3 320.8 371 310.7C351.4 315.6 330 319.3 307.4 321.7C294.1 340.2 280.1 356.9 266.1 371.6C298.7 401.7 329.4 418.2 350.1 418.2C354.7 418.2 358.6 417.4 361.6 415.6C375.1 407.7 380.9 378 376.2 339.8ZM414.7 273.1C450.1 258.1 473 238.2 473.1 222.5C473.1 206.8 450.2 187 414.8 171.9C406 168.2 396.6 164.8 386.7 161.7C381.1 181.2 373.7 201.5 364.5 222.3C373.8 243.2 381.3 263.6 387 283.2C396.7 280.1 406.1 276.8 414.7 273.1Z" />
			<path id="svg_3" class="shp1" d="M149.8 4.4L149.8 4.4L149.8 4.4L149.8 4.4Z" />
			<path id="svg_4" class="shp1" d="M249.9 268.2C224.63 268.2 204.2 247.77 204.2 222.5C204.2 197.23 224.63 176.8 249.9 176.8C275.17 176.8 295.6 197.23 295.6 222.5C295.6 247.77 275.17 268.2 249.9 268.2Z" />
			<path id="svg_5" class="shp1" d="M349.5 4.1L349.5 4.1L349.5 4.1L349.5 4.1Z" />
		</g>
		<text id="React.js " style="transform: matrix(1,0,0,1,566.5,292.5)" >
			<tspan x="0" y="0" class="txt2">React.js</tspan>
		</text>
	</g>
</svg>