<svg xmlns="http://www.w3.org/2000/svg" viewBox="0 0 100 101" width="100" height="101">
	<style>
		tspan { white-space:pre }
		.shp0 { fill: none } 
		.shp1 { fill: #d2d2d2 } 
		.shp2 { opacity: NaN;fill: #000000 } 
	</style>
	<g id="Layer">
		<path id="canvas_background" class="shp0" d="M-1 -1L101 -1L101 102L-1 102L-1 -1Z" />
	</g>
	<g id="Layer">
		<path id="svg_1" class="shp1" d="M66.4 38.8L63.8 38.8C60.9 41.5 56.2 43.3 50.9 43.3C45.6 43.3 40.9 41.5 38 38.8L36 38.8C26.5 38.8 18.9 44.6 18.9 51.7L82.7 51.7C82.8 44.6 75.4 38.8 66.4 38.8Z" />
		<path id="svg_2" fill-rule="evenodd" class="shp1" d="M70 20.7C70 31.3 61.4 39.9 50.8 39.9C40.2 39.9 31.6 31.3 31.6 20.7C31.6 10.1 40.2 1.5 50.8 1.5C61.4 1.5 70 10.1 70 20.7ZM50.8 35.6C59 35.6 65.7 28.9 65.7 20.8C65.7 19.3 65.5 17.8 65.1 16.5C59.8 11.8 53.3 16.5 53 16.7C50.3 18.6 47.5 19.2 44.9 19.2C41.3 19.2 38.2 18 36.4 17.1C36.1 18.2 35.9 19.4 35.9 20.7C35.9 28.9 42.6 35.6 50.8 35.6Z" />
		<path id="svg_3" fill-rule="evenodd" class="shp1" d="M96.9 97.5L96.9 97.6C96.9 98.1 96.5 98.6 95.9 98.6L4.4 98.6C3.9 98.6 3.4 98.2 3.4 97.6L3.4 97.5C3.4 97 3.8 96.5 4.4 96.5L16.3 96.5C15.6 95.6 15.2 94.5 15.2 93.3L15.2 58.9C15.2 56.1 17.5 53.7 20.4 53.7L81.2 53.7C84 53.7 86.4 56 86.4 58.9L86.4 93.3C86.4 94.5 86 95.6 85.3 96.5L95.9 96.5C96.4 96.5 96.9 96.9 96.9 97.5ZM43.1 66C43.2 66.2 43.5 66.3 43.7 66.3C43.9 66.3 44.1 66.2 44.3 66C45.9 64.4 48 63.5 50.2 63.5C52.4 63.5 54.5 64.3 56.1 65.9C56.2 66.1 56.5 66.2 56.7 66.2C56.9 66.2 57.1 66.1 57.3 65.9C57.6 65.6 57.6 65 57.3 64.7C55.4 62.8 52.9 61.8 50.2 61.8C47.5 61.8 45 62.9 43.1 64.8C42.8 65.2 42.8 65.7 43.1 66ZM52.8 68.5C52.9 68.7 53.2 68.8 53.4 68.8C53.6 68.8 53.8 68.7 54 68.5C54.2 68.4 54.3 68.1 54.3 67.9C54.3 67.7 54.2 67.5 54 67.3C53 66.3 51.7 65.8 50.3 65.8C48.9 65.8 47.6 66.3 46.6 67.3C46.4 67.4 46.3 67.7 46.3 67.9C46.3 68.1 46.4 68.3 46.6 68.5C46.7 68.7 47 68.8 47.2 68.8C47.4 68.8 47.6 68.7 47.8 68.5C48.5 67.9 49.4 67.5 50.3 67.5C51.2 67.5 52 67.9 52.8 68.5ZM51.4 70.8C51.4 70.1 50.9 69.7 50.3 69.7C49.7 69.7 49.2 70.2 49.2 70.8C49.2 71.4 49.7 71.9 50.3 71.9C50.6 71.9 50.9 71.8 51.1 71.6C51.3 71.4 51.4 71.1 51.4 70.8ZM59.1 87.2L59.2 87.2L59.2 74L41.8 74L41.8 76.4L40 76.4C38.8 76.4 37.9 77.4 37.9 78.5L37.9 82.9C37.9 84.1 38.9 85 40 85L41.7 85L41.7 87.2C41.7 88.5 42.7 89.6 43.9 89.6L56.9 89.6C58.1 89.6 59.1 88.5 59.1 87.2Z" />
		<path id="svg_4" class="shp1" d="M39.5 78.6L39.5 83C39.5 83.2 39.7 83.4 39.9 83.4L41.7 83.4L41.7 78L40 78C39.7 78.1 39.5 78.3 39.5 78.6L39.5 78.6Z" />
		<path id="Shape 1" class="shp1" d="M158 63" />
		<path id="svg_7" class="shp2" d="" />
	</g>
</svg>