<svg width="100" height="101" xmlns="http://www.w3.org/2000/svg">

 <g>
  <title>background</title>
  <rect fill="none" id="canvas_background" height="103" width="102" y="-1" x="-1"/>
 </g>
 <g>
  <title>Layer 1</title>
  <path id="svg_1" d="m66.4,38.8l-2.6,0c-2.9,2.7 -7.6,4.5 -12.9,4.5s-10,-1.8 -12.9,-4.5l-2,0c-9.5,0 -17.1,5.8 -17.1,12.9l63.8,0c0.1,-7.1 -7.3,-12.9 -16.3,-12.9z"/>
  <path id="svg_2" d="m50.8,1.5c-10.6,0 -19.2,8.6 -19.2,19.2c0,10.6 8.6,19.2 19.2,19.2c10.6,0 19.2,-8.6 19.2,-19.2c0,-10.6 -8.6,-19.2 -19.2,-19.2zm0,34.1c-8.2,0 -14.9,-6.7 -14.9,-14.9c0,-1.3 0.2,-2.5 0.5,-3.6c1.8,0.9 4.9,2.1 8.5,2.1c2.6,0 5.4,-0.6 8.1,-2.5c0.3,-0.2 6.8,-4.9 12.1,-0.2c0.4,1.3 0.6,2.8 0.6,4.3c0,8.1 -6.7,14.8 -14.9,14.8z"/>
  <path id="svg_3" d="m95.9,96.5l-10.6,0c0.7,-0.9 1.1,-2 1.1,-3.2l0,-34.4c0,-2.9 -2.4,-5.2 -5.2,-5.2l-60.8,0c-2.9,0 -5.2,2.4 -5.2,5.2l0,34.4c0,1.2 0.4,2.3 1.1,3.2l-11.9,0c-0.6,0 -1,0.5 -1,1l0,0.1c0,0.6 0.5,1 1,1l91.5,0c0.6,0 1,-0.5 1,-1l0,-0.1c0,-0.6 -0.5,-1 -1,-1zm-52.8,-31.7c1.9,-1.9 4.4,-3 7.1,-3c2.7,0 5.2,1 7.1,2.9c0.3,0.3 0.3,0.9 0,1.2c-0.2,0.2 -0.4,0.3 -0.6,0.3c-0.2,0 -0.5,-0.1 -0.6,-0.3c-1.6,-1.6 -3.7,-2.4 -5.9,-2.4c-2.2,0 -4.3,0.9 -5.9,2.5c-0.2,0.2 -0.4,0.3 -0.6,0.3s-0.5,-0.1 -0.6,-0.3c-0.3,-0.3 -0.3,-0.8 0,-1.2zm7.2,2.7c-0.9,0 -1.8,0.4 -2.5,1c-0.2,0.2 -0.4,0.3 -0.6,0.3c-0.2,0 -0.5,-0.1 -0.6,-0.3c-0.2,-0.2 -0.3,-0.4 -0.3,-0.6c0,-0.2 0.1,-0.5 0.3,-0.6c1,-1 2.3,-1.5 3.7,-1.5c1.4,0 2.7,0.5 3.7,1.5c0.2,0.2 0.3,0.4 0.3,0.6c0,0.2 -0.1,0.5 -0.3,0.6c-0.2,0.2 -0.4,0.3 -0.6,0.3c-0.2,0 -0.5,-0.1 -0.6,-0.3c-0.8,-0.6 -1.6,-1 -2.5,-1zm1.1,3.3c0,0.3 -0.1,0.6 -0.3,0.8c-0.2,0.2 -0.5,0.3 -0.8,0.3c-0.6,0 -1.1,-0.5 -1.1,-1.1c0,-0.6 0.5,-1.1 1.1,-1.1c0.6,0 1.1,0.4 1.1,1.1zm7.7,16.4c0,1.3 -1,2.4 -2.2,2.4l-13,0c-1.2,0 -2.2,-1.1 -2.2,-2.4l0,-2.2l-1.7,0c-1.1,0 -2.1,-0.9 -2.1,-2.1l0,-4.4c0,-1.1 0.9,-2.1 2.1,-2.1l1.8,0l0,-2.4l17.4,0l0,13.2l-0.1,0z"/>
  <path id="svg_4" d="m39.5,78.6l0,4.4c0,0.2 0.2,0.4 0.4,0.4l1.8,0l0,-5.4l-1.7,0c-0.3,0.1 -0.5,0.3 -0.5,0.6z"/>
  <path id="svg_7" d="m84.375064,106.620009" opacity="0.5" fill-opacity="null" stroke-opacity="null" stroke-width="null" stroke="null" fill="null"/>
 </g>
</svg>