<svg id="logo-svg-main" data-name="Layer 1" xmlns="http://www.w3.org/2000/svg" viewBox="0 0 738.68 243.12"><defs><style>.cls-1{fill-rule:evenodd;}</style></defs><path class="cls-1" d="M438.87,196.62c.72.07,1.11.14,1.49.14.88,0,1.76,0,2.64,0q147.11,0,294.22,0a14.17,14.17,0,0,1,5.39.88,11.51,11.51,0,0,1-4.05,22.21c-1.92,0-3.84-.1-5.76-.1H442.43a12.76,12.76,0,0,0-3.38.19,12.43,12.43,0,0,0-.16,3.15c0,3.12.09,6.24,0,9.36a45.2,45.2,0,0,1-5.62,20.39c-5.32,9.6-15.3,15.58-26.12,17.66a45.6,45.6,0,0,1-23.44-1.44A29.13,29.13,0,0,1,368,256.7a36.94,36.94,0,0,1-5.12-13.11A46.43,46.43,0,0,1,363,224.3a30.71,30.71,0,0,1,12.7-18.84,43.6,43.6,0,0,1,15.81-6.66,87.12,87.12,0,0,1,16.65-2c1.11,0,4.22-.06,5.41-.09a6.13,6.13,0,0,0,.28-1.24q0-9.36,0-18.72a6.71,6.71,0,0,0-.21-1.07,10.45,10.45,0,0,0-1.12.65c-5.67,4.46-12.24,6.5-19.33,7a45.61,45.61,0,0,1-14-1.21,28.83,28.83,0,0,1-15.56-9.37c-.21-.24-.39-.51-.64-.84-.58.4-1,.68-1.45,1-10.12,8.52-21.82,12-34.94,11.17-5.6-.37-11.09-1.48-16.62-2.35q-4.26-.67-8.56-1.13c-4.91-.54-9.73.17-14.55,1-2.2.4-4.42.72-6.64,1a25.58,25.58,0,0,1-10.68-.92,14.9,14.9,0,0,1-7.19-4.33c-.53.27-1,.5-1.48.77a34.54,34.54,0,0,1-22.39,4.46A34.94,34.94,0,0,1,226.33,179a30.26,30.26,0,0,1-9.31-7.45l-1.18-1.4c-.69-.08-.91.41-1.21.74a36.4,36.4,0,0,1-23,11.64,46,46,0,0,1-19.23-1.52,34.79,34.79,0,0,1-17-11.2c-.5-.6-1-1.19-1.62-1.87-.7.59-1.31,1.08-1.9,1.6a64.71,64.71,0,0,1-11,7.72A38,38,0,0,1,130,181a116.75,116.75,0,0,1-30.31,2.15c-6.4-.29-12.78-.73-19.12-1.59-3.88-.53-7.75-1.12-11.63-1.69-.79-.12-1.59-.21-2.37-.37a3,3,0,0,0-2.07.34c-7.23,3.64-15,4.43-22.89,3.84a30.87,30.87,0,0,1-9.1-2,20.28,20.28,0,0,1-8.41-5.79,16.23,16.23,0,0,1-3.89-12.7A12.46,12.46,0,0,1,24.84,155a16.78,16.78,0,0,1,7.75-3.59,25.13,25.13,0,0,1,6.69-.44,56.8,56.8,0,0,1,11.12,1.74c.53.14,1.07.24,1.51.34.72-.41.61-1,.67-1.55A217.25,217.25,0,0,0,53.89,127c0-7.36-.25-14.71-.4-22.07,0-.63-.12-1.26-.19-2-3.07-.74-6.12-1.35-9.1-2.22a88.68,88.68,0,0,1-8.82-3.08,91.84,91.84,0,0,1-8.65-4.13c-2.74-1.48-5.37-3.16-8-4.87a61.36,61.36,0,0,1-7.35-5.59c-.32-2.88-.24-23.73.1-25.6a6.62,6.62,0,0,1,3.45.4,11.31,11.31,0,0,1,4.93,3.28A68.89,68.89,0,0,0,49.2,79.65a4.75,4.75,0,0,0,2.94.46c0-.52,0-1.06,0-1.6-.15-2.63-.46-5.27-.43-7.9a47.18,47.18,0,0,1,7.13-25.3c5.95-9.42,14.52-14.88,25.53-16.51a43.67,43.67,0,0,1,18.31,1,33.75,33.75,0,0,1,24.92,31.43c.38,8.59-1.87,16.3-7.39,23a41.19,41.19,0,0,1-10.57,9,68.9,68.9,0,0,1-18.84,7.61A82.86,82.86,0,0,1,79,102.92c-.38,0-.76.15-1.24.25.25,4.62.55,9.15.71,13.69s.23,9.28.24,13.92-.15,9.12-.19,13.68S78,153.52,78,158.19c.55.14,1,.29,1.44.35a165.72,165.72,0,0,0,25.07,2.19A75.72,75.72,0,0,0,125.14,158a41.23,41.23,0,0,0,18.72-11.2,3.28,3.28,0,0,0,1-3c-.43-3.73-.8-7.48-.91-11.23a50.1,50.1,0,0,1,9.32-30.93c6.06-8.61,14.58-13.74,24.76-16.13a35.93,35.93,0,0,1,16.18-.14,32.45,32.45,0,0,1,14.24,7.09c.53.45,1.07.88,1.69,1.39a3.14,3.14,0,0,0,.32-2c0-1.12,0-2.25.08-3.36a2.87,2.87,0,0,1,2.65-2.65,12.61,12.61,0,0,1,1.68-.07h16.32a11.44,11.44,0,0,1,1.91.11,2.7,2.7,0,0,1,2.33,2.4,21.53,21.53,0,0,1,.08,2.63q0,24.72,0,49.44a27.26,27.26,0,0,0,.68,6.42c1.57,6.55,5.8,10.22,12.53,10.56a29.67,29.67,0,0,0,21-7.21,15.56,15.56,0,0,0,1.81-1.91l30.54-35.77c.56-.66,1.09-1.34,1.6-2-.45-.78-1.08-.51-1.58-.51-6.64,0-13.28,0-19.92,0-4.48,0-9,0-13.44,0a17.48,17.48,0,0,1-12.25-5.25c-4.91-4.79-5.68-15.19,1.86-20.75a12.45,12.45,0,0,1,14.6.25,8,8,0,0,0,5.46,1.75c14.56-.06,29.12,0,43.68-.07a19.21,19.21,0,0,1,7.7,1.57,12.31,12.31,0,0,1,7.57,9,19.31,19.31,0,0,1,.24,7.62,10.36,10.36,0,0,1-2,4.58c-1.45,1.91-2.87,3.85-4.44,5.66q-13,15.06-26.13,30.06c-3.9,4.46-7.89,8.83-11.83,13.24-.52.58-1,1.2-1.44,1.72.18.64.57.49.83.45,5-.67,9.9-.18,14.83.37,5.56.62,11.12,1.29,16.69,1.82,11.06,1.06,20.44-2.7,28.37-10.28,2.91-2.78,2.39-1.84,2.12-5.58-.1-1.36-.13-2.72-.13-4.08q0-25.68,0-51.36a16,16,0,0,1,.06-2.16,2.92,2.92,0,0,1,2.69-2.63,12.76,12.76,0,0,1,1.68-.07H375a12.79,12.79,0,0,1,1.68.07,2.92,2.92,0,0,1,2.67,2.64,18.64,18.64,0,0,1,.07,2.4q0,21.6,0,43.2A40.9,40.9,0,0,0,380.87,145a21.49,21.49,0,0,0,3.21,6.93,14.86,14.86,0,0,0,21.23,3.27,18.87,18.87,0,0,0,5.72-7.29,32.81,32.81,0,0,0,2.86-12.07c.07-1.12.06-2.24.06-3.36q0-20.88,0-41.76c0-.72,0-1.44,0-2.16a2.85,2.85,0,0,1,2.58-2.7,13.9,13.9,0,0,1,1.91-.08h15.84a13.3,13.3,0,0,1,1.91.09,2.86,2.86,0,0,1,2.57,2.73,22.55,22.55,0,0,1,0,2.4q0,51.12,0,102.23Zm-268-61.73c.06,1,.11,2.73.29,4.4A28.44,28.44,0,0,0,173,147c1.83,4.55,4.91,7.87,9.62,9.41a24.87,24.87,0,0,0,15.58,0,14.65,14.65,0,0,0,9-7.83,22.45,22.45,0,0,0,1.89-5.67,44.62,44.62,0,0,0,.39-14.8,25.38,25.38,0,0,0-3.16-9.5,16.07,16.07,0,0,0-10.49-7.77,24.19,24.19,0,0,0-7.87-.44,16.55,16.55,0,0,0-14.28,9.84,28.38,28.38,0,0,0-1.56,4.27A36.31,36.31,0,0,0,170.9,134.9ZM413.76,220a5.3,5.3,0,0,0-.95-.23c-4.15,0-10.31,0-14.46.09a11.59,11.59,0,0,0-3.29.59c-5,1.62-8.49,4.89-9.67,10a15.45,15.45,0,0,0,2.65,13,11.48,11.48,0,0,0,6.19,4.29c5.13,1.51,11.46-.25,14.68-4.63a22.57,22.57,0,0,0,4.75-10.58c.51-3.56.15-7.19.2-10.78C413.86,221.24,413.8,220.69,413.76,220ZM76.84,81.1c1.75-.33,3.24-.56,4.7-.89A46.53,46.53,0,0,0,93.47,76a22.86,22.86,0,0,0,7-5.4,13.51,13.51,0,0,0,3-12.31,10.22,10.22,0,0,0-7.24-7.9c-4.48-1.4-10.81-1.07-15,5A23.31,23.31,0,0,0,78,62.05a41.94,41.94,0,0,0-1.68,13.26A31.07,31.07,0,0,0,76.84,81.1Z" transform="translate(-11.19 -28.28)"></path><path class="cls-1" d="M473.7,162.39l2.52-.41c4.69-.72,7.42-3.59,7.86-8.3.07-.79.09-1.6.08-2.4q0-36.34,0-72.68c0-3.52.08-7,0-10.55a18.3,18.3,0,0,0-.51-4.26,9,9,0,0,0-7.67-7c-.77-.14-1.63,0-2.29-.77,0-.39-.11-.86-.11-1.33q0-8.76,0-17.51a3.44,3.44,0,0,1,.25-.81,6.79,6.79,0,0,1,1.3-.25c3.76,0,7.52,0,11.27,0a2.81,2.81,0,0,1,2.14.85c1.25,1.23,2.55,2.4,3.87,3.63a17.48,17.48,0,0,0,3.51-3,4.78,4.78,0,0,1,3.84-1.46c6.8.06,13.59,0,20.39,0A44.91,44.91,0,0,1,533.43,38c9.72,3,15.93,9.42,18.79,19.13a51.17,51.17,0,0,1,1.79,14c.06,5.36.05,10.71.06,16.07q0,21.59.06,43.18c0,5.92,0,11.83,0,17.75a45.86,45.86,0,0,1-1.78,13c-3.22,10.93-10.42,17.7-21.44,20.44a48.46,48.46,0,0,1-11.41,1.33c-6.64,0-13.27,0-19.91,0a4.08,4.08,0,0,1-3.2-1.26c-1.11-1.13-2.33-2.16-3.52-3.24a8.74,8.74,0,0,0-2.71,2.12c-3.25,2.84-1.73,2.3-6.11,2.35-2.72,0-5.44,0-8.16,0-2.23,0-2.34-.12-2.35-2.26,0-2.88,0-5.76,0-8.64,0-2.56,0-5.12,0-7.68C473.58,163.81,473.65,163.26,473.7,162.39Zm57.59-53q0-19.3,0-38.6a24.71,24.71,0,0,0-.17-3.83,20.41,20.41,0,0,0-1.1-4.4,9.4,9.4,0,0,0-6.57-5.81,16.3,16.3,0,0,0-8.29-.07,9.25,9.25,0,0,0-6.71,5.94,13.29,13.29,0,0,0-.82,3,38.44,38.44,0,0,0-.38,5q0,38.36,0,76.73c0,.56,0,1.12,0,1.68a23.29,23.29,0,0,0,1.38,7.51,9.62,9.62,0,0,0,7.1,6.2,15.48,15.48,0,0,0,7.13,0,9.6,9.6,0,0,0,6.67-5.38,18.93,18.93,0,0,0,1.13-3.15,24.54,24.54,0,0,0,.65-6.66Q531.29,128.42,531.29,109.36Z" transform="translate(-11.19 -28.28)"></path><path class="cls-1" d="M635.38,109.77q0,19.32,0,38.63a48.91,48.91,0,0,1-1.55,12.82c-.31,1.16-.67,2.31-1.09,3.43-3.54,9.4-10.29,15.27-19.94,17.73a49.12,49.12,0,0,1-24.7,0c-11.16-2.87-18-10.13-20.95-21.21a53.7,53.7,0,0,1-1.52-13.79q0-32.15,0-64.31c0-4.56,0-9.12.1-13.67a48.29,48.29,0,0,1,2.84-15.75,26.11,26.11,0,0,1,16.57-16.19,31.76,31.76,0,0,1,3.68-1.08,53.73,53.73,0,0,1,24.49.24A31.7,31.7,0,0,1,617.65,38a25.49,25.49,0,0,1,14.22,13.87A41,41,0,0,1,634.81,63a74.7,74.7,0,0,1,.57,10.05Q635.38,91.41,635.38,109.77Zm-46.87-.43q0,18.84,0,37.68a46,46,0,0,0,.24,5.27,22.79,22.79,0,0,0,1,4.44,8.59,8.59,0,0,0,7.32,6.1,20.66,20.66,0,0,0,6.69,0,9.15,9.15,0,0,0,7.58-6.2,18.17,18.17,0,0,0,.55-1.83,28.42,28.42,0,0,0,.72-6.9q0-38.88,0-77.75c0-.48,0-1,0-1.44a20.57,20.57,0,0,0-1.15-6.1,9.54,9.54,0,0,0-7.12-6.16,16.05,16.05,0,0,0-6-.29c-5,.72-7.91,3.27-9.21,8.14a24.68,24.68,0,0,0-.63,6.43Q588.5,90,588.51,109.34Z" transform="translate(-11.19 -28.28)"></path><path class="cls-1" d="M683,120.54a3.12,3.12,0,0,1-.31-.82q0-6.48,0-13a8.81,8.81,0,0,1,.19-1.26,7.43,7.43,0,0,1,1.38-.27c4.64,0,9.28,0,13.92,0a3,3,0,0,1,2.33,1c.83.87,1.7,1.69,2.56,2.53.39.38.82.72,1.32,1.16.6-.52,1.14-1,1.66-1.45q1.32-1.22,2.62-2.47a2.32,2.32,0,0,1,1.71-.73l15.84,0a2.81,2.81,0,0,1,.59.16,3.4,3.4,0,0,1,.32,1c0,4.4,0,8.8,0,13.2a3.93,3.93,0,0,1-.23.83l-1.3.26a42.25,42.25,0,0,0-4.22.82,6.92,6.92,0,0,0-4.81,4.65,25.15,25.15,0,0,0-1,4.9,93.31,93.31,0,0,0-.16,12.7,71.67,71.67,0,0,1-.76,14.11,37.12,37.12,0,0,1-3,9.82A26.55,26.55,0,0,1,694.86,182a50.83,50.83,0,0,1-26.77.23c-10.35-2.95-16.87-9.67-19.8-20a47.32,47.32,0,0,1-1.7-13q0-40.19,0-80.39A44.08,44.08,0,0,1,648,57.22c3.14-11.54,10.66-18.45,22.25-21a42.65,42.65,0,0,1,8.8-1c2.48,0,5,0,7.44,0a3.47,3.47,0,0,1,2.76,1.12c1.11,1.14,2.3,2.2,3.52,3.35a7.88,7.88,0,0,0,2.3-1.77c1-.83,1.8-2,2.92-2.44a12.1,12.1,0,0,1,4-.23q5,0,10.08,0a4.8,4.8,0,0,1,2.49.3,11,11,0,0,1,.28,1.26,13.08,13.08,0,0,1,0,1.44q0,17.64,0,35.27a6.75,6.75,0,0,1-.26,2.71,4.65,4.65,0,0,1-1.09.27q-8.76,0-17.52,0a3.74,3.74,0,0,1-.81-.16c-.67-.7-.42-1.45-.47-2.15-.15-2.15-.21-4.31-.44-6.45a15.25,15.25,0,0,0-1.73-5.46A10.52,10.52,0,0,0,685,56.49a16,16,0,0,0-7.14.18,10.06,10.06,0,0,0-7.09,6.26,21.12,21.12,0,0,0-1.36,6.79c0,.56,0,1.12,0,1.68q0,38.87,0,77.75a38.42,38.42,0,0,0,.39,4.53,11.07,11.07,0,0,0,.52,2.09,9.74,9.74,0,0,0,7.85,6.93,16.39,16.39,0,0,0,6.68-.07,11.67,11.67,0,0,0,9.42-10,22.81,22.81,0,0,0,.29-3.34c.06-4.16.16-8.32.05-12.48-.06-2.63-.44-5.25-.71-7.87a9.09,9.09,0,0,0-.41-1.62,8.43,8.43,0,0,0-7.11-6.3C685.3,120.86,684.19,120.73,683,120.54Z" transform="translate(-11.19 -28.28)"></path><path class="cls-1" d="M686.32,261.72a59.84,59.84,0,0,1-6.71-.07c-.66-1.16-1.33-2.33-2-3.51s-1.3-2.39-2-3.57a22.87,22.87,0,0,0-2.22-3.66,7.87,7.87,0,0,0-.25,2.79c0,.88,0,1.76,0,2.64v5.1c-2.18.58-4.22.23-6.33.3a6.29,6.29,0,0,1-.28-1.25q0-10.68,0-21.35a5.61,5.61,0,0,1,.13-.8c1.07-.63,2.29-.29,3.45-.34s2.22,0,3.39,0c2,3.46,3.76,7,6,10.32a8.66,8.66,0,0,0,.36-3.35c0-1.12,0-2.24,0-3.36s0-2.21.05-3.42a29.28,29.28,0,0,1,6.32-.19,7.14,7.14,0,0,1,.26,1.28q0,10.56,0,21.11A12.7,12.7,0,0,1,686.32,261.72Z" transform="translate(-11.19 -28.28)"></path><path class="cls-1" d="M642.05,261.76c-2.23,0-4.06,0-5.89,0-.47,0-.94-.07-1.53-.12-.62-1.39-1.23-2.77-1.85-4.14s-1.18-2.6-1.76-3.89a7.81,7.81,0,0,0-3.55,0c-.46,2.58.07,5.22-.33,7.92a24,24,0,0,1-6.52.07,40.25,40.25,0,0,1-.16-5.77c0-2,0-4,0-6s0-3.83,0-5.75-.06-3.81.07-5.85A9,9,0,0,1,622,238c4,0,8,0,12,0a11.38,11.38,0,0,1,3.05.5,5,5,0,0,1,3.49,3.64,11.37,11.37,0,0,1,0,6.38,5.48,5.48,0,0,1-2.88,3.47C638.89,255.3,640.7,258.22,642.05,261.76Zm-14.56-13.59c1.71,0,3.13.08,4.55,0s1.84-.62,1.92-1.93a6.34,6.34,0,0,0-.06-1.19,1.51,1.51,0,0,0-1.39-1.42,12.45,12.45,0,0,0-5,.17c0,.69-.12,1.32-.13,1.94S627.45,247.17,627.49,248.17Z" transform="translate(-11.19 -28.28)"></path><path class="cls-1" d="M591.32,261.7c-.28-2.2-.41-17.39-.22-22.31,0-.38.1-.76.16-1.22a9.46,9.46,0,0,1,1.24-.17c3.59,0,7.18,0,10.77,0a15.42,15.42,0,0,1,3.53.52,6,6,0,0,1,4.44,4.58,7.48,7.48,0,0,1,.28,1.41,44.73,44.73,0,0,1-.14,11c-.63,3.79-3,5.94-6.82,6.16-2.86.17-5.74.08-8.61.08C594.45,261.76,592.94,261.72,591.32,261.7Zm7-5.3c1.2,0,2.32,0,3.42,0,2.1-.08,2.93-.73,3.08-2.87.17-2.38,0-4.78,0-7.18a4.35,4.35,0,0,0-.19-.94,2.36,2.36,0,0,0-2.16-1.94,12.8,12.8,0,0,0-4.2.07A72.38,72.38,0,0,0,598.3,256.41Z" transform="translate(-11.19 -28.28)"></path><path class="cls-1" d="M481.58,238.25c2-.34,10.26-.46,16.15-.25a14.43,14.43,0,0,1,1.49.21,28.84,28.84,0,0,1,.06,5.16,27.81,27.81,0,0,1-5.34.2c-1.75,0-3.49,0-5.26,0a5,5,0,0,0-.19,3.26,12.93,12.93,0,0,0,1.62.22c2.24,0,4.48,0,6.72,0,.62,0,1.23.11,2,.18a24.34,24.34,0,0,1,0,5.17,31.74,31.74,0,0,1-5.11.17c-1.67,0-3.34,0-5.07,0a5.27,5.27,0,0,0-.12,3.4,24.77,24.77,0,0,0,5.26.2c1.75,0,3.51,0,5.32,0,.64,1.74.28,3.39.28,5.14a4.72,4.72,0,0,1-1.13.3q-7.91,0-15.83,0a4.28,4.28,0,0,1-.8-.18,7.57,7.57,0,0,1-.24-1.34q0-10.19,0-20.39A12.57,12.57,0,0,1,481.58,238.25Z" transform="translate(-11.19 -28.28)"></path><path class="cls-1" d="M717.06,261.45a5.43,5.43,0,0,1-1,.28c-2.16,0-4.31,0-6.54,0-2.09-2.54-3.51-5.52-5.58-8.18a2.1,2.1,0,0,0-1.36,2.06c0,1,0,2.08,0,3.12,0,.87,0,1.74,0,2.56-1.62.56-3.31.63-6.61.3a4.28,4.28,0,0,1-.27-1.05q0-10.68,0-21.36a7.31,7.31,0,0,1,.17-1.05,29,29,0,0,1,6.55,0c.38,2.56,0,5.1.3,7.92a11.5,11.5,0,0,0,1-1c1.56-1.93,3.13-3.85,4.63-5.82A2.87,2.87,0,0,1,711,238c1.44.08,2.88,0,4.32,0a11.92,11.92,0,0,1,1.3.17,9.33,9.33,0,0,1-1.86,2.61c-.69.88-1.43,1.73-2.14,2.59l-2,2.4-2,2.5C711.35,252.67,714.21,256.89,717.06,261.45Z" transform="translate(-11.19 -28.28)"></path><path class="cls-1" d="M530.73,261.63a38,38,0,0,1-7,0l-1.4-4.78a18.34,18.34,0,0,0-6.53-.17c-1,1.43-.86,3.33-1.78,4.94a35.58,35.58,0,0,1-6.7,0,3.59,3.59,0,0,1,0-1q3.57-11.17,7.19-22.36c1.49-.63,3-.28,4.51-.34s3,0,4.62,0a11.68,11.68,0,0,1,.61,1.36q3.14,10.43,6.25,20.87A13.14,13.14,0,0,1,530.73,261.63Zm-10.11-10.15a15,15,0,0,0-1.57-6.3,18.3,18.3,0,0,0-1.64,6.35A9.75,9.75,0,0,0,520.61,251.48Z" transform="translate(-11.19 -28.28)"></path><path class="cls-1" d="M542.14,261.5a4,4,0,0,1-.28-2.32c0-4.31,0-8.62,0-12.93a5,5,0,0,0-.26-2.38c-1.93-.54-4,.14-6-.49a34.63,34.63,0,0,1,0-5.11,6.34,6.34,0,0,1,1.2-.25q8.74,0,17.48,0a5.87,5.87,0,0,1,1,.18,13.42,13.42,0,0,1,0,5.2c-2,.58-4,0-6.14.45-.06.63-.17,1.23-.17,1.84,0,4.47,0,8.94,0,13.41,0,.78-.06,1.57-.09,2.31A17.46,17.46,0,0,1,542.14,261.5Z" transform="translate(-11.19 -28.28)"></path><path class="cls-1" d="M650.36,238.18a37.45,37.45,0,0,1,6.77-.13,7.72,7.72,0,0,1,.23,1.27q0,10.64,0,21.28a6.28,6.28,0,0,1-.11.79c-1.07.66-2.29.32-3.44.35a10.48,10.48,0,0,1-3.42-.19,6.4,6.4,0,0,1-.2-1.12q0-10.52,0-21A9.17,9.17,0,0,1,650.36,238.18Z" transform="translate(-11.19 -28.28)"></path><path class="cls-1" d="M567.53,255a56.83,56.83,0,0,1,0,6.58,33.73,33.73,0,0,1-6.44.11A18.59,18.59,0,0,1,561,255,17.8,17.8,0,0,1,567.53,255Z" transform="translate(-11.19 -28.28)"></path><path class="cls-1" d="M725.14,261.58a52.05,52.05,0,0,1,0-6.46,14.05,14.05,0,0,1,6.71-.06,58.35,58.35,0,0,1,0,6.28C730.27,261.86,728.47,261.92,725.14,261.58Z" transform="translate(-11.19 -28.28)"></path></svg>