<svg xmlns="http://www.w3.org/2000/svg" xmlns:xlink="http://www.w3.org/1999/xlink" viewBox="0 0 74.375 85" fill="white" fill-rule="evenodd"><use xlink:href="#A" x="2.188" y="2.5"/><symbol id="A" overflow="visible"><path d="M35.005 49.942L0 54.06l9.83 14.03 36.386-16.83-11.21-1.317z" fill="#b7ca9d"/><path d="M35.005 30.058L70 25.94l-9.83-14.03-36.386 16.82 11.222 1.327z" fill="#3c4929"/><path d="M23.783 28.732l36.386-5.58v-11.24L23.783 21.23v7.502zM0 44.683L35.005 48l34.335-8-34.335-8L0 35.307v9.376z" fill="#4b612c"/><path d="M70 44.683L35.005 48V32L70 35.307v9.376z" fill="#759c3e"/><path d="M0 25.942L35.005 0l18.63 21.288-36.654 6.654-16.982-2z" fill="#3c4929"/><path d="M0 16.566L35.005 0v16L0 25.942v-9.376z" fill="#4b612c"/><path d="M60.17 11.912L70 16.566v9.376l-9.83-2.8v-11.24zM46.217 51.26L9.83 56.85V68.1l36.386-9.327V51.26zm7.42-29.972L35.005 16V0l18.63 8.82v12.468z" fill="#759c3e"/><path d="M70 54.06L35.005 80l-18.63-21.298 36.644-6.644 16.982 2z" fill="#b7ca9d"/><path d="M70 63.425L35.005 80V64L70 54.06v9.366z" fill="#759c3e"/><path d="M16.374 58.702L35.005 64v16l-18.63-8.82V58.702zM9.83 68.088L0 63.425V54.06l9.83 2.8V68.1z" fill="#4b612c"/></symbol></svg>