<svg xmlns="http://www.w3.org/2000/svg" xmlns:xlink="http://www.w3.org/1999/xlink" viewBox="0 0 74.375 85" fill="white" fill-rule="evenodd"><use xlink:href="#A" x="2.188" y="2.5"/><symbol id="A" overflow="visible"><path d="M14 50.117l-5.04-.8-8.948.75L4.402 64.8 14 50.117z" fill="#b7ca9d"/><path d="M0 33.298v13.376l4.526.615 8.825-6.868-8.825-7.727L0 33.298z" fill="#4b612c"/><path d="M4.526 51.024l9.464-.907v13.405l-9.464.644-3.65-6.985 3.65-6.156z" fill="#759c3e"/><path d="M9.072 30.702l4.917-.78-9.464-14.85L0 29.94l9.072.76z" fill="#3c4929"/><path d="M4.526 14.4L14 16.517v13.405l-9.464-.898V14.4zm0 18.322l9.464.595v13.415l-9.464.605V32.722z" fill="#759c3e"/><path d="M14 25.942l7.237-1.6-9.918-12.8-6.783 13.15L14 25.942z" fill="#3c4929"/><path d="M11.31 11.22l9.918 2.634v10.488l-9.918-1.58V11.22z" fill="#759c3e"/><path d="M21.227 55.64l-7.217-1.6-9.484 1.268L11.3 68.83l9.918-13.2z" fill="#b7ca9d"/><path d="M11.31 57.24l9.918-1.58v10.527L11.31 68.83l-8.97-6.585 8.97-5.005z" fill="#759c3e"/><path d="M69.928 29.932l-9.072.76-12.093-1.912 9.856-17.6 11.31 18.75z" fill="#3c4929"/><path d="M4.526 55.308v-4.322L0 50.06v13.376l11.31 5.356V57.23l-6.784-1.922z" fill="#4b612c"/><path d="M69.95 50.068l-9.072-.76-12.114 1.922 9.856 17.24 11.33-18.4z" fill="#b7ca9d"/><path d="M58.62 11.18l-9.856 2.624V28.78l9.856-1.122 10.722-6.127L58.62 11.18zm0 20.498l-9.856.76v14.976l9.856.742 10.722-7.883-10.722-8.595zm0 20.742l-9.856-1.132v14.976l9.856 2.634 9.917-10.702-9.917-5.776z" fill="#4b612c"/><g fill="#3c4929"><path d="M24.598 6.878L14.69 21.805l10.082 1.746L35 21.298 24.598 6.878z"/><path d="M55.248 26.957l-10.093 1.25-20.557-3.258L35 .098l20.258 26.86z"/></g><path d="M35 51.396L54.444 40.03 35 28.576 24.598 29.98V50L35 51.396z" fill="#4b612c"/><path d="M35 28.576v22.82l20.258-2.732V31.308L35 28.576z" fill="#759c3e"/><g fill="#b7ca9d"><path d="M55.248 53.054l-10.093-1.258-20.557 3.268L35 80l20.258-26.937z"/><path d="M34.928 58.673L24.846 56.44l-10.114 1.756 9.485 16.322 10.71-15.844z"/></g><path d="M14.68 58.185V70.4L35 80l18.938-17.756L35 57.18l-10.392-2.117v5.932l-9.917-2.8zM11.3 22.76V11.22L0 16.566v13.376l4.526-.917v-4.342L11.3 22.76zm13.288-3.764v5.95L35 22.84l18.7-5.063L35 .02l-20.3 9.6v12.185l9.918-2.8z" fill="#4b612c"/><path d="M35 0v22.84l20.258 4.117V9.58L35 0zm35 29.952V16.566L58.62 11.18v16.46L70 29.952zm0 16.72V33.308l-11.38-1.54v16.45L70 46.673zM35 57.18v22.8l20.258-9.6V53.054L35 57.18zm35 6.245V50.06l-11.38 2.3V68.8L70 63.425z" fill="#759c3e"/></symbol></svg>