<svg xmlns="http://www.w3.org/2000/svg" xmlns:xlink="http://www.w3.org/1999/xlink" viewBox="0 0 74.375 85" fill="white" fill-rule="evenodd"><use xlink:href="#A" x="2.188" y="2.5"/><symbol id="A" overflow="visible"><path d="M0 65.115l7.02 3.56L50.266 40.24 7.02 11.326 0 14.886 9.913 40 0 65.115z" fill="#4b612c"/><path d="M30.656 39.98l25.015 4.196 7.3-32.84-32.313 8.236V39.98z" fill="#b7ca9d"/><path d="M32.2 40.042l23.8.01 6.96 28.612-30.76-7.84V40.042z" fill="#3c4929"/><path d="M37.852 19.186l-30.83-7.86L20.28 40l22.153 8.737-4.58-29.55z" fill="#b7ca9d"/><path d="M40.672 10.094l-5.63 1.858V2.516L40.672.02v10.073zm0 69.886l-5.63-2.495v-13.58l5.63 1.587v14.5z" fill="#4b612c"/><path d="M29.37 10l5.672 1.9V2.516L29.37 0v10zm0 70l5.672-2.516V59.54l-5.672 1.305V80zm33.6-11.336l7.03-3.56L60.17 40 70 14.896l-7.03-3.56L49.782 40 62.97 68.664z" fill="#759c3e"/><path d="M29.37 0L16.347 6.608 35 39.76l9.41-23.57L35 7.902 29.37 0z" fill="#4b612c"/><path d="M40.672.02l-5.63 7.954-.05.084v31.7l.123.22 9.965-17.89 8.616-15.46L40.672.02z" fill="#759c3e"/><path d="M46.818 40.03l-26.538.02L7.02 68.674l39.797-10.146V40.03z" fill="#3c4929"/><path d="M25.056 57.89l-8.71 15.5L29.37 80 35 72.098v-.157l10.974-7.14L35 40.24l-9.934 17.65z" fill="#4b612c"/><path d="M45.078 57.923L35.114 40.02l-.123.22v31.7l.05.084 5.63 7.954 13.022-6.608-8.616-15.45z" fill="#759c3e"/></symbol></svg>